 0
SECTION
 2
ENTITIES
  0
POLYLINE
 8
Layer0
 66
     1
70
    8
 10
0.0
 20
 0.0
 30
0.0
  0
VERTEX
  8
MY3DLAYER
10
0.78740157480315
20
-0.196850393700787
30
0.0
 70
     32
  0
VERTEX
  8
MY3DLAYER
10
0.78740157480315
20
0.590551181102362
30
0.0
 70
     32
  0
VERTEX
  8
MY3DLAYER
10
0.785902711152532
20
0.659243129709192
30
4.50548193091179e-017
 70
     32
  0
VERTEX
  8
MY3DLAYER
10
0.781408973372828
20
0.727804319287652
30
8.80138152574305e-017
 70
     32
  0
VERTEX
  8
MY3DLAYER
10
0.773928915549308
20
0.796104239716618
30
1.28795212954522e-016
 70
     32
  0
VERTEX
  8
MY3DLAYER
10
0.763476776397178
20
0.864012878215639
30
1.67321382692012e-016
 70
     32
  0
VERTEX
  8
MY3DLAYER
10
0.750072452157375
20
0.931400966831659
30
2.03518987716122e-016
 70
     32
  0
VERTEX
  8
MY3DLAYER
10
0.733741458722942
20
0.998140228507908
30
2.37319123828351e-016
 70
     32
  0
VERTEX
  8
MY3DLAYER
10
0.714514883068074
20
1.06410362126657
30
2.68657450548535e-016
 70
     32
  0
VERTEX
  8
MY3DLAYER
10
0.692429324072296
20
1.12916558004042
30
2.97474313590607e-016
 70
     32
  0
VERTEX
  8
MY3DLAYER
10
0.66752682285242
20
1.19320225569306
30
3.23714858417925e-016
 70
     32
  0
VERTEX
  8
MY3DLAYER
10
0.639854782734882
20
1.25609175077276
30
3.47329134661994e-016
 70
     32
  0
VERTEX
  8
MY3DLAYER
10
0.609465879020821
20
1.31771435155124
30
3.68272191205836e-016
 70
     32
  0
VERTEX
  8
MY3DLAYER
10
0.576417958715651
20
1.37795275590551
30
3.86504161750994e-016
 70
     32
  0
VERTEX
  8
MY3DLAYER
10
0.540773930413993
20
1.43669229660917
30
4.01990340705298e-016
 70
     32
  0
VERTEX
  8
MY3DLAYER
10
0.502601644549593
20
1.49382115960795
30
4.14701249246932e-016
 70
     32
  0
VERTEX
  8
MY3DLAYER
10
0.461973764238166
20
1.54923059686413
30
4.24612691439045e-016
 70
     32
  0
VERTEX
  8
MY3DLAYER
10
0.418967626959021
20
1.60281513336463
30
4.31705800288096e-016
 70
     32
  0
VERTEX
  8
MY3DLAYER
10
0.373665097338778
20
1.65447276789868
30
4.35967073658244e-016
 70
     32
  0
VERTEX
  8
MY3DLAYER
10
0.326152411317398
20
1.70410516722291
30
4.37388399973435e-016
 70
     32
  0
VERTEX
  8
MY3DLAYER
10
0.276520011993166
20
1.75161785324429
30
4.35967073658244e-016
 70
     32
  0
VERTEX
  8
MY3DLAYER
10
0.224862377459117
20
1.79692038286453
30
4.31705800288096e-016
 70
     32
  0
VERTEX
  8
MY3DLAYER
10
0.171277840958615
20
1.83992652014368
30
4.24612691439045e-016
 70
     32
  0
VERTEX
  8
MY3DLAYER
10
0.115868403702435
20
1.8805544004551
30
4.14701249246931e-016
 70
     32
  0
VERTEX
  8
MY3DLAYER
10
0.0587395407036602
20
1.9187266863195
30
4.01990340705298e-016
 70
     32
  0
VERTEX
  8
MY3DLAYER
10
4.44089209850063e-016
20
1.95437071462116
30
3.86504161750994e-016
 70
     32
  0
VERTEX
  8
MY3DLAYER
10
-0.0602384043542767
20
1.98741863492633
30
3.68272191205836e-016
 70
     32
  0
VERTEX
  8
MY3DLAYER
10
-0.121861005132756
20
2.01780753864039
30
3.47329134661994e-016
 70
     32
  0
VERTEX
  8
MY3DLAYER
10
-0.184750500212457
20
2.04547957875793
30
3.23714858417925e-016
 70
     32
  0
VERTEX
  8
MY3DLAYER
10
-0.248787175865088
20
2.07038207997781
30
2.97474313590607e-016
 70
     32
  0
VERTEX
  8
MY3DLAYER
10
-0.313849134638939
20
2.09246763897359
30
2.68657450548534e-016
 70
     32
  0
VERTEX
  8
MY3DLAYER
10
-0.379812527397605
20
2.11169421462845
30
2.3731912382835e-016
 70
     32
  0
VERTEX
  8
MY3DLAYER
10
-0.446551789073853
20
2.12802520806289
30
2.03518987716121e-016
 70
     32
  0
VERTEX
  8
MY3DLAYER
10
-0.513939877689873
20
2.14142953230269
30
1.67321382692011e-016
 70
     32
  0
VERTEX
  8
MY3DLAYER
10
-0.581848516188895
20
2.15188167145482
30
1.28795212954521e-016
 70
     32
  0
VERTEX
  8
MY3DLAYER
10
-0.650148436617861
20
2.15936172927834
30
8.80138152574291e-017
 70
     32
  0
VERTEX
  8
MY3DLAYER
10
-0.718709626196321
20
2.16385546705804
30
4.50548193091165e-017
 70
     32
  0
VERTEX
  8
MY3DLAYER
10
-0.787401574803149
20
2.16535433070866
30
0.0
 70
     32
  0
VERTEX
  8
MY3DLAYER
10
-0.78740157480315
20
2.95275590551181
30
0.0
 70
     32
  0
VERTEX
  8
MY3DLAYER
10
2.36220472440945
20
2.95275590551181
30
0.0
 70
     32
  0
VERTEX
  8
MY3DLAYER
10
2.36220472440945
20
2.16535433070866
30
0.0
 70
     32
  0
VERTEX
  8
MY3DLAYER
10
1.5748031496063
20
2.16535433070866
30
0.0
 70
     32
  0
VERTEX
  8
MY3DLAYER
10
1.5748031496063
20
-0.196850393700787
30
0.0
 70
     32
  0
VERTEX
  8
MY3DLAYER
10
0.78740157480315
20
-0.196850393700787
30
0.0
 70
     32
  0
SEQEND
  0
POLYLINE
 8
Layer0
 66
     1
70
    8
 10
0.0
 20
 0.0
 30
0.0
  0
VERTEX
  8
MY3DLAYER
10
1.27952755905512
20
0.196850393700788
30
0.0
 70
     32
  0
VERTEX
  8
MY3DLAYER
10
1.27931682315341
20
0.203287709569896
30
0.0
 70
     32
  0
VERTEX
  8
MY3DLAYER
10
1.27868551785175
20
0.209697459864178
30
0.0
 70
     32
  0
VERTEX
  8
MY3DLAYER
10
1.27763634649638
20
0.216052197048832
30
0.0
 70
     32
  0
VERTEX
  8
MY3DLAYER
10
1.27617380180011
20
0.222324709163634
30
0.0
 70
     32
  0
VERTEX
  8
MY3DLAYER
10
1.27430414660385
20
0.228488136348737
30
0.0
 70
     32
  0
VERTEX
  8
MY3DLAYER
10
1.2720353870582
20
0.234516085862706
30
0.0
 70
     32
  0
VERTEX
  8
MY3DLAYER
10
1.26937723833983
20
0.240382745100296
30
0.0
 70
     32
  0
VERTEX
  8
MY3DLAYER
10
1.26634108304965
20
0.246062992125984
30
0.0
 70
     32
  0
VERTEX
  8
MY3DLAYER
10
1.26293992247072
20
0.251532503249961
30
0.0
 70
     32
  0
VERTEX
  8
MY3DLAYER
10
1.25918832089481
20
0.256767857185898
30
0.0
 70
     32
  0
VERTEX
  8
MY3DLAYER
10
1.25510234325581
20
0.261746635344495
30
0.0
 70
     32
  0
VERTEX
  8
MY3DLAYER
10
1.25069948633726
20
0.266447517833322
30
0.0
 70
     32
  0
VERTEX
  8
MY3DLAYER
10
1.24599860384843
20
0.270850374751868
30
0.0
 70
     32
  0
VERTEX
  8
MY3DLAYER
10
1.24101982568983
20
0.27493635239087
30
0.0
 70
     32
  0
VERTEX
  8
MY3DLAYER
10
1.2357844717539
20
0.278687953966786
30
0.0
 70
     32
  0
VERTEX
  8
MY3DLAYER
10
1.23031496062992
20
0.282089114545713
30
0.0
 70
     32
  0
VERTEX
  8
MY3DLAYER
10
1.22463471360423
20
0.285125269835895
30
0.0
 70
     32
  0
VERTEX
  8
MY3DLAYER
10
1.21876805436664
20
0.287783418554261
30
0.0
 70
     32
  0
VERTEX
  8
MY3DLAYER
10
1.21274010485267
20
0.290052178099912
30
0.0
 70
     32
  0
VERTEX
  8
MY3DLAYER
10
1.20657667766757
20
0.291921833296168
30
0.0
 70
     32
  0
VERTEX
  8
MY3DLAYER
10
1.20030416555277
20
0.293384377992444
30
0.0
 70
     32
  0
VERTEX
  8
MY3DLAYER
10
1.19394942836812
20
0.294433549347816
30
0.0
 70
     32
  0
VERTEX
  8
MY3DLAYER
10
1.18753967807383
20
0.295064854649469
30
0.0
 70
     32
  0
VERTEX
  8
MY3DLAYER
10
1.18110236220472
20
0.295275590551181
30
0.0
 70
     32
  0
VERTEX
  8
MY3DLAYER
10
1.17466504633562
20
0.295064854649469
30
0.0
 70
     32
  0
VERTEX
  8
MY3DLAYER
10
1.16825529604133
20
0.294433549347816
30
0.0
 70
     32
  0
VERTEX
  8
MY3DLAYER
10
1.16190055885668
20
0.293384377992444
30
0.0
 70
     32
  0
VERTEX
  8
MY3DLAYER
10
1.15562804674188
20
0.291921833296168
30
0.0
 70
     32
  0
VERTEX
  8
MY3DLAYER
10
1.14946461955678
20
0.290052178099912
30
0.0
 70
     32
  0
VERTEX
  8
MY3DLAYER
10
1.14343667004281
20
0.287783418554261
30
0.0
 70
     32
  0
VERTEX
  8
MY3DLAYER
10
1.13757001080522
20
0.285125269835895
30
0.0
 70
     32
  0
VERTEX
  8
MY3DLAYER
10
1.13188976377953
20
0.282089114545713
30
0.0
 70
     32
  0
VERTEX
  8
MY3DLAYER
10
1.12642025265555
20
0.278687953966786
30
0.0
 70
     32
  0
VERTEX
  8
MY3DLAYER
10
1.12118489871961
20
0.27493635239087
30
0.0
 70
     32
  0
VERTEX
  8
MY3DLAYER
10
1.11620612056102
20
0.270850374751868
30
0.0
 70
     32
  0
VERTEX
  8
MY3DLAYER
10
1.11150523807219
20
0.266447517833322
30
0.0
 70
     32
  0
VERTEX
  8
MY3DLAYER
10
1.10710238115364
20
0.261746635344495
30
0.0
 70
     32
  0
VERTEX
  8
MY3DLAYER
10
1.10301640351464
20
0.256767857185898
30
0.0
 70
     32
  0
VERTEX
  8
MY3DLAYER
10
1.09926480193873
20
0.251532503249961
30
0.0
 70
     32
  0
VERTEX
  8
MY3DLAYER
10
1.0958636413598
20
0.246062992125985
30
0.0
 70
     32
  0
VERTEX
  8
MY3DLAYER
10
1.09282748606962
20
0.240382745100296
30
0.0
 70
     32
  0
VERTEX
  8
MY3DLAYER
10
1.09016933735125
20
0.234516085862706
30
0.0
 70
     32
  0
VERTEX
  8
MY3DLAYER
10
1.0879005778056
20
0.228488136348737
30
0.0
 70
     32
  0
VERTEX
  8
MY3DLAYER
10
1.08603092260934
20
0.222324709163634
30
0.0
 70
     32
  0
VERTEX
  8
MY3DLAYER
10
1.08456837791307
20
0.216052197048832
30
0.0
 70
     32
  0
VERTEX
  8
MY3DLAYER
10
1.0835192065577
20
0.209697459864179
30
0.0
 70
     32
  0
VERTEX
  8
MY3DLAYER
10
1.08288790125604
20
0.203287709569896
30
0.0
 70
     32
  0
VERTEX
  8
MY3DLAYER
10
1.08267716535433
20
0.196850393700788
30
0.0
 70
     32
  0
VERTEX
  8
MY3DLAYER
10
1.08288790125604
20
0.190413077831679
30
0.0
 70
     32
  0
VERTEX
  8
MY3DLAYER
10
1.0835192065577
20
0.184003327537397
30
0.0
 70
     32
  0
VERTEX
  8
MY3DLAYER
10
1.08456837791307
20
0.177648590352744
30
0.0
 70
     32
  0
VERTEX
  8
MY3DLAYER
10
1.08603092260934
20
0.171376078237941
30
0.0
 70
     32
  0
VERTEX
  8
MY3DLAYER
10
1.0879005778056
20
0.165212651052839
30
0.0
 70
     32
  0
VERTEX
  8
MY3DLAYER
10
1.09016933735125
20
0.159184701538869
30
0.0
 70
     32
  0
VERTEX
  8
MY3DLAYER
10
1.09282748606962
20
0.15331804230128
30
0.0
 70
     32
  0
VERTEX
  8
MY3DLAYER
10
1.0958636413598
20
0.147637795275591
30
0.0
 70
     32
  0
VERTEX
  8
MY3DLAYER
10
1.09926480193873
20
0.142168284151614
30
0.0
 70
     32
  0
VERTEX
  8
MY3DLAYER
10
1.10301640351464
20
0.136932930215677
30
0.0
 70
     32
  0
VERTEX
  8
MY3DLAYER
10
1.10710238115364
20
0.13195415205708
30
0.0
 70
     32
  0
VERTEX
  8
MY3DLAYER
10
1.11150523807219
20
0.127253269568254
30
0.0
 70
     32
  0
VERTEX
  8
MY3DLAYER
10
1.11620612056102
20
0.122850412649707
30
0.0
 70
     32
  0
VERTEX
  8
MY3DLAYER
10
1.12118489871961
20
0.118764435010705
30
0.0
 70
     32
  0
VERTEX
  8
MY3DLAYER
10
1.12642025265555
20
0.115012833434789
30
0.0
 70
     32
  0
VERTEX
  8
MY3DLAYER
10
1.13188976377953
20
0.111611672855863
30
0.0
 70
     32
  0
VERTEX
  8
MY3DLAYER
10
1.13757001080522
20
0.10857551756568
30
0.0
 70
     32
  0
VERTEX
  8
MY3DLAYER
10
1.14343667004281
20
0.105917368847314
30
0.0
 70
     32
  0
VERTEX
  8
MY3DLAYER
10
1.14946461955678
20
0.103648609301663
30
0.0
 70
     32
  0
VERTEX
  8
MY3DLAYER
10
1.15562804674188
20
0.101778954105407
30
0.0
 70
     32
  0
VERTEX
  8
MY3DLAYER
10
1.16190055885668
20
0.100316409409131
30
0.0
 70
     32
  0
VERTEX
  8
MY3DLAYER
10
1.16825529604133
20
0.0992672380537589
30
0.0
 70
     32
  0
VERTEX
  8
MY3DLAYER
10
1.17466504633562
20
0.0986359327521061
30
0.0
 70
     32
  0
VERTEX
  8
MY3DLAYER
10
1.18110236220472
20
0.0984251968503938
30
0.0
 70
     32
  0
VERTEX
  8
MY3DLAYER
10
1.18753967807383
20
0.0986359327521061
30
0.0
 70
     32
  0
VERTEX
  8
MY3DLAYER
10
1.19394942836812
20
0.0992672380537589
30
0.0
 70
     32
  0
VERTEX
  8
MY3DLAYER
10
1.20030416555277
20
0.100316409409131
30
0.0
 70
     32
  0
VERTEX
  8
MY3DLAYER
10
1.20657667766757
20
0.101778954105407
30
0.0
 70
     32
  0
VERTEX
  8
MY3DLAYER
10
1.21274010485267
20
0.103648609301663
30
0.0
 70
     32
  0
VERTEX
  8
MY3DLAYER
10
1.21876805436664
20
0.105917368847315
30
0.0
 70
     32
  0
VERTEX
  8
MY3DLAYER
10
1.22463471360423
20
0.108575517565681
30
0.0
 70
     32
  0
VERTEX
  8
MY3DLAYER
10
1.23031496062992
20
0.111611672855863
30
0.0
 70
     32
  0
VERTEX
  8
MY3DLAYER
10
1.2357844717539
20
0.115012833434789
30
0.0
 70
     32
  0
VERTEX
  8
MY3DLAYER
10
1.24101982568984
20
0.118764435010706
30
0.0
 70
     32
  0
VERTEX
  8
MY3DLAYER
10
1.24599860384843
20
0.122850412649707
30
0.0
 70
     32
  0
VERTEX
  8
MY3DLAYER
10
1.25069948633726
20
0.127253269568254
30
0.0
 70
     32
  0
VERTEX
  8
MY3DLAYER
10
1.25510234325581
20
0.13195415205708
30
0.0
 70
     32
  0
VERTEX
  8
MY3DLAYER
10
1.25918832089481
20
0.136932930215678
30
0.0
 70
     32
  0
VERTEX
  8
MY3DLAYER
10
1.26293992247072
20
0.142168284151615
30
0.0
 70
     32
  0
VERTEX
  8
MY3DLAYER
10
1.26634108304965
20
0.147637795275591
30
0.0
 70
     32
  0
VERTEX
  8
MY3DLAYER
10
1.26937723833983
20
0.15331804230128
30
0.0
 70
     32
  0
VERTEX
  8
MY3DLAYER
10
1.2720353870582
20
0.15918470153887
30
0.0
 70
     32
  0
VERTEX
  8
MY3DLAYER
10
1.27430414660385
20
0.165212651052839
30
0.0
 70
     32
  0
VERTEX
  8
MY3DLAYER
10
1.27617380180011
20
0.171376078237942
30
0.0
 70
     32
  0
VERTEX
  8
MY3DLAYER
10
1.27763634649638
20
0.177648590352744
30
0.0
 70
     32
  0
VERTEX
  8
MY3DLAYER
10
1.27868551785175
20
0.184003327537398
30
0.0
 70
     32
  0
VERTEX
  8
MY3DLAYER
10
1.27931682315341
20
0.19041307783168
30
0.0
 70
     32
  0
VERTEX
  8
MY3DLAYER
10
1.27952755905512
20
0.196850393700788
30
0.0
 70
     32
  0
SEQEND
  0
POLYLINE
 8
Layer0
 66
     1
70
    8
 10
0.0
 20
 0.0
 30
0.0
  0
VERTEX
  8
MY3DLAYER
10
1.27952755905512
20
0.984251968503937
30
0.0
 70
     32
  0
VERTEX
  8
MY3DLAYER
10
1.27931682315341
20
0.990689284373046
30
0.0
 70
     32
  0
VERTEX
  8
MY3DLAYER
10
1.27868551785175
20
0.997099034667328
30
0.0
 70
     32
  0
VERTEX
  8
MY3DLAYER
10
1.27763634649638
20
1.00345377185198
30
0.0
 70
     32
  0
VERTEX
  8
MY3DLAYER
10
1.27617380180011
20
1.00972628396678
30
0.0
 70
     32
  0
VERTEX
  8
MY3DLAYER
10
1.27430414660385
20
1.01588971115189
30
0.0
 70
     32
  0
VERTEX
  8
MY3DLAYER
10
1.2720353870582
20
1.02191766066586
30
0.0
 70
     32
  0
VERTEX
  8
MY3DLAYER
10
1.26937723833983
20
1.02778431990345
30
0.0
 70
     32
  0
VERTEX
  8
MY3DLAYER
10
1.26634108304965
20
1.03346456692913
30
0.0
 70
     32
  0
VERTEX
  8
MY3DLAYER
10
1.26293992247072
20
1.03893407805311
30
0.0
 70
     32
  0
VERTEX
  8
MY3DLAYER
10
1.25918832089481
20
1.04416943198905
30
0.0
 70
     32
  0
VERTEX
  8
MY3DLAYER
10
1.25510234325581
20
1.04914821014764
30
0.0
 70
     32
  0
VERTEX
  8
MY3DLAYER
10
1.25069948633726
20
1.05384909263647
30
0.0
 70
     32
  0
VERTEX
  8
MY3DLAYER
10
1.24599860384843
20
1.05825194955502
30
0.0
 70
     32
  0
VERTEX
  8
MY3DLAYER
10
1.24101982568983
20
1.06233792719402
30
0.0
 70
     32
  0
VERTEX
  8
MY3DLAYER
10
1.2357844717539
20
1.06608952876994
30
0.0
 70
     32
  0
VERTEX
  8
MY3DLAYER
10
1.23031496062992
20
1.06949068934886
30
0.0
 70
     32
  0
VERTEX
  8
MY3DLAYER
10
1.22463471360423
20
1.07252684463904
30
0.0
 70
     32
  0
VERTEX
  8
MY3DLAYER
10
1.21876805436664
20
1.07518499335741
30
0.0
 70
     32
  0
VERTEX
  8
MY3DLAYER
10
1.21274010485267
20
1.07745375290306
30
0.0
 70
     32
  0
VERTEX
  8
MY3DLAYER
10
1.20657667766757
20
1.07932340809932
30
0.0
 70
     32
  0
VERTEX
  8
MY3DLAYER
10
1.20030416555277
20
1.08078595279559
30
0.0
 70
     32
  0
VERTEX
  8
MY3DLAYER
10
1.19394942836812
20
1.08183512415097
30
0.0
 70
     32
  0
VERTEX
  8
MY3DLAYER
10
1.18753967807383
20
1.08246642945262
30
0.0
 70
     32
  0
VERTEX
  8
MY3DLAYER
10
1.18110236220472
20
1.08267716535433
30
0.0
 70
     32
  0
VERTEX
  8
MY3DLAYER
10
1.17466504633562
20
1.08246642945262
30
0.0
 70
     32
  0
VERTEX
  8
MY3DLAYER
10
1.16825529604133
20
1.08183512415097
30
0.0
 70
     32
  0
VERTEX
  8
MY3DLAYER
10
1.16190055885668
20
1.08078595279559
30
0.0
 70
     32
  0
VERTEX
  8
MY3DLAYER
10
1.15562804674188
20
1.07932340809932
30
0.0
 70
     32
  0
VERTEX
  8
MY3DLAYER
10
1.14946461955678
20
1.07745375290306
30
0.0
 70
     32
  0
VERTEX
  8
MY3DLAYER
10
1.14343667004281
20
1.07518499335741
30
0.0
 70
     32
  0
VERTEX
  8
MY3DLAYER
10
1.13757001080522
20
1.07252684463904
30
0.0
 70
     32
  0
VERTEX
  8
MY3DLAYER
10
1.13188976377953
20
1.06949068934886
30
0.0
 70
     32
  0
VERTEX
  8
MY3DLAYER
10
1.12642025265555
20
1.06608952876994
30
0.0
 70
     32
  0
VERTEX
  8
MY3DLAYER
10
1.12118489871961
20
1.06233792719402
30
0.0
 70
     32
  0
VERTEX
  8
MY3DLAYER
10
1.11620612056102
20
1.05825194955502
30
0.0
 70
     32
  0
VERTEX
  8
MY3DLAYER
10
1.11150523807219
20
1.05384909263647
30
0.0
 70
     32
  0
VERTEX
  8
MY3DLAYER
10
1.10710238115364
20
1.04914821014765
30
0.0
 70
     32
  0
VERTEX
  8
MY3DLAYER
10
1.10301640351464
20
1.04416943198905
30
0.0
 70
     32
  0
VERTEX
  8
MY3DLAYER
10
1.09926480193873
20
1.03893407805311
30
0.0
 70
     32
  0
VERTEX
  8
MY3DLAYER
10
1.0958636413598
20
1.03346456692913
30
0.0
 70
     32
  0
VERTEX
  8
MY3DLAYER
10
1.09282748606962
20
1.02778431990345
30
0.0
 70
     32
  0
VERTEX
  8
MY3DLAYER
10
1.09016933735125
20
1.02191766066586
30
0.0
 70
     32
  0
VERTEX
  8
MY3DLAYER
10
1.0879005778056
20
1.01588971115189
30
0.0
 70
     32
  0
VERTEX
  8
MY3DLAYER
10
1.08603092260934
20
1.00972628396678
30
0.0
 70
     32
  0
VERTEX
  8
MY3DLAYER
10
1.08456837791307
20
1.00345377185198
30
0.0
 70
     32
  0
VERTEX
  8
MY3DLAYER
10
1.0835192065577
20
0.997099034667328
30
0.0
 70
     32
  0
VERTEX
  8
MY3DLAYER
10
1.08288790125604
20
0.990689284373046
30
0.0
 70
     32
  0
VERTEX
  8
MY3DLAYER
10
1.08267716535433
20
0.984251968503937
30
0.0
 70
     32
  0
VERTEX
  8
MY3DLAYER
10
1.08288790125604
20
0.977814652634829
30
0.0
 70
     32
  0
VERTEX
  8
MY3DLAYER
10
1.0835192065577
20
0.971404902340547
30
0.0
 70
     32
  0
VERTEX
  8
MY3DLAYER
10
1.08456837791307
20
0.965050165155893
30
0.0
 70
     32
  0
VERTEX
  8
MY3DLAYER
10
1.08603092260934
20
0.958777653041091
30
0.0
 70
     32
  0
VERTEX
  8
MY3DLAYER
10
1.0879005778056
20
0.952614225855989
30
0.0
 70
     32
  0
VERTEX
  8
MY3DLAYER
10
1.09016933735125
20
0.946586276342019
30
0.0
 70
     32
  0
VERTEX
  8
MY3DLAYER
10
1.09282748606962
20
0.94071961710443
30
0.0
 70
     32
  0
VERTEX
  8
MY3DLAYER
10
1.0958636413598
20
0.935039370078741
30
0.0
 70
     32
  0
VERTEX
  8
MY3DLAYER
10
1.09926480193873
20
0.929569858954764
30
0.0
 70
     32
  0
VERTEX
  8
MY3DLAYER
10
1.10301640351464
20
0.924334505018827
30
0.0
 70
     32
  0
VERTEX
  8
MY3DLAYER
10
1.10710238115364
20
0.91935572686023
30
0.0
 70
     32
  0
VERTEX
  8
MY3DLAYER
10
1.11150523807219
20
0.914654844371403
30
0.0
 70
     32
  0
VERTEX
  8
MY3DLAYER
10
1.11620612056102
20
0.910251987452857
30
0.0
 70
     32
  0
VERTEX
  8
MY3DLAYER
10
1.12118489871961
20
0.906166009813855
30
0.0
 70
     32
  0
VERTEX
  8
MY3DLAYER
10
1.12642025265555
20
0.902414408237939
30
0.0
 70
     32
  0
VERTEX
  8
MY3DLAYER
10
1.13188976377953
20
0.899013247659012
30
0.0
 70
     32
  0
VERTEX
  8
MY3DLAYER
10
1.13757001080522
20
0.89597709236883
30
0.0
 70
     32
  0
VERTEX
  8
MY3DLAYER
10
1.14343667004281
20
0.893318943650464
30
0.0
 70
     32
  0
VERTEX
  8
MY3DLAYER
10
1.14946461955678
20
0.891050184104813
30
0.0
 70
     32
  0
VERTEX
  8
MY3DLAYER
10
1.15562804674188
20
0.889180528908556
30
0.0
 70
     32
  0
VERTEX
  8
MY3DLAYER
10
1.16190055885668
20
0.887717984212281
30
0.0
 70
     32
  0
VERTEX
  8
MY3DLAYER
10
1.16825529604133
20
0.886668812856909
30
0.0
 70
     32
  0
VERTEX
  8
MY3DLAYER
10
1.17466504633562
20
0.886037507555256
30
0.0
 70
     32
  0
VERTEX
  8
MY3DLAYER
10
1.18110236220472
20
0.885826771653544
30
0.0
 70
     32
  0
VERTEX
  8
MY3DLAYER
10
1.18753967807383
20
0.886037507555256
30
0.0
 70
     32
  0
VERTEX
  8
MY3DLAYER
10
1.19394942836812
20
0.886668812856909
30
0.0
 70
     32
  0
VERTEX
  8
MY3DLAYER
10
1.20030416555277
20
0.887717984212281
30
0.0
 70
     32
  0
VERTEX
  8
MY3DLAYER
10
1.20657667766757
20
0.889180528908557
30
0.0
 70
     32
  0
VERTEX
  8
MY3DLAYER
10
1.21274010485267
20
0.891050184104813
30
0.0
 70
     32
  0
VERTEX
  8
MY3DLAYER
10
1.21876805436664
20
0.893318943650464
30
0.0
 70
     32
  0
VERTEX
  8
MY3DLAYER
10
1.22463471360423
20
0.89597709236883
30
0.0
 70
     32
  0
VERTEX
  8
MY3DLAYER
10
1.23031496062992
20
0.899013247659012
30
0.0
 70
     32
  0
VERTEX
  8
MY3DLAYER
10
1.2357844717539
20
0.902414408237939
30
0.0
 70
     32
  0
VERTEX
  8
MY3DLAYER
10
1.24101982568984
20
0.906166009813855
30
0.0
 70
     32
  0
VERTEX
  8
MY3DLAYER
10
1.24599860384843
20
0.910251987452857
30
0.0
 70
     32
  0
VERTEX
  8
MY3DLAYER
10
1.25069948633726
20
0.914654844371403
30
0.0
 70
     32
  0
VERTEX
  8
MY3DLAYER
10
1.25510234325581
20
0.91935572686023
30
0.0
 70
     32
  0
VERTEX
  8
MY3DLAYER
10
1.25918832089481
20
0.924334505018827
30
0.0
 70
     32
  0
VERTEX
  8
MY3DLAYER
10
1.26293992247072
20
0.929569858954764
30
0.0
 70
     32
  0
VERTEX
  8
MY3DLAYER
10
1.26634108304965
20
0.935039370078741
30
0.0
 70
     32
  0
VERTEX
  8
MY3DLAYER
10
1.26937723833983
20
0.94071961710443
30
0.0
 70
     32
  0
VERTEX
  8
MY3DLAYER
10
1.2720353870582
20
0.94658627634202
30
0.0
 70
     32
  0
VERTEX
  8
MY3DLAYER
10
1.27430414660385
20
0.952614225855989
30
0.0
 70
     32
  0
VERTEX
  8
MY3DLAYER
10
1.27617380180011
20
0.958777653041092
30
0.0
 70
     32
  0
VERTEX
  8
MY3DLAYER
10
1.27763634649638
20
0.965050165155894
30
0.0
 70
     32
  0
VERTEX
  8
MY3DLAYER
10
1.27868551785175
20
0.971404902340547
30
0.0
 70
     32
  0
VERTEX
  8
MY3DLAYER
10
1.27931682315341
20
0.97781465263483
30
0.0
 70
     32
  0
VERTEX
  8
MY3DLAYER
10
1.27952755905512
20
0.984251968503937
30
0.0
 70
     32
  0
SEQEND
  0
POLYLINE
 8
Layer0
 66
     1
70
    8
 10
0.0
 20
 0.0
 30
0.0
  0
VERTEX
  8
MY3DLAYER
10
1.27952755905512
20
1.77165354330709
30
0.0
 70
     32
  0
VERTEX
  8
MY3DLAYER
10
1.27931682315341
20
1.7780908591762
30
0.0
 70
     32
  0
VERTEX
  8
MY3DLAYER
10
1.27868551785175
20
1.78450060947048
30
0.0
 70
     32
  0
VERTEX
  8
MY3DLAYER
10
1.27763634649638
20
1.79085534665513
30
0.0
 70
     32
  0
VERTEX
  8
MY3DLAYER
10
1.27617380180011
20
1.79712785876993
30
0.0
 70
     32
  0
VERTEX
  8
MY3DLAYER
10
1.27430414660385
20
1.80329128595504
30
0.0
 70
     32
  0
VERTEX
  8
MY3DLAYER
10
1.2720353870582
20
1.80931923546901
30
0.0
 70
     32
  0
VERTEX
  8
MY3DLAYER
10
1.26937723833983
20
1.8151858947066
30
0.0
 70
     32
  0
VERTEX
  8
MY3DLAYER
10
1.26634108304965
20
1.82086614173228
30
0.0
 70
     32
  0
VERTEX
  8
MY3DLAYER
10
1.26293992247072
20
1.82633565285626
30
0.0
 70
     32
  0
VERTEX
  8
MY3DLAYER
10
1.25918832089481
20
1.8315710067922
30
0.0
 70
     32
  0
VERTEX
  8
MY3DLAYER
10
1.25510234325581
20
1.83654978495079
30
0.0
 70
     32
  0
VERTEX
  8
MY3DLAYER
10
1.25069948633726
20
1.84125066743962
30
0.0
 70
     32
  0
VERTEX
  8
MY3DLAYER
10
1.24599860384843
20
1.84565352435817
30
0.0
 70
     32
  0
VERTEX
  8
MY3DLAYER
10
1.24101982568983
20
1.84973950199717
30
0.0
 70
     32
  0
VERTEX
  8
MY3DLAYER
10
1.2357844717539
20
1.85349110357309
30
0.0
 70
     32
  0
VERTEX
  8
MY3DLAYER
10
1.23031496062992
20
1.85689226415201
30
0.0
 70
     32
  0
VERTEX
  8
MY3DLAYER
10
1.22463471360423
20
1.85992841944219
30
0.0
 70
     32
  0
VERTEX
  8
MY3DLAYER
10
1.21876805436664
20
1.86258656816056
30
0.0
 70
     32
  0
VERTEX
  8
MY3DLAYER
10
1.21274010485267
20
1.86485532770621
30
0.0
 70
     32
  0
VERTEX
  8
MY3DLAYER
10
1.20657667766757
20
1.86672498290247
30
0.0
 70
     32
  0
VERTEX
  8
MY3DLAYER
10
1.20030416555277
20
1.86818752759874
30
0.0
 70
     32
  0
VERTEX
  8
MY3DLAYER
10
1.19394942836812
20
1.86923669895412
30
0.0
 70
     32
  0
VERTEX
  8
MY3DLAYER
10
1.18753967807383
20
1.86986800425577
30
0.0
 70
     32
  0
VERTEX
  8
MY3DLAYER
10
1.18110236220472
20
1.87007874015748
30
0.0
 70
     32
  0
VERTEX
  8
MY3DLAYER
10
1.17466504633562
20
1.86986800425577
30
0.0
 70
     32
  0
VERTEX
  8
MY3DLAYER
10
1.16825529604133
20
1.86923669895412
30
0.0
 70
     32
  0
VERTEX
  8
MY3DLAYER
10
1.16190055885668
20
1.86818752759874
30
0.0
 70
     32
  0
VERTEX
  8
MY3DLAYER
10
1.15562804674188
20
1.86672498290247
30
0.0
 70
     32
  0
VERTEX
  8
MY3DLAYER
10
1.14946461955678
20
1.86485532770621
30
0.0
 70
     32
  0
VERTEX
  8
MY3DLAYER
10
1.14343667004281
20
1.86258656816056
30
0.0
 70
     32
  0
VERTEX
  8
MY3DLAYER
10
1.13757001080522
20
1.85992841944219
30
0.0
 70
     32
  0
VERTEX
  8
MY3DLAYER
10
1.13188976377953
20
1.85689226415201
30
0.0
 70
     32
  0
VERTEX
  8
MY3DLAYER
10
1.12642025265555
20
1.85349110357309
30
0.0
 70
     32
  0
VERTEX
  8
MY3DLAYER
10
1.12118489871961
20
1.84973950199717
30
0.0
 70
     32
  0
VERTEX
  8
MY3DLAYER
10
1.11620612056102
20
1.84565352435817
30
0.0
 70
     32
  0
VERTEX
  8
MY3DLAYER
10
1.11150523807219
20
1.84125066743962
30
0.0
 70
     32
  0
VERTEX
  8
MY3DLAYER
10
1.10710238115364
20
1.83654978495079
30
0.0
 70
     32
  0
VERTEX
  8
MY3DLAYER
10
1.10301640351464
20
1.8315710067922
30
0.0
 70
     32
  0
VERTEX
  8
MY3DLAYER
10
1.09926480193873
20
1.82633565285626
30
0.0
 70
     32
  0
VERTEX
  8
MY3DLAYER
10
1.0958636413598
20
1.82086614173228
30
0.0
 70
     32
  0
VERTEX
  8
MY3DLAYER
10
1.09282748606962
20
1.8151858947066
30
0.0
 70
     32
  0
VERTEX
  8
MY3DLAYER
10
1.09016933735125
20
1.80931923546901
30
0.0
 70
     32
  0
VERTEX
  8
MY3DLAYER
10
1.0879005778056
20
1.80329128595504
30
0.0
 70
     32
  0
VERTEX
  8
MY3DLAYER
10
1.08603092260934
20
1.79712785876993
30
0.0
 70
     32
  0
VERTEX
  8
MY3DLAYER
10
1.08456837791307
20
1.79085534665513
30
0.0
 70
     32
  0
VERTEX
  8
MY3DLAYER
10
1.0835192065577
20
1.78450060947048
30
0.0
 70
     32
  0
VERTEX
  8
MY3DLAYER
10
1.08288790125604
20
1.7780908591762
30
0.0
 70
     32
  0
VERTEX
  8
MY3DLAYER
10
1.08267716535433
20
1.77165354330709
30
0.0
 70
     32
  0
VERTEX
  8
MY3DLAYER
10
1.08288790125604
20
1.76521622743798
30
0.0
 70
     32
  0
VERTEX
  8
MY3DLAYER
10
1.0835192065577
20
1.7588064771437
30
0.0
 70
     32
  0
VERTEX
  8
MY3DLAYER
10
1.08456837791307
20
1.75245173995904
30
0.0
 70
     32
  0
VERTEX
  8
MY3DLAYER
10
1.08603092260934
20
1.74617922784424
30
0.0
 70
     32
  0
VERTEX
  8
MY3DLAYER
10
1.0879005778056
20
1.74001580065914
30
0.0
 70
     32
  0
VERTEX
  8
MY3DLAYER
10
1.09016933735125
20
1.73398785114517
30
0.0
 70
     32
  0
VERTEX
  8
MY3DLAYER
10
1.09282748606962
20
1.72812119190758
30
0.0
 70
     32
  0
VERTEX
  8
MY3DLAYER
10
1.0958636413598
20
1.72244094488189
30
0.0
 70
     32
  0
VERTEX
  8
MY3DLAYER
10
1.09926480193873
20
1.71697143375791
30
0.0
 70
     32
  0
VERTEX
  8
MY3DLAYER
10
1.10301640351464
20
1.71173607982198
30
0.0
 70
     32
  0
VERTEX
  8
MY3DLAYER
10
1.10710238115364
20
1.70675730166338
30
0.0
 70
     32
  0
VERTEX
  8
MY3DLAYER
10
1.11150523807219
20
1.70205641917455
30
0.0
 70
     32
  0
VERTEX
  8
MY3DLAYER
10
1.11620612056102
20
1.69765356225601
30
0.0
 70
     32
  0
VERTEX
  8
MY3DLAYER
10
1.12118489871961
20
1.693567584617
30
0.0
 70
     32
  0
VERTEX
  8
MY3DLAYER
10
1.12642025265555
20
1.68981598304109
30
0.0
 70
     32
  0
VERTEX
  8
MY3DLAYER
10
1.13188976377953
20
1.68641482246216
30
0.0
 70
     32
  0
VERTEX
  8
MY3DLAYER
10
1.13757001080522
20
1.68337866717198
30
0.0
 70
     32
  0
VERTEX
  8
MY3DLAYER
10
1.14343667004281
20
1.68072051845361
30
0.0
 70
     32
  0
VERTEX
  8
MY3DLAYER
10
1.14946461955678
20
1.67845175890796
30
0.0
 70
     32
  0
VERTEX
  8
MY3DLAYER
10
1.15562804674188
20
1.67658210371171
30
0.0
 70
     32
  0
VERTEX
  8
MY3DLAYER
10
1.16190055885668
20
1.67511955901543
30
0.0
 70
     32
  0
VERTEX
  8
MY3DLAYER
10
1.16825529604133
20
1.67407038766006
30
0.0
 70
     32
  0
VERTEX
  8
MY3DLAYER
10
1.17466504633562
20
1.67343908235841
30
0.0
 70
     32
  0
VERTEX
  8
MY3DLAYER
10
1.18110236220472
20
1.67322834645669
30
0.0
 70
     32
  0
VERTEX
  8
MY3DLAYER
10
1.18753967807383
20
1.67343908235841
30
0.0
 70
     32
  0
VERTEX
  8
MY3DLAYER
10
1.19394942836812
20
1.67407038766006
30
0.0
 70
     32
  0
VERTEX
  8
MY3DLAYER
10
1.20030416555277
20
1.67511955901543
30
0.0
 70
     32
  0
VERTEX
  8
MY3DLAYER
10
1.20657667766757
20
1.67658210371171
30
0.0
 70
     32
  0
VERTEX
  8
MY3DLAYER
10
1.21274010485267
20
1.67845175890796
30
0.0
 70
     32
  0
VERTEX
  8
MY3DLAYER
10
1.21876805436664
20
1.68072051845361
30
0.0
 70
     32
  0
VERTEX
  8
MY3DLAYER
10
1.22463471360423
20
1.68337866717198
30
0.0
 70
     32
  0
VERTEX
  8
MY3DLAYER
10
1.23031496062992
20
1.68641482246216
30
0.0
 70
     32
  0
VERTEX
  8
MY3DLAYER
10
1.2357844717539
20
1.68981598304109
30
0.0
 70
     32
  0
VERTEX
  8
MY3DLAYER
10
1.24101982568984
20
1.69356758461701
30
0.0
 70
     32
  0
VERTEX
  8
MY3DLAYER
10
1.24599860384843
20
1.69765356225601
30
0.0
 70
     32
  0
VERTEX
  8
MY3DLAYER
10
1.25069948633726
20
1.70205641917455
30
0.0
 70
     32
  0
VERTEX
  8
MY3DLAYER
10
1.25510234325581
20
1.70675730166338
30
0.0
 70
     32
  0
VERTEX
  8
MY3DLAYER
10
1.25918832089481
20
1.71173607982198
30
0.0
 70
     32
  0
VERTEX
  8
MY3DLAYER
10
1.26293992247072
20
1.71697143375791
30
0.0
 70
     32
  0
VERTEX
  8
MY3DLAYER
10
1.26634108304965
20
1.72244094488189
30
0.0
 70
     32
  0
VERTEX
  8
MY3DLAYER
10
1.26937723833983
20
1.72812119190758
30
0.0
 70
     32
  0
VERTEX
  8
MY3DLAYER
10
1.2720353870582
20
1.73398785114517
30
0.0
 70
     32
  0
VERTEX
  8
MY3DLAYER
10
1.27430414660385
20
1.74001580065914
30
0.0
 70
     32
  0
VERTEX
  8
MY3DLAYER
10
1.27617380180011
20
1.74617922784424
30
0.0
 70
     32
  0
VERTEX
  8
MY3DLAYER
10
1.27763634649638
20
1.75245173995904
30
0.0
 70
     32
  0
VERTEX
  8
MY3DLAYER
10
1.27868551785175
20
1.7588064771437
30
0.0
 70
     32
  0
VERTEX
  8
MY3DLAYER
10
1.27931682315341
20
1.76521622743798
30
0.0
 70
     32
  0
VERTEX
  8
MY3DLAYER
10
1.27952755905512
20
1.77165354330709
30
0.0
 70
     32
  0
SEQEND
  0
POLYLINE
 8
Layer0
 66
     1
70
    8
 10
0.0
 20
 0.0
 30
0.0
  0
VERTEX
  8
MY3DLAYER
10
1.27952755905512
20
2.55905511811024
30
0.0
 70
     32
  0
VERTEX
  8
MY3DLAYER
10
1.27931682315341
20
2.56549243397934
30
0.0
 70
     32
  0
VERTEX
  8
MY3DLAYER
10
1.27868551785175
20
2.57190218427363
30
0.0
 70
     32
  0
VERTEX
  8
MY3DLAYER
10
1.27763634649638
20
2.57825692145828
30
0.0
 70
     32
  0
VERTEX
  8
MY3DLAYER
10
1.27617380180011
20
2.58452943357308
30
0.0
 70
     32
  0
VERTEX
  8
MY3DLAYER
10
1.27430414660385
20
2.59069286075818
30
0.0
 70
     32
  0
VERTEX
  8
MY3DLAYER
10
1.2720353870582
20
2.59672081027215
30
0.0
 70
     32
  0
VERTEX
  8
MY3DLAYER
10
1.26937723833983
20
2.60258746950974
30
0.0
 70
     32
  0
VERTEX
  8
MY3DLAYER
10
1.26634108304965
20
2.60826771653543
30
0.0
 70
     32
  0
VERTEX
  8
MY3DLAYER
10
1.26293992247072
20
2.61373722765941
30
0.0
 70
     32
  0
VERTEX
  8
MY3DLAYER
10
1.25918832089481
20
2.61897258159535
30
0.0
 70
     32
  0
VERTEX
  8
MY3DLAYER
10
1.25510234325581
20
2.62395135975394
30
0.0
 70
     32
  0
VERTEX
  8
MY3DLAYER
10
1.25069948633726
20
2.62865224224277
30
0.0
 70
     32
  0
VERTEX
  8
MY3DLAYER
10
1.24599860384843
20
2.63305509916132
30
0.0
 70
     32
  0
VERTEX
  8
MY3DLAYER
10
1.24101982568983
20
2.63714107680032
30
0.0
 70
     32
  0
VERTEX
  8
MY3DLAYER
10
1.2357844717539
20
2.64089267837623
30
0.0
 70
     32
  0
VERTEX
  8
MY3DLAYER
10
1.23031496062992
20
2.64429383895516
30
0.0
 70
     32
  0
VERTEX
  8
MY3DLAYER
10
1.22463471360423
20
2.64732999424534
30
0.0
 70
     32
  0
VERTEX
  8
MY3DLAYER
10
1.21876805436664
20
2.64998814296371
30
0.0
 70
     32
  0
VERTEX
  8
MY3DLAYER
10
1.21274010485267
20
2.65225690250936
30
0.0
 70
     32
  0
VERTEX
  8
MY3DLAYER
10
1.20657667766757
20
2.65412655770562
30
0.0
 70
     32
  0
VERTEX
  8
MY3DLAYER
10
1.20030416555277
20
2.65558910240189
30
0.0
 70
     32
  0
VERTEX
  8
MY3DLAYER
10
1.19394942836812
20
2.65663827375726
30
0.0
 70
     32
  0
VERTEX
  8
MY3DLAYER
10
1.18753967807383
20
2.65726957905892
30
0.0
 70
     32
  0
VERTEX
  8
MY3DLAYER
10
1.18110236220472
20
2.65748031496063
30
0.0
 70
     32
  0
VERTEX
  8
MY3DLAYER
10
1.17466504633562
20
2.65726957905892
30
0.0
 70
     32
  0
VERTEX
  8
MY3DLAYER
10
1.16825529604133
20
2.65663827375726
30
0.0
 70
     32
  0
VERTEX
  8
MY3DLAYER
10
1.16190055885668
20
2.65558910240189
30
0.0
 70
     32
  0
VERTEX
  8
MY3DLAYER
10
1.15562804674188
20
2.65412655770562
30
0.0
 70
     32
  0
VERTEX
  8
MY3DLAYER
10
1.14946461955678
20
2.65225690250936
30
0.0
 70
     32
  0
VERTEX
  8
MY3DLAYER
10
1.14343667004281
20
2.64998814296371
30
0.0
 70
     32
  0
VERTEX
  8
MY3DLAYER
10
1.13757001080522
20
2.64732999424534
30
0.0
 70
     32
  0
VERTEX
  8
MY3DLAYER
10
1.13188976377953
20
2.64429383895516
30
0.0
 70
     32
  0
VERTEX
  8
MY3DLAYER
10
1.12642025265555
20
2.64089267837623
30
0.0
 70
     32
  0
VERTEX
  8
MY3DLAYER
10
1.12118489871961
20
2.63714107680032
30
0.0
 70
     32
  0
VERTEX
  8
MY3DLAYER
10
1.11620612056102
20
2.63305509916132
30
0.0
 70
     32
  0
VERTEX
  8
MY3DLAYER
10
1.11150523807219
20
2.62865224224277
30
0.0
 70
     32
  0
VERTEX
  8
MY3DLAYER
10
1.10710238115364
20
2.62395135975394
30
0.0
 70
     32
  0
VERTEX
  8
MY3DLAYER
10
1.10301640351464
20
2.61897258159535
30
0.0
 70
     32
  0
VERTEX
  8
MY3DLAYER
10
1.09926480193873
20
2.61373722765941
30
0.0
 70
     32
  0
VERTEX
  8
MY3DLAYER
10
1.0958636413598
20
2.60826771653543
30
0.0
 70
     32
  0
VERTEX
  8
MY3DLAYER
10
1.09282748606962
20
2.60258746950974
30
0.0
 70
     32
  0
VERTEX
  8
MY3DLAYER
10
1.09016933735125
20
2.59672081027215
30
0.0
 70
     32
  0
VERTEX
  8
MY3DLAYER
10
1.0879005778056
20
2.59069286075819
30
0.0
 70
     32
  0
VERTEX
  8
MY3DLAYER
10
1.08603092260934
20
2.58452943357308
30
0.0
 70
     32
  0
VERTEX
  8
MY3DLAYER
10
1.08456837791307
20
2.57825692145828
30
0.0
 70
     32
  0
VERTEX
  8
MY3DLAYER
10
1.0835192065577
20
2.57190218427363
30
0.0
 70
     32
  0
VERTEX
  8
MY3DLAYER
10
1.08288790125604
20
2.56549243397934
30
0.0
 70
     32
  0
VERTEX
  8
MY3DLAYER
10
1.08267716535433
20
2.55905511811024
30
0.0
 70
     32
  0
VERTEX
  8
MY3DLAYER
10
1.08288790125604
20
2.55261780224113
30
0.0
 70
     32
  0
VERTEX
  8
MY3DLAYER
10
1.0835192065577
20
2.54620805194685
30
0.0
 70
     32
  0
VERTEX
  8
MY3DLAYER
10
1.08456837791307
20
2.53985331476219
30
0.0
 70
     32
  0
VERTEX
  8
MY3DLAYER
10
1.08603092260934
20
2.53358080264739
30
0.0
 70
     32
  0
VERTEX
  8
MY3DLAYER
10
1.0879005778056
20
2.52741737546229
30
0.0
 70
     32
  0
VERTEX
  8
MY3DLAYER
10
1.09016933735125
20
2.52138942594832
30
0.0
 70
     32
  0
VERTEX
  8
MY3DLAYER
10
1.09282748606962
20
2.51552276671073
30
0.0
 70
     32
  0
VERTEX
  8
MY3DLAYER
10
1.0958636413598
20
2.50984251968504
30
0.0
 70
     32
  0
VERTEX
  8
MY3DLAYER
10
1.09926480193873
20
2.50437300856106
30
0.0
 70
     32
  0
VERTEX
  8
MY3DLAYER
10
1.10301640351464
20
2.49913765462513
30
0.0
 70
     32
  0
VERTEX
  8
MY3DLAYER
10
1.10710238115364
20
2.49415887646653
30
0.0
 70
     32
  0
VERTEX
  8
MY3DLAYER
10
1.11150523807219
20
2.4894579939777
30
0.0
 70
     32
  0
VERTEX
  8
MY3DLAYER
10
1.11620612056102
20
2.48505513705916
30
0.0
 70
     32
  0
VERTEX
  8
MY3DLAYER
10
1.12118489871961
20
2.48096915942015
30
0.0
 70
     32
  0
VERTEX
  8
MY3DLAYER
10
1.12642025265555
20
2.47721755784424
30
0.0
 70
     32
  0
VERTEX
  8
MY3DLAYER
10
1.13188976377953
20
2.47381639726531
30
0.0
 70
     32
  0
VERTEX
  8
MY3DLAYER
10
1.13757001080522
20
2.47078024197513
30
0.0
 70
     32
  0
VERTEX
  8
MY3DLAYER
10
1.14343667004281
20
2.46812209325676
30
0.0
 70
     32
  0
VERTEX
  8
MY3DLAYER
10
1.14946461955678
20
2.46585333371111
30
0.0
 70
     32
  0
VERTEX
  8
MY3DLAYER
10
1.15562804674188
20
2.46398367851486
30
0.0
 70
     32
  0
VERTEX
  8
MY3DLAYER
10
1.16190055885668
20
2.46252113381858
30
0.0
 70
     32
  0
VERTEX
  8
MY3DLAYER
10
1.16825529604133
20
2.46147196246321
30
0.0
 70
     32
  0
VERTEX
  8
MY3DLAYER
10
1.17466504633562
20
2.46084065716155
30
0.0
 70
     32
  0
VERTEX
  8
MY3DLAYER
10
1.18110236220472
20
2.46062992125984
30
0.0
 70
     32
  0
VERTEX
  8
MY3DLAYER
10
1.18753967807383
20
2.46084065716155
30
0.0
 70
     32
  0
VERTEX
  8
MY3DLAYER
10
1.19394942836812
20
2.46147196246321
30
0.0
 70
     32
  0
VERTEX
  8
MY3DLAYER
10
1.20030416555277
20
2.46252113381858
30
0.0
 70
     32
  0
VERTEX
  8
MY3DLAYER
10
1.20657667766757
20
2.46398367851486
30
0.0
 70
     32
  0
VERTEX
  8
MY3DLAYER
10
1.21274010485267
20
2.46585333371111
30
0.0
 70
     32
  0
VERTEX
  8
MY3DLAYER
10
1.21876805436664
20
2.46812209325676
30
0.0
 70
     32
  0
VERTEX
  8
MY3DLAYER
10
1.22463471360423
20
2.47078024197513
30
0.0
 70
     32
  0
VERTEX
  8
MY3DLAYER
10
1.23031496062992
20
2.47381639726531
30
0.0
 70
     32
  0
VERTEX
  8
MY3DLAYER
10
1.2357844717539
20
2.47721755784424
30
0.0
 70
     32
  0
VERTEX
  8
MY3DLAYER
10
1.24101982568984
20
2.48096915942015
30
0.0
 70
     32
  0
VERTEX
  8
MY3DLAYER
10
1.24599860384843
20
2.48505513705916
30
0.0
 70
     32
  0
VERTEX
  8
MY3DLAYER
10
1.25069948633726
20
2.4894579939777
30
0.0
 70
     32
  0
VERTEX
  8
MY3DLAYER
10
1.25510234325581
20
2.49415887646653
30
0.0
 70
     32
  0
VERTEX
  8
MY3DLAYER
10
1.25918832089481
20
2.49913765462513
30
0.0
 70
     32
  0
VERTEX
  8
MY3DLAYER
10
1.26293992247072
20
2.50437300856106
30
0.0
 70
     32
  0
VERTEX
  8
MY3DLAYER
10
1.26634108304965
20
2.50984251968504
30
0.0
 70
     32
  0
VERTEX
  8
MY3DLAYER
10
1.26937723833983
20
2.51552276671073
30
0.0
 70
     32
  0
VERTEX
  8
MY3DLAYER
10
1.2720353870582
20
2.52138942594832
30
0.0
 70
     32
  0
VERTEX
  8
MY3DLAYER
10
1.27430414660385
20
2.52741737546229
30
0.0
 70
     32
  0
VERTEX
  8
MY3DLAYER
10
1.27617380180011
20
2.53358080264739
30
0.0
 70
     32
  0
VERTEX
  8
MY3DLAYER
10
1.27763634649638
20
2.53985331476219
30
0.0
 70
     32
  0
VERTEX
  8
MY3DLAYER
10
1.27868551785175
20
2.54620805194685
30
0.0
 70
     32
  0
VERTEX
  8
MY3DLAYER
10
1.27931682315341
20
2.55261780224113
30
0.0
 70
     32
  0
VERTEX
  8
MY3DLAYER
10
1.27952755905512
20
2.55905511811024
30
0.0
 70
     32
  0
SEQEND
  0
POLYLINE
 8
Layer0
 66
     1
70
    8
 10
0.0
 20
 0.0
 30
0.0
  0
VERTEX
  8
MY3DLAYER
10
2.06692913385827
20
2.55905511811024
30
0.0
 70
     32
  0
VERTEX
  8
MY3DLAYER
10
2.06671839795656
20
2.56549243397934
30
0.0
 70
     32
  0
VERTEX
  8
MY3DLAYER
10
2.0660870926549
20
2.57190218427363
30
0.0
 70
     32
  0
VERTEX
  8
MY3DLAYER
10
2.06503792129953
20
2.57825692145828
30
0.0
 70
     32
  0
VERTEX
  8
MY3DLAYER
10
2.06357537660326
20
2.58452943357308
30
0.0
 70
     32
  0
VERTEX
  8
MY3DLAYER
10
2.061705721407
20
2.59069286075818
30
0.0
 70
     32
  0
VERTEX
  8
MY3DLAYER
10
2.05943696186135
20
2.59672081027215
30
0.0
 70
     32
  0
VERTEX
  8
MY3DLAYER
10
2.05677881314298
20
2.60258746950974
30
0.0
 70
     32
  0
VERTEX
  8
MY3DLAYER
10
2.0537426578528
20
2.60826771653543
30
0.0
 70
     32
  0
VERTEX
  8
MY3DLAYER
10
2.05034149727387
20
2.61373722765941
30
0.0
 70
     32
  0
VERTEX
  8
MY3DLAYER
10
2.04658989569796
20
2.61897258159535
30
0.0
 70
     32
  0
VERTEX
  8
MY3DLAYER
10
2.04250391805895
20
2.62395135975394
30
0.0
 70
     32
  0
VERTEX
  8
MY3DLAYER
10
2.03810106114041
20
2.62865224224277
30
0.0
 70
     32
  0
VERTEX
  8
MY3DLAYER
10
2.03340017865158
20
2.63305509916132
30
0.0
 70
     32
  0
VERTEX
  8
MY3DLAYER
10
2.02842140049298
20
2.63714107680032
30
0.0
 70
     32
  0
VERTEX
  8
MY3DLAYER
10
2.02318604655705
20
2.64089267837623
30
0.0
 70
     32
  0
VERTEX
  8
MY3DLAYER
10
2.01771653543307
20
2.64429383895516
30
0.0
 70
     32
  0
VERTEX
  8
MY3DLAYER
10
2.01203628840738
20
2.64732999424534
30
0.0
 70
     32
  0
VERTEX
  8
MY3DLAYER
10
2.00616962916979
20
2.64998814296371
30
0.0
 70
     32
  0
VERTEX
  8
MY3DLAYER
10
2.00014167965582
20
2.65225690250936
30
0.0
 70
     32
  0
VERTEX
  8
MY3DLAYER
10
1.99397825247072
20
2.65412655770562
30
0.0
 70
     32
  0
VERTEX
  8
MY3DLAYER
10
1.98770574035592
20
2.65558910240189
30
0.0
 70
     32
  0
VERTEX
  8
MY3DLAYER
10
1.98135100317127
20
2.65663827375726
30
0.0
 70
     32
  0
VERTEX
  8
MY3DLAYER
10
1.97494125287698
20
2.65726957905892
30
0.0
 70
     32
  0
VERTEX
  8
MY3DLAYER
10
1.96850393700787
20
2.65748031496063
30
0.0
 70
     32
  0
VERTEX
  8
MY3DLAYER
10
1.96206662113877
20
2.65726957905892
30
0.0
 70
     32
  0
VERTEX
  8
MY3DLAYER
10
1.95565687084448
20
2.65663827375726
30
0.0
 70
     32
  0
VERTEX
  8
MY3DLAYER
10
1.94930213365983
20
2.65558910240189
30
0.0
 70
     32
  0
VERTEX
  8
MY3DLAYER
10
1.94302962154503
20
2.65412655770562
30
0.0
 70
     32
  0
VERTEX
  8
MY3DLAYER
10
1.93686619435993
20
2.65225690250936
30
0.0
 70
     32
  0
VERTEX
  8
MY3DLAYER
10
1.93083824484596
20
2.64998814296371
30
0.0
 70
     32
  0
VERTEX
  8
MY3DLAYER
10
1.92497158560837
20
2.64732999424534
30
0.0
 70
     32
  0
VERTEX
  8
MY3DLAYER
10
1.91929133858268
20
2.64429383895516
30
0.0
 70
     32
  0
VERTEX
  8
MY3DLAYER
10
1.9138218274587
20
2.64089267837623
30
0.0
 70
     32
  0
VERTEX
  8
MY3DLAYER
10
1.90858647352276
20
2.63714107680032
30
0.0
 70
     32
  0
VERTEX
  8
MY3DLAYER
10
1.90360769536417
20
2.63305509916132
30
0.0
 70
     32
  0
VERTEX
  8
MY3DLAYER
10
1.89890681287534
20
2.62865224224277
30
0.0
 70
     32
  0
VERTEX
  8
MY3DLAYER
10
1.89450395595679
20
2.62395135975394
30
0.0
 70
     32
  0
VERTEX
  8
MY3DLAYER
10
1.89041797831779
20
2.61897258159535
30
0.0
 70
     32
  0
VERTEX
  8
MY3DLAYER
10
1.88666637674188
20
2.61373722765941
30
0.0
 70
     32
  0
VERTEX
  8
MY3DLAYER
10
1.88326521616295
20
2.60826771653543
30
0.0
 70
     32
  0
VERTEX
  8
MY3DLAYER
10
1.88022906087277
20
2.60258746950974
30
0.0
 70
     32
  0
VERTEX
  8
MY3DLAYER
10
1.8775709121544
20
2.59672081027215
30
0.0
 70
     32
  0
VERTEX
  8
MY3DLAYER
10
1.87530215260875
20
2.59069286075819
30
0.0
 70
     32
  0
VERTEX
  8
MY3DLAYER
10
1.87343249741249
20
2.58452943357308
30
0.0
 70
     32
  0
VERTEX
  8
MY3DLAYER
10
1.87196995271622
20
2.57825692145828
30
0.0
 70
     32
  0
VERTEX
  8
MY3DLAYER
10
1.87092078136085
20
2.57190218427363
30
0.0
 70
     32
  0
VERTEX
  8
MY3DLAYER
10
1.87028947605919
20
2.56549243397934
30
0.0
 70
     32
  0
VERTEX
  8
MY3DLAYER
10
1.87007874015748
20
2.55905511811024
30
0.0
 70
     32
  0
VERTEX
  8
MY3DLAYER
10
1.87028947605919
20
2.55261780224113
30
0.0
 70
     32
  0
VERTEX
  8
MY3DLAYER
10
1.87092078136085
20
2.54620805194685
30
0.0
 70
     32
  0
VERTEX
  8
MY3DLAYER
10
1.87196995271622
20
2.53985331476219
30
0.0
 70
     32
  0
VERTEX
  8
MY3DLAYER
10
1.87343249741249
20
2.53358080264739
30
0.0
 70
     32
  0
VERTEX
  8
MY3DLAYER
10
1.87530215260875
20
2.52741737546229
30
0.0
 70
     32
  0
VERTEX
  8
MY3DLAYER
10
1.8775709121544
20
2.52138942594832
30
0.0
 70
     32
  0
VERTEX
  8
MY3DLAYER
10
1.88022906087277
20
2.51552276671073
30
0.0
 70
     32
  0
VERTEX
  8
MY3DLAYER
10
1.88326521616295
20
2.50984251968504
30
0.0
 70
     32
  0
VERTEX
  8
MY3DLAYER
10
1.88666637674188
20
2.50437300856106
30
0.0
 70
     32
  0
VERTEX
  8
MY3DLAYER
10
1.89041797831779
20
2.49913765462513
30
0.0
 70
     32
  0
VERTEX
  8
MY3DLAYER
10
1.89450395595679
20
2.49415887646653
30
0.0
 70
     32
  0
VERTEX
  8
MY3DLAYER
10
1.89890681287534
20
2.4894579939777
30
0.0
 70
     32
  0
VERTEX
  8
MY3DLAYER
10
1.90360769536417
20
2.48505513705916
30
0.0
 70
     32
  0
VERTEX
  8
MY3DLAYER
10
1.90858647352276
20
2.48096915942015
30
0.0
 70
     32
  0
VERTEX
  8
MY3DLAYER
10
1.9138218274587
20
2.47721755784424
30
0.0
 70
     32
  0
VERTEX
  8
MY3DLAYER
10
1.91929133858268
20
2.47381639726531
30
0.0
 70
     32
  0
VERTEX
  8
MY3DLAYER
10
1.92497158560837
20
2.47078024197513
30
0.0
 70
     32
  0
VERTEX
  8
MY3DLAYER
10
1.93083824484596
20
2.46812209325676
30
0.0
 70
     32
  0
VERTEX
  8
MY3DLAYER
10
1.93686619435993
20
2.46585333371111
30
0.0
 70
     32
  0
VERTEX
  8
MY3DLAYER
10
1.94302962154503
20
2.46398367851486
30
0.0
 70
     32
  0
VERTEX
  8
MY3DLAYER
10
1.94930213365983
20
2.46252113381858
30
0.0
 70
     32
  0
VERTEX
  8
MY3DLAYER
10
1.95565687084448
20
2.46147196246321
30
0.0
 70
     32
  0
VERTEX
  8
MY3DLAYER
10
1.96206662113877
20
2.46084065716155
30
0.0
 70
     32
  0
VERTEX
  8
MY3DLAYER
10
1.96850393700787
20
2.46062992125984
30
0.0
 70
     32
  0
VERTEX
  8
MY3DLAYER
10
1.97494125287698
20
2.46084065716155
30
0.0
 70
     32
  0
VERTEX
  8
MY3DLAYER
10
1.98135100317127
20
2.46147196246321
30
0.0
 70
     32
  0
VERTEX
  8
MY3DLAYER
10
1.98770574035592
20
2.46252113381858
30
0.0
 70
     32
  0
VERTEX
  8
MY3DLAYER
10
1.99397825247072
20
2.46398367851486
30
0.0
 70
     32
  0
VERTEX
  8
MY3DLAYER
10
2.00014167965582
20
2.46585333371111
30
0.0
 70
     32
  0
VERTEX
  8
MY3DLAYER
10
2.00616962916979
20
2.46812209325676
30
0.0
 70
     32
  0
VERTEX
  8
MY3DLAYER
10
2.01203628840738
20
2.47078024197513
30
0.0
 70
     32
  0
VERTEX
  8
MY3DLAYER
10
2.01771653543307
20
2.47381639726531
30
0.0
 70
     32
  0
VERTEX
  8
MY3DLAYER
10
2.02318604655705
20
2.47721755784424
30
0.0
 70
     32
  0
VERTEX
  8
MY3DLAYER
10
2.02842140049298
20
2.48096915942015
30
0.0
 70
     32
  0
VERTEX
  8
MY3DLAYER
10
2.03340017865158
20
2.48505513705916
30
0.0
 70
     32
  0
VERTEX
  8
MY3DLAYER
10
2.03810106114041
20
2.4894579939777
30
0.0
 70
     32
  0
VERTEX
  8
MY3DLAYER
10
2.04250391805896
20
2.49415887646653
30
0.0
 70
     32
  0
VERTEX
  8
MY3DLAYER
10
2.04658989569796
20
2.49913765462513
30
0.0
 70
     32
  0
VERTEX
  8
MY3DLAYER
10
2.05034149727387
20
2.50437300856106
30
0.0
 70
     32
  0
VERTEX
  8
MY3DLAYER
10
2.0537426578528
20
2.50984251968504
30
0.0
 70
     32
  0
VERTEX
  8
MY3DLAYER
10
2.05677881314298
20
2.51552276671073
30
0.0
 70
     32
  0
VERTEX
  8
MY3DLAYER
10
2.05943696186135
20
2.52138942594832
30
0.0
 70
     32
  0
VERTEX
  8
MY3DLAYER
10
2.061705721407
20
2.52741737546229
30
0.0
 70
     32
  0
VERTEX
  8
MY3DLAYER
10
2.06357537660326
20
2.53358080264739
30
0.0
 70
     32
  0
VERTEX
  8
MY3DLAYER
10
2.06503792129953
20
2.53985331476219
30
0.0
 70
     32
  0
VERTEX
  8
MY3DLAYER
10
2.0660870926549
20
2.54620805194685
30
0.0
 70
     32
  0
VERTEX
  8
MY3DLAYER
10
2.06671839795656
20
2.55261780224113
30
0.0
 70
     32
  0
VERTEX
  8
MY3DLAYER
10
2.06692913385827
20
2.55905511811024
30
0.0
 70
     32
  0
SEQEND
  0
POLYLINE
 8
Layer0
 66
     1
70
    8
 10
0.0
 20
 0.0
 30
0.0
  0
VERTEX
  8
MY3DLAYER
10
0.492125984251969
20
2.55905511811024
30
0.0
 70
     32
  0
VERTEX
  8
MY3DLAYER
10
0.491915248350257
20
2.56549243397934
30
0.0
 70
     32
  0
VERTEX
  8
MY3DLAYER
10
0.491283943048604
20
2.57190218427363
30
0.0
 70
     32
  0
VERTEX
  8
MY3DLAYER
10
0.490234771693232
20
2.57825692145828
30
0.0
 70
     32
  0
VERTEX
  8
MY3DLAYER
10
0.488772226996956
20
2.58452943357308
30
0.0
 70
     32
  0
VERTEX
  8
MY3DLAYER
10
0.4869025718007
20
2.59069286075818
30
0.0
 70
     32
  0
VERTEX
  8
MY3DLAYER
10
0.484633812255048
20
2.59672081027215
30
0.0
 70
     32
  0
VERTEX
  8
MY3DLAYER
10
0.481975663536682
20
2.60258746950974
30
0.0
 70
     32
  0
VERTEX
  8
MY3DLAYER
10
0.4789395082465
20
2.60826771653543
30
0.0
 70
     32
  0
VERTEX
  8
MY3DLAYER
10
0.475538347667574
20
2.61373722765941
30
0.0
 70
     32
  0
VERTEX
  8
MY3DLAYER
10
0.471786746091657
20
2.61897258159535
30
0.0
 70
     32
  0
VERTEX
  8
MY3DLAYER
10
0.467700768452656
20
2.62395135975394
30
0.0
 70
     32
  0
VERTEX
  8
MY3DLAYER
10
0.463297911534109
20
2.62865224224277
30
0.0
 70
     32
  0
VERTEX
  8
MY3DLAYER
10
0.458597029045283
20
2.63305509916132
30
0.0
 70
     32
  0
VERTEX
  8
MY3DLAYER
10
0.453618250886685
20
2.63714107680032
30
0.0
 70
     32
  0
VERTEX
  8
MY3DLAYER
10
0.448382896950749
20
2.64089267837623
30
0.0
 70
     32
  0
VERTEX
  8
MY3DLAYER
10
0.442913385826772
20
2.64429383895516
30
0.0
 70
     32
  0
VERTEX
  8
MY3DLAYER
10
0.437233138801083
20
2.64732999424534
30
0.0
 70
     32
  0
VERTEX
  8
MY3DLAYER
10
0.431366479563493
20
2.64998814296371
30
0.0
 70
     32
  0
VERTEX
  8
MY3DLAYER
10
0.425338530049524
20
2.65225690250936
30
0.0
 70
     32
  0
VERTEX
  8
MY3DLAYER
10
0.419175102864422
20
2.65412655770562
30
0.0
 70
     32
  0
VERTEX
  8
MY3DLAYER
10
0.412902590749619
20
2.65558910240189
30
0.0
 70
     32
  0
VERTEX
  8
MY3DLAYER
10
0.406547853564966
20
2.65663827375726
30
0.0
 70
     32
  0
VERTEX
  8
MY3DLAYER
10
0.400138103270684
20
2.65726957905892
30
0.0
 70
     32
  0
VERTEX
  8
MY3DLAYER
10
0.393700787401575
20
2.65748031496063
30
0.0
 70
     32
  0
VERTEX
  8
MY3DLAYER
10
0.387263471532467
20
2.65726957905892
30
0.0
 70
     32
  0
VERTEX
  8
MY3DLAYER
10
0.380853721238184
20
2.65663827375726
30
0.0
 70
     32
  0
VERTEX
  8
MY3DLAYER
10
0.374498984053531
20
2.65558910240189
30
0.0
 70
     32
  0
VERTEX
  8
MY3DLAYER
10
0.368226471938729
20
2.65412655770562
30
0.0
 70
     32
  0
VERTEX
  8
MY3DLAYER
10
0.362063044753626
20
2.65225690250936
30
0.0
 70
     32
  0
VERTEX
  8
MY3DLAYER
10
0.356035095239657
20
2.64998814296371
30
0.0
 70
     32
  0
VERTEX
  8
MY3DLAYER
10
0.350168436002067
20
2.64732999424534
30
0.0
 70
     32
  0
VERTEX
  8
MY3DLAYER
10
0.344488188976378
20
2.64429383895516
30
0.0
 70
     32
  0
VERTEX
  8
MY3DLAYER
10
0.339018677852402
20
2.64089267837623
30
0.0
 70
     32
  0
VERTEX
  8
MY3DLAYER
10
0.333783323916465
20
2.63714107680032
30
0.0
 70
     32
  0
VERTEX
  8
MY3DLAYER
10
0.328804545757868
20
2.63305509916132
30
0.0
 70
     32
  0
VERTEX
  8
MY3DLAYER
10
0.324103663269041
20
2.62865224224277
30
0.0
 70
     32
  0
VERTEX
  8
MY3DLAYER
10
0.319700806350495
20
2.62395135975394
30
0.0
 70
     32
  0
VERTEX
  8
MY3DLAYER
10
0.315614828711493
20
2.61897258159535
30
0.0
 70
     32
  0
VERTEX
  8
MY3DLAYER
10
0.311863227135577
20
2.61373722765941
30
0.0
 70
     32
  0
VERTEX
  8
MY3DLAYER
10
0.30846206655665
20
2.60826771653543
30
0.0
 70
     32
  0
VERTEX
  8
MY3DLAYER
10
0.305425911266468
20
2.60258746950974
30
0.0
 70
     32
  0
VERTEX
  8
MY3DLAYER
10
0.302767762548102
20
2.59672081027215
30
0.0
 70
     32
  0
VERTEX
  8
MY3DLAYER
10
0.300499003002451
20
2.59069286075819
30
0.0
 70
     32
  0
VERTEX
  8
MY3DLAYER
10
0.298629347806194
20
2.58452943357308
30
0.0
 70
     32
  0
VERTEX
  8
MY3DLAYER
10
0.297166803109919
20
2.57825692145828
30
0.0
 70
     32
  0
VERTEX
  8
MY3DLAYER
10
0.296117631754547
20
2.57190218427363
30
0.0
 70
     32
  0
VERTEX
  8
MY3DLAYER
10
0.295486326452894
20
2.56549243397934
30
0.0
 70
     32
  0
VERTEX
  8
MY3DLAYER
10
0.295275590551181
20
2.55905511811024
30
0.0
 70
     32
  0
VERTEX
  8
MY3DLAYER
10
0.295486326452894
20
2.55261780224113
30
0.0
 70
     32
  0
VERTEX
  8
MY3DLAYER
10
0.296117631754547
20
2.54620805194685
30
0.0
 70
     32
  0
VERTEX
  8
MY3DLAYER
10
0.297166803109919
20
2.53985331476219
30
0.0
 70
     32
  0
VERTEX
  8
MY3DLAYER
10
0.298629347806194
20
2.53358080264739
30
0.0
 70
     32
  0
VERTEX
  8
MY3DLAYER
10
0.30049900300245
20
2.52741737546229
30
0.0
 70
     32
  0
VERTEX
  8
MY3DLAYER
10
0.302767762548102
20
2.52138942594832
30
0.0
 70
     32
  0
VERTEX
  8
MY3DLAYER
10
0.305425911266468
20
2.51552276671073
30
0.0
 70
     32
  0
VERTEX
  8
MY3DLAYER
10
0.30846206655665
20
2.50984251968504
30
0.0
 70
     32
  0
VERTEX
  8
MY3DLAYER
10
0.311863227135576
20
2.50437300856106
30
0.0
 70
     32
  0
VERTEX
  8
MY3DLAYER
10
0.315614828711493
20
2.49913765462513
30
0.0
 70
     32
  0
VERTEX
  8
MY3DLAYER
10
0.319700806350494
20
2.49415887646653
30
0.0
 70
     32
  0
VERTEX
  8
MY3DLAYER
10
0.324103663269041
20
2.4894579939777
30
0.0
 70
     32
  0
VERTEX
  8
MY3DLAYER
10
0.328804545757867
20
2.48505513705916
30
0.0
 70
     32
  0
VERTEX
  8
MY3DLAYER
10
0.333783323916465
20
2.48096915942015
30
0.0
 70
     32
  0
VERTEX
  8
MY3DLAYER
10
0.339018677852401
20
2.47721755784424
30
0.0
 70
     32
  0
VERTEX
  8
MY3DLAYER
10
0.344488188976378
20
2.47381639726531
30
0.0
 70
     32
  0
VERTEX
  8
MY3DLAYER
10
0.350168436002067
20
2.47078024197513
30
0.0
 70
     32
  0
VERTEX
  8
MY3DLAYER
10
0.356035095239657
20
2.46812209325676
30
0.0
 70
     32
  0
VERTEX
  8
MY3DLAYER
10
0.362063044753626
20
2.46585333371111
30
0.0
 70
     32
  0
VERTEX
  8
MY3DLAYER
10
0.368226471938728
20
2.46398367851486
30
0.0
 70
     32
  0
VERTEX
  8
MY3DLAYER
10
0.374498984053531
20
2.46252113381858
30
0.0
 70
     32
  0
VERTEX
  8
MY3DLAYER
10
0.380853721238184
20
2.46147196246321
30
0.0
 70
     32
  0
VERTEX
  8
MY3DLAYER
10
0.387263471532467
20
2.46084065716155
30
0.0
 70
     32
  0
VERTEX
  8
MY3DLAYER
10
0.393700787401575
20
2.46062992125984
30
0.0
 70
     32
  0
VERTEX
  8
MY3DLAYER
10
0.400138103270684
20
2.46084065716155
30
0.0
 70
     32
  0
VERTEX
  8
MY3DLAYER
10
0.406547853564966
20
2.46147196246321
30
0.0
 70
     32
  0
VERTEX
  8
MY3DLAYER
10
0.412902590749619
20
2.46252113381858
30
0.0
 70
     32
  0
VERTEX
  8
MY3DLAYER
10
0.419175102864422
20
2.46398367851486
30
0.0
 70
     32
  0
VERTEX
  8
MY3DLAYER
10
0.425338530049524
20
2.46585333371111
30
0.0
 70
     32
  0
VERTEX
  8
MY3DLAYER
10
0.431366479563494
20
2.46812209325676
30
0.0
 70
     32
  0
VERTEX
  8
MY3DLAYER
10
0.437233138801083
20
2.47078024197513
30
0.0
 70
     32
  0
VERTEX
  8
MY3DLAYER
10
0.442913385826772
20
2.47381639726531
30
0.0
 70
     32
  0
VERTEX
  8
MY3DLAYER
10
0.448382896950749
20
2.47721755784424
30
0.0
 70
     32
  0
VERTEX
  8
MY3DLAYER
10
0.453618250886686
20
2.48096915942015
30
0.0
 70
     32
  0
VERTEX
  8
MY3DLAYER
10
0.458597029045283
20
2.48505513705916
30
0.0
 70
     32
  0
VERTEX
  8
MY3DLAYER
10
0.46329791153411
20
2.4894579939777
30
0.0
 70
     32
  0
VERTEX
  8
MY3DLAYER
10
0.467700768452656
20
2.49415887646653
30
0.0
 70
     32
  0
VERTEX
  8
MY3DLAYER
10
0.471786746091658
20
2.49913765462513
30
0.0
 70
     32
  0
VERTEX
  8
MY3DLAYER
10
0.475538347667574
20
2.50437300856106
30
0.0
 70
     32
  0
VERTEX
  8
MY3DLAYER
10
0.4789395082465
20
2.50984251968504
30
0.0
 70
     32
  0
VERTEX
  8
MY3DLAYER
10
0.481975663536683
20
2.51552276671073
30
0.0
 70
     32
  0
VERTEX
  8
MY3DLAYER
10
0.484633812255048
20
2.52138942594832
30
0.0
 70
     32
  0
VERTEX
  8
MY3DLAYER
10
0.4869025718007
20
2.52741737546229
30
0.0
 70
     32
  0
VERTEX
  8
MY3DLAYER
10
0.488772226996956
20
2.53358080264739
30
0.0
 70
     32
  0
VERTEX
  8
MY3DLAYER
10
0.490234771693232
20
2.53985331476219
30
0.0
 70
     32
  0
VERTEX
  8
MY3DLAYER
10
0.491283943048604
20
2.54620805194685
30
0.0
 70
     32
  0
VERTEX
  8
MY3DLAYER
10
0.491915248350257
20
2.55261780224113
30
0.0
 70
     32
  0
VERTEX
  8
MY3DLAYER
10
0.492125984251969
20
2.55905511811024
30
0.0
 70
     32
  0
SEQEND
  0
POLYLINE
 8
Layer0
 66
     1
70
    8
 10
0.0
 20
 0.0
 30
0.0
  0
VERTEX
  8
MY3DLAYER
10
-0.295275590551181
20
2.55905511811024
30
0.0
 70
     32
  0
VERTEX
  8
MY3DLAYER
10
-0.295486326452893
20
2.56549243397934
30
0.0
 70
     32
  0
VERTEX
  8
MY3DLAYER
10
-0.296117631754546
20
2.57190218427363
30
0.0
 70
     32
  0
VERTEX
  8
MY3DLAYER
10
-0.297166803109918
20
2.57825692145828
30
0.0
 70
     32
  0
VERTEX
  8
MY3DLAYER
10
-0.298629347806194
20
2.58452943357308
30
0.0
 70
     32
  0
VERTEX
  8
MY3DLAYER
10
-0.30049900300245
20
2.59069286075818
30
0.0
 70
     32
  0
VERTEX
  8
MY3DLAYER
10
-0.302767762548101
20
2.59672081027215
30
0.0
 70
     32
  0
VERTEX
  8
MY3DLAYER
10
-0.305425911266467
20
2.60258746950974
30
0.0
 70
     32
  0
VERTEX
  8
MY3DLAYER
10
-0.308462066556649
20
2.60826771653543
30
0.0
 70
     32
  0
VERTEX
  8
MY3DLAYER
10
-0.311863227135576
20
2.61373722765941
30
0.0
 70
     32
  0
VERTEX
  8
MY3DLAYER
10
-0.315614828711492
20
2.61897258159535
30
0.0
 70
     32
  0
VERTEX
  8
MY3DLAYER
10
-0.319700806350494
20
2.62395135975394
30
0.0
 70
     32
  0
VERTEX
  8
MY3DLAYER
10
-0.32410366326904
20
2.62865224224277
30
0.0
 70
     32
  0
VERTEX
  8
MY3DLAYER
10
-0.328804545757867
20
2.63305509916132
30
0.0
 70
     32
  0
VERTEX
  8
MY3DLAYER
10
-0.333783323916464
20
2.63714107680032
30
0.0
 70
     32
  0
VERTEX
  8
MY3DLAYER
10
-0.339018677852401
20
2.64089267837623
30
0.0
 70
     32
  0
VERTEX
  8
MY3DLAYER
10
-0.344488188976378
20
2.64429383895516
30
0.0
 70
     32
  0
VERTEX
  8
MY3DLAYER
10
-0.350168436002066
20
2.64732999424534
30
0.0
 70
     32
  0
VERTEX
  8
MY3DLAYER
10
-0.356035095239656
20
2.64998814296371
30
0.0
 70
     32
  0
VERTEX
  8
MY3DLAYER
10
-0.362063044753626
20
2.65225690250936
30
0.0
 70
     32
  0
VERTEX
  8
MY3DLAYER
10
-0.368226471938728
20
2.65412655770562
30
0.0
 70
     32
  0
VERTEX
  8
MY3DLAYER
10
-0.37449898405353
20
2.65558910240189
30
0.0
 70
     32
  0
VERTEX
  8
MY3DLAYER
10
-0.380853721238184
20
2.65663827375726
30
0.0
 70
     32
  0
VERTEX
  8
MY3DLAYER
10
-0.387263471532466
20
2.65726957905892
30
0.0
 70
     32
  0
VERTEX
  8
MY3DLAYER
10
-0.393700787401574
20
2.65748031496063
30
0.0
 70
     32
  0
VERTEX
  8
MY3DLAYER
10
-0.400138103270683
20
2.65726957905892
30
0.0
 70
     32
  0
VERTEX
  8
MY3DLAYER
10
-0.406547853564965
20
2.65663827375726
30
0.0
 70
     32
  0
VERTEX
  8
MY3DLAYER
10
-0.412902590749619
20
2.65558910240189
30
0.0
 70
     32
  0
VERTEX
  8
MY3DLAYER
10
-0.419175102864421
20
2.65412655770562
30
0.0
 70
     32
  0
VERTEX
  8
MY3DLAYER
10
-0.425338530049523
20
2.65225690250936
30
0.0
 70
     32
  0
VERTEX
  8
MY3DLAYER
10
-0.431366479563493
20
2.64998814296371
30
0.0
 70
     32
  0
VERTEX
  8
MY3DLAYER
10
-0.437233138801082
20
2.64732999424534
30
0.0
 70
     32
  0
VERTEX
  8
MY3DLAYER
10
-0.442913385826771
20
2.64429383895516
30
0.0
 70
     32
  0
VERTEX
  8
MY3DLAYER
10
-0.448382896950748
20
2.64089267837623
30
0.0
 70
     32
  0
VERTEX
  8
MY3DLAYER
10
-0.453618250886685
20
2.63714107680032
30
0.0
 70
     32
  0
VERTEX
  8
MY3DLAYER
10
-0.458597029045282
20
2.63305509916132
30
0.0
 70
     32
  0
VERTEX
  8
MY3DLAYER
10
-0.463297911534109
20
2.62865224224277
30
0.0
 70
     32
  0
VERTEX
  8
MY3DLAYER
10
-0.467700768452655
20
2.62395135975394
30
0.0
 70
     32
  0
VERTEX
  8
MY3DLAYER
10
-0.471786746091657
20
2.61897258159535
30
0.0
 70
     32
  0
VERTEX
  8
MY3DLAYER
10
-0.475538347667573
20
2.61373722765941
30
0.0
 70
     32
  0
VERTEX
  8
MY3DLAYER
10
-0.478939508246499
20
2.60826771653543
30
0.0
 70
     32
  0
VERTEX
  8
MY3DLAYER
10
-0.481975663536682
20
2.60258746950974
30
0.0
 70
     32
  0
VERTEX
  8
MY3DLAYER
10
-0.484633812255048
20
2.59672081027215
30
0.0
 70
     32
  0
VERTEX
  8
MY3DLAYER
10
-0.486902571800699
20
2.59069286075819
30
0.0
 70
     32
  0
VERTEX
  8
MY3DLAYER
10
-0.488772226996955
20
2.58452943357308
30
0.0
 70
     32
  0
VERTEX
  8
MY3DLAYER
10
-0.490234771693231
20
2.57825692145828
30
0.0
 70
     32
  0
VERTEX
  8
MY3DLAYER
10
-0.491283943048603
20
2.57190218427363
30
0.0
 70
     32
  0
VERTEX
  8
MY3DLAYER
10
-0.491915248350256
20
2.56549243397934
30
0.0
 70
     32
  0
VERTEX
  8
MY3DLAYER
10
-0.492125984251968
20
2.55905511811024
30
0.0
 70
     32
  0
VERTEX
  8
MY3DLAYER
10
-0.491915248350256
20
2.55261780224113
30
0.0
 70
     32
  0
VERTEX
  8
MY3DLAYER
10
-0.491283943048603
20
2.54620805194685
30
0.0
 70
     32
  0
VERTEX
  8
MY3DLAYER
10
-0.490234771693231
20
2.53985331476219
30
0.0
 70
     32
  0
VERTEX
  8
MY3DLAYER
10
-0.488772226996955
20
2.53358080264739
30
0.0
 70
     32
  0
VERTEX
  8
MY3DLAYER
10
-0.486902571800699
20
2.52741737546229
30
0.0
 70
     32
  0
VERTEX
  8
MY3DLAYER
10
-0.484633812255048
20
2.52138942594832
30
0.0
 70
     32
  0
VERTEX
  8
MY3DLAYER
10
-0.481975663536682
20
2.51552276671073
30
0.0
 70
     32
  0
VERTEX
  8
MY3DLAYER
10
-0.4789395082465
20
2.50984251968504
30
0.0
 70
     32
  0
VERTEX
  8
MY3DLAYER
10
-0.475538347667573
20
2.50437300856106
30
0.0
 70
     32
  0
VERTEX
  8
MY3DLAYER
10
-0.471786746091657
20
2.49913765462513
30
0.0
 70
     32
  0
VERTEX
  8
MY3DLAYER
10
-0.467700768452655
20
2.49415887646653
30
0.0
 70
     32
  0
VERTEX
  8
MY3DLAYER
10
-0.463297911534109
20
2.4894579939777
30
0.0
 70
     32
  0
VERTEX
  8
MY3DLAYER
10
-0.458597029045282
20
2.48505513705916
30
0.0
 70
     32
  0
VERTEX
  8
MY3DLAYER
10
-0.453618250886685
20
2.48096915942015
30
0.0
 70
     32
  0
VERTEX
  8
MY3DLAYER
10
-0.448382896950748
20
2.47721755784424
30
0.0
 70
     32
  0
VERTEX
  8
MY3DLAYER
10
-0.442913385826772
20
2.47381639726531
30
0.0
 70
     32
  0
VERTEX
  8
MY3DLAYER
10
-0.437233138801083
20
2.47078024197513
30
0.0
 70
     32
  0
VERTEX
  8
MY3DLAYER
10
-0.431366479563493
20
2.46812209325676
30
0.0
 70
     32
  0
VERTEX
  8
MY3DLAYER
10
-0.425338530049524
20
2.46585333371111
30
0.0
 70
     32
  0
VERTEX
  8
MY3DLAYER
10
-0.419175102864421
20
2.46398367851486
30
0.0
 70
     32
  0
VERTEX
  8
MY3DLAYER
10
-0.412902590749619
20
2.46252113381858
30
0.0
 70
     32
  0
VERTEX
  8
MY3DLAYER
10
-0.406547853564965
20
2.46147196246321
30
0.0
 70
     32
  0
VERTEX
  8
MY3DLAYER
10
-0.400138103270683
20
2.46084065716155
30
0.0
 70
     32
  0
VERTEX
  8
MY3DLAYER
10
-0.393700787401574
20
2.46062992125984
30
0.0
 70
     32
  0
VERTEX
  8
MY3DLAYER
10
-0.387263471532466
20
2.46084065716155
30
0.0
 70
     32
  0
VERTEX
  8
MY3DLAYER
10
-0.380853721238183
20
2.46147196246321
30
0.0
 70
     32
  0
VERTEX
  8
MY3DLAYER
10
-0.37449898405353
20
2.46252113381858
30
0.0
 70
     32
  0
VERTEX
  8
MY3DLAYER
10
-0.368226471938728
20
2.46398367851486
30
0.0
 70
     32
  0
VERTEX
  8
MY3DLAYER
10
-0.362063044753625
20
2.46585333371111
30
0.0
 70
     32
  0
VERTEX
  8
MY3DLAYER
10
-0.356035095239656
20
2.46812209325676
30
0.0
 70
     32
  0
VERTEX
  8
MY3DLAYER
10
-0.350168436002066
20
2.47078024197513
30
0.0
 70
     32
  0
VERTEX
  8
MY3DLAYER
10
-0.344488188976377
20
2.47381639726531
30
0.0
 70
     32
  0
VERTEX
  8
MY3DLAYER
10
-0.339018677852401
20
2.47721755784424
30
0.0
 70
     32
  0
VERTEX
  8
MY3DLAYER
10
-0.333783323916464
20
2.48096915942015
30
0.0
 70
     32
  0
VERTEX
  8
MY3DLAYER
10
-0.328804545757867
20
2.48505513705916
30
0.0
 70
     32
  0
VERTEX
  8
MY3DLAYER
10
-0.32410366326904
20
2.4894579939777
30
0.0
 70
     32
  0
VERTEX
  8
MY3DLAYER
10
-0.319700806350494
20
2.49415887646653
30
0.0
 70
     32
  0
VERTEX
  8
MY3DLAYER
10
-0.315614828711492
20
2.49913765462513
30
0.0
 70
     32
  0
VERTEX
  8
MY3DLAYER
10
-0.311863227135576
20
2.50437300856106
30
0.0
 70
     32
  0
VERTEX
  8
MY3DLAYER
10
-0.308462066556649
20
2.50984251968504
30
0.0
 70
     32
  0
VERTEX
  8
MY3DLAYER
10
-0.305425911266467
20
2.51552276671073
30
0.0
 70
     32
  0
VERTEX
  8
MY3DLAYER
10
-0.302767762548101
20
2.52138942594832
30
0.0
 70
     32
  0
VERTEX
  8
MY3DLAYER
10
-0.30049900300245
20
2.52741737546229
30
0.0
 70
     32
  0
VERTEX
  8
MY3DLAYER
10
-0.298629347806194
20
2.53358080264739
30
0.0
 70
     32
  0
VERTEX
  8
MY3DLAYER
10
-0.297166803109918
20
2.53985331476219
30
0.0
 70
     32
  0
VERTEX
  8
MY3DLAYER
10
-0.296117631754546
20
2.54620805194685
30
0.0
 70
     32
  0
VERTEX
  8
MY3DLAYER
10
-0.295486326452893
20
2.55261780224113
30
0.0
 70
     32
  0
VERTEX
  8
MY3DLAYER
10
-0.295275590551181
20
2.55905511811024
30
0.0
 70
     32
  0
SEQEND
 0
ENDSEC
 0
EOF
