0
SECTION
2
HEADER
9
$INSUNITS
70
4
9
$ACADVER
1
AC1014
9
$HANDSEED
5
FFFF
0
ENDSEC
0
SECTION
2
TABLES
0
TABLE
2
VPORT
5
8
100
AcDbSymbolTable
0
ENDTAB
0
TABLE
2
LTYPE
5
5
100
AcDbSymbolTable
0
LTYPE
5
14
100
AcDbSymbolTableRecord
100
AcDbLinetypeTableRecord
2
BYBLOCK
70
0
0
LTYPE
5
15
100
AcDbSymbolTableRecord
100
AcDbLinetypeTableRecord
2
BYLAYER
70
0
0
ENDTAB
0
TABLE
2
LAYER
5
2
100
AcDbSymbolTable
70
2
0
LAYER
5
50
100
AcDbSymbolTableRecord
100
AcDbLayerTableRecord
2
0
70
0
6
CONTINUOUS
0
ENDTAB
0
TABLE
2
STYLE
5
3
100
AcDbSymbolTable
70
1
0
STYLE
5
11
100
AcDbSymbolTableRecord
100
AcDbTextStyleTableRecord
2
STANDARD
70
0
0
ENDTAB
0
TABLE
2
VIEW
5
6
100
AcDbSymbolTable
70
0
0
ENDTAB
0
TABLE
2
UCS
5
7
100
AcDbSymbolTable
70
0
0
ENDTAB
0
TABLE
2
APPID
5
9
100
AcDbSymbolTable
70
2
0
APPID
5
12
100
AcDbSymbolTableRecord
100
AcDbRegAppTableRecord
2
ACAD
70
0
0
ENDTAB
0
TABLE
2
DIMSTYLE
5
A
100
AcDbSymbolTable
70
1
0
ENDTAB
0
TABLE
2
BLOCK_RECORD
5
1
100
AcDbSymbolTable
70
1
0
BLOCK_RECORD
5
1F
100
AcDbSymbolTableRecord
100
AcDbBlockTableRecord
2
*MODEL_SPACE
0
BLOCK_RECORD
5
1B
100
AcDbSymbolTableRecord
100
AcDbBlockTableRecord
2
*PAPER_SPACE
0
ENDTAB
0
ENDSEC
0
SECTION
2
BLOCKS
0
BLOCK
5
20
100
AcDbEntity
100
AcDbBlockBegin
2
*MODEL_SPACE
0
ENDBLK
5
21
100
AcDbEntity
100
AcDbBlockEnd
0
BLOCK
5
1C
100
AcDbEntity
100
AcDbBlockBegin
2
*PAPER_SPACE
0
ENDBLK
5
1D
100
AcDbEntity
100
AcDbBlockEnd
0
ENDSEC
0
SECTION
2
ENTITIES
0
LWPOLYLINE
5
100
100
AcDbEntity
8
0
100
AcDbPolyline
90
24
70
1
43
0.0
10
4.6729146071527001
20
3.6538570463906006
10
4.6923101870760995
20
3.6791338582677002
10
4.7045027583265995
20
3.7085693291410005
10
4.7086614173227996
20
3.7401574803150002
10
4.7045027583265995
20
3.7717456314889004
10
4.6923101870760995
20
3.8011811023622006
10
4.6729146071527001
20
3.8264579142393003
10
4.6476377952755996
20
3.8458534941627005
10
4.6182023244022998
20
3.8580460654132005
10
4.5866141732284005
20
3.8622047244094997
10
4.5550260220544008
20
3.8580460654132005
10
4.5255905511810992
20
3.8458534941627005
10
4.5003137393040005
20
3.8264579142393003
10
4.4809181593806002
20
3.8011811023622006
10
4.4687255881300993
20
3.7717456314889004
10
4.4645669291339001
20
3.7401574803150002
10
4.4687255881300993
20
3.7085693291410005
10
4.4809181593806002
20
3.6791338582677002
10
4.5003137393040005
20
3.6538570463906006
10
4.5255905511810992
20
3.6344614664673003
10
4.5550260220544008
20
3.6222688952167004
10
4.5866141732284005
20
3.6181102362204998
10
4.6182023244022998
20
3.6222688952167004
10
4.6476377952755996
20
3.6344614664673003
0
LWPOLYLINE
5
101
100
AcDbEntity
8
0
100
AcDbPolyline
90
24
70
1
43
0.0
10
8.1296996087202995
20
3.7085693291410005
10
8.1338582677165014
20
3.7401574803150002
10
8.1296996087202995
20
3.7717456314889004
10
8.1175070374697995
20
3.8011811023622006
10
8.0981114575464002
20
3.8264579142393003
10
8.0728346456692996
20
3.8458534941627005
10
8.0433991747960008
20
3.8580460654132005
10
8.0118110236220996
20
3.8622047244094997
10
7.9802228724481008
20
3.8580460654132005
10
7.9507874015748001
20
3.8458534941627005
10
7.9255105896977005
20
3.8264579142393003
10
7.9061150097743003
20
3.8011811023622006
10
7.8939224385238003
20
3.7717456314889004
10
7.889763779527601
20
3.7401574803150002
10
7.8939224385238003
20
3.7085693291410005
10
7.9061150097743003
20
3.6791338582677002
10
7.9255105896977005
20
3.6538570463906006
10
7.9507874015748001
20
3.6344614664673003
10
7.9802228724481008
20
3.6222688952167004
10
8.0118110236220996
20
3.6181102362204998
10
8.0433991747960008
20
3.6222688952167004
10
8.0728346456692996
20
3.6344614664673003
10
8.0981114575464002
20
3.6538570463906006
10
8.1175070374697995
20
3.6791338582677002
0
LWPOLYLINE
5
102
100
AcDbEntity
8
0
100
AcDbPolyline
90
24
70
1
43
0.0
10
8.1296996087202995
20
6.0707740535504993
10
8.1338582677165014
20
6.1023622047244004
10
8.1296996087202995
20
6.1339503558982988
10
8.1175070374697995
20
6.1633858267717017
10
8.0981114575464002
20
6.1886626386487995
10
8.0728346456692996
20
6.2080582185721003
10
8.0433991747960008
20
6.2202507898226997
10
8.0118110236220996
20
6.2244094488189017
10
7.9802228724481008
20
6.2202507898226997
10
7.9507874015748001
20
6.2080582185721003
10
7.9255105896977005
20
6.1886626386487995
10
7.9061150097743003
20
6.1633858267717017
10
7.8939224385238003
20
6.1339503558982988
10
7.889763779527601
20
6.1023622047244004
10
7.8939224385238003
20
6.0707740535504993
10
7.9061150097743003
20
6.0413385826772004
10
7.9255105896977005
20
6.0160617708000999
10
7.9507874015748001
20
5.9966661908766996
10
7.9802228724481008
20
5.984473619626101
10
8.0118110236220996
20
5.9803149606299009
10
8.0433991747960008
20
5.984473619626101
10
8.0728346456692996
20
5.9966661908766996
10
8.0981114575464002
20
6.0160617708000999
10
8.1175070374697995
20
6.0413385826772004
0
LWPOLYLINE
5
103
100
AcDbEntity
8
0
100
AcDbPolyline
90
24
70
1
43
0.0
10
4.7045027583265995
20
6.0707740535504993
10
4.7086614173227996
20
6.1023622047244004
10
4.7045027583265995
20
6.1339503558982988
10
4.6923101870760995
20
6.1633858267717017
10
4.6729146071527001
20
6.1886626386487995
10
4.6476377952755996
20
6.2080582185721003
10
4.6182023244022998
20
6.2202507898226997
10
4.5866141732284005
20
6.2244094488189017
10
4.5550260220544008
20
6.2202507898226997
10
4.5255905511810992
20
6.2080582185721003
10
4.5003137393040005
20
6.1886626386487995
10
4.4809181593806002
20
6.1633858267717017
10
4.4687255881300993
20
6.1339503558982988
10
4.4645669291339001
20
6.1023622047244004
10
4.4687255881300993
20
6.0707740535504993
10
4.4809181593806002
20
6.0413385826772004
10
4.5003137393040005
20
6.0160617708000999
10
4.5255905511810992
20
5.9966661908766996
10
4.5550260220544008
20
5.984473619626101
10
4.5866141732284005
20
5.9803149606299009
10
4.6182023244022998
20
5.984473619626101
10
4.6476377952755996
20
5.9966661908766996
10
4.6729146071527001
20
6.0160617708000999
10
4.6923101870760995
20
6.0413385826772004
0
LWPOLYLINE
5
104
100
AcDbEntity
8
0
100
AcDbPolyline
90
18
70
1
43
0.0
10
0
20
9.8425196850394023
10
0
20
6.8897637795276001
10
0.78740157480319994
20
5.7086614173228014
10
0.78740157480319994
20
4.1338582677165006
10
0
20
2.9527559055118004
10
0
20
0
10
1.7716535433071003
20
0
10
6.2992125984251999
20
0.39370078740159997
10
10.8267716535433
20
0
10
12.5984251968504
20
0
10
12.5984251968504
20
2.9527559055118004
10
11.811023622047202
20
4.1338582677165006
10
11.811023622047202
20
5.7086614173228014
10
12.5984251968504
20
6.8897637795276001
10
12.5984251968504
20
9.8425196850394023
10
10.8267716535433
20
9.8425196850394023
10
6.2992125984251999
20
9.4488188976378016
10
1.7716535433071003
20
9.8425196850394023
0
LWPOLYLINE
5
105
100
AcDbEntity
8
0
100
AcDbPolyline
90
24
70
1
43
0.0
10
0.49606299212600008
20
9.4488188976378016
10
0.49257508458080002
20
9.4753121857191989
10
0.48234905708030007
20
9.5
10
0.46608179649940007
20
9.5211999067355997
10
0.44488188976380005
20
9.5374671673164997
10
0.42019407548290005
20
9.5476931948170005
10
0.39370078740159997
20
9.5511811023621984
10
0.36720749932020008
20
9.5476931948170005
10
0.3425196850394
20
9.5374671673164997
10
0.32131977830370001
20
9.5211999067355997
10
0.3050525177229001
20
9.5
10
0.29482649022240004
20
9.4753121857191989
10
0.29133858267720003
20
9.4488188976378016
10
0.29482649022240004
20
9.4223256095564007
10
0.3050525177229001
20
9.3976377952755996
10
0.32131977830370001
20
9.3764378885399999
10
0.3425196850394
20
9.3601706279590999
10
0.36720749932020008
20
9.3499446004585991
10
0.39370078740159997
20
9.3464566929133994
10
0.42019407548290005
20
9.3499446004585991
10
0.44488188976380005
20
9.3601706279590999
10
0.46608179649940007
20
9.3764378885399999
10
0.48234905708030007
20
9.3976377952755996
10
0.49257508458080002
20
9.4223256095564007
0
LWPOLYLINE
5
106
100
AcDbEntity
8
0
100
AcDbPolyline
90
24
70
1
43
0.0
10
12.277105418546698
20
9.3764378885399999
10
12.293372679127501
20
9.3976377952755996
10
12.303598706628003
20
9.4223256095564007
10
12.307086614173199
20
9.4488188976378016
10
12.303598706628003
20
9.4753121857191989
10
12.293372679127501
20
9.5
10
12.277105418546698
20
9.5211999067355997
10
12.255905511811001
20
9.5374671673164997
10
12.231217697530198
20
9.5476931948170005
10
12.204724409448801
20
9.5511811023621984
10
12.178231121367499
20
9.5476931948170005
10
12.153543307086601
20
9.5374671673164997
10
12.132343400351001
20
9.5211999067355997
10
12.116076139770103
20
9.5
10
12.1058501122696
20
9.4753121857191989
10
12.102362204724402
20
9.4488188976378016
10
12.1058501122696
20
9.4223256095564007
10
12.116076139770103
20
9.3976377952755996
10
12.132343400351001
20
9.3764378885399999
10
12.153543307086601
20
9.3601706279590999
10
12.178231121367499
20
9.3499446004585991
10
12.204724409448801
20
9.3464566929133994
10
12.231217697530198
20
9.3499446004585991
10
12.255905511811001
20
9.3601706279590999
0
LWPOLYLINE
5
107
100
AcDbEntity
8
0
100
AcDbPolyline
90
24
70
1
43
0.0
10
0.49257508458080002
20
0.36720749932020008
10
0.49606299212600008
20
0.39370078740159997
10
0.49257508458080002
20
0.42019407548290005
10
0.48234905708030007
20
0.44488188976380005
10
0.46608179649940007
20
0.46608179649940007
10
0.44488188976380005
20
0.48234905708030007
10
0.42019407548290005
20
0.49257508458080002
10
0.39370078740159997
20
0.49606299212600008
10
0.36720749932020008
20
0.49257508458080002
10
0.3425196850394
20
0.48234905708030007
10
0.32131977830370001
20
0.46608179649940007
10
0.3050525177229001
20
0.44488188976380005
10
0.29482649022240004
20
0.42019407548290005
10
0.29133858267720003
20
0.39370078740159997
10
0.29482649022240004
20
0.36720749932020008
10
0.3050525177229001
20
0.3425196850394
10
0.32131977830370001
20
0.32131977830370001
10
0.3425196850394
20
0.3050525177229001
10
0.36720749932020008
20
0.29482649022240004
10
0.39370078740159997
20
0.29133858267720003
10
0.42019407548290005
20
0.29482649022240004
10
0.44488188976380005
20
0.3050525177229001
10
0.46608179649940007
20
0.32131977830370001
10
0.48234905708030007
20
0.3425196850394
0
LWPOLYLINE
5
108
100
AcDbEntity
8
0
100
AcDbPolyline
90
24
70
1
43
0.0
10
12.303598706628003
20
0.36720749932020008
10
12.307086614173199
20
0.39370078740159997
10
12.303598706628003
20
0.42019407548290005
10
12.293372679127501
20
0.44488188976380005
10
12.277105418546698
20
0.46608179649940007
10
12.255905511811001
20
0.48234905708030007
10
12.231217697530198
20
0.49257508458080002
10
12.204724409448801
20
0.49606299212600008
10
12.178231121367499
20
0.49257508458080002
10
12.153543307086601
20
0.48234905708030007
10
12.132343400351001
20
0.46608179649940007
10
12.116076139770103
20
0.44488188976380005
10
12.1058501122696
20
0.42019407548290005
10
12.102362204724402
20
0.39370078740159997
10
12.1058501122696
20
0.36720749932020008
10
12.116076139770103
20
0.3425196850394
10
12.132343400351001
20
0.32131977830370001
10
12.153543307086601
20
0.3050525177229001
10
12.178231121367499
20
0.29482649022240004
10
12.204724409448801
20
0.29133858267720003
10
12.231217697530198
20
0.29482649022240004
10
12.255905511811001
20
0.3050525177229001
10
12.277105418546698
20
0.32131977830370001
10
12.293372679127501
20
0.3425196850394
0
LWPOLYLINE
5
109
100
AcDbEntity
8
0
100
AcDbPolyline
90
24
70
1
43
0.0
10
3.5275590551181004
20
6.1023622047244004
10
3.5234003961219007
20
6.1339503558982988
10
3.5112078248713003
20
6.1633858267717017
10
3.491812244948
20
6.1886626386487995
10
3.4665354330709004
20
6.2080582185721003
10
3.4370999621976006
20
6.2202507898226997
10
3.4055118110236005
20
6.2244094488189017
10
3.3739236598497002
20
6.2202507898226997
10
3.3444881889764
20
6.2080582185721003
10
3.3192113770993004
20
6.1886626386487995
10
3.2998157971759001
20
6.1633858267717017
10
3.2876232259254001
20
6.1339503558982988
10
3.2834645669291
20
6.1023622047244004
10
3.2876232259254001
20
6.0707740535504993
10
3.2998157971759001
20
6.0413385826772004
10
3.3192113770993004
20
6.0160617708000999
10
3.3444881889764
20
5.9966661908766996
10
3.3739236598497002
20
5.984473619626101
10
3.4055118110236005
20
5.9803149606299009
10
3.4370999621976006
20
5.984473619626101
10
3.4665354330709004
20
5.9966661908766996
10
3.491812244948
20
6.0160617708000999
10
3.5112078248713003
20
6.0413385826772004
10
3.5234003961219007
20
6.0707740535504993
0
LWPOLYLINE
5
110
100
AcDbEntity
8
0
100
AcDbPolyline
90
24
70
1
43
0.0
10
3.5275590551181004
20
3.7401574803150002
10
3.5234003961219007
20
3.7717456314889004
10
3.5112078248713003
20
3.8011811023622006
10
3.491812244948
20
3.8264579142393003
10
3.4665354330709004
20
3.8458534941627005
10
3.4370999621976006
20
3.8580460654132005
10
3.4055118110236005
20
3.8622047244094997
10
3.3739236598497002
20
3.8580460654132005
10
3.3444881889764
20
3.8458534941627005
10
3.3192113770993004
20
3.8264579142393003
10
3.2998157971759001
20
3.8011811023622006
10
3.2876232259254001
20
3.7717456314889004
10
3.2834645669291
20
3.7401574803150002
10
3.2876232259254001
20
3.7085693291410005
10
3.2998157971759001
20
3.6791338582677002
10
3.3192113770993004
20
3.6538570463906006
10
3.3444881889764
20
3.6344614664673003
10
3.3739236598497002
20
3.6222688952167004
10
3.4055118110236005
20
3.6181102362204998
10
3.4370999621976006
20
3.6222688952167004
10
3.4665354330709004
20
3.6344614664673003
10
3.491812244948
20
3.6538570463906006
10
3.5112078248713003
20
3.6791338582677002
10
3.5234003961219007
20
3.7085693291410005
0
LWPOLYLINE
5
111
100
AcDbEntity
8
0
100
AcDbPolyline
90
24
70
1
43
0.0
10
6.9527559055118004
20
6.1023622047244004
10
6.9485972465156003
20
6.1339503558982988
10
6.9364046752649999
20
6.1633858267717017
10
6.9170090953417009
20
6.1886626386487995
10
6.8917322834646004
20
6.2080582185721003
10
6.8622968125912998
20
6.2202507898226997
10
6.8307086614172992
20
6.2244094488189017
10
6.7991205102434016
20
6.2202507898226997
10
6.7696850393700991
20
6.2080582185721003
10
6.7444082274930004
20
6.1886626386487995
10
6.7250126475695993
20
6.1633858267717017
10
6.7128200763190993
20
6.1339503558982988
10
6.7086614173228014
20
6.1023622047244004
10
6.7128200763190993
20
6.0707740535504993
10
6.7250126475695993
20
6.0413385826772004
10
6.7444082274930004
20
6.0160617708000999
10
6.7696850393700991
20
5.9966661908766996
10
6.7991205102434016
20
5.984473619626101
10
6.8307086614172992
20
5.9803149606299009
10
6.8622968125912998
20
5.984473619626101
10
6.8917322834646004
20
5.9966661908766996
10
6.9170090953417009
20
6.0160617708000999
10
6.9364046752649999
20
6.0413385826772004
10
6.9485972465156003
20
6.0707740535504993
0
LWPOLYLINE
5
112
100
AcDbEntity
8
0
100
AcDbPolyline
90
24
70
1
43
0.0
10
6.9527559055118004
20
3.7401574803150002
10
6.9485972465156003
20
3.7717456314889004
10
6.9364046752649999
20
3.8011811023622006
10
6.9170090953417009
20
3.8264579142393003
10
6.8917322834646004
20
3.8458534941627005
10
6.8622968125912998
20
3.8580460654132005
10
6.8307086614172992
20
3.8622047244094997
10
6.7991205102434016
20
3.8580460654132005
10
6.7696850393700991
20
3.8458534941627005
10
6.7444082274930004
20
3.8264579142393003
10
6.7250126475695993
20
3.8011811023622006
10
6.7128200763190993
20
3.7717456314889004
10
6.7086614173228014
20
3.7401574803150002
10
6.7128200763190993
20
3.7085693291410005
10
6.7250126475695993
20
3.6791338582677002
10
6.7444082274930004
20
3.6538570463906006
10
6.7696850393700991
20
3.6344614664673003
10
6.7991205102434016
20
3.6222688952167004
10
6.8307086614172992
20
3.6181102362204998
10
6.8622968125912998
20
3.6222688952167004
10
6.8917322834646004
20
3.6344614664673003
10
6.9170090953417009
20
3.6538570463906006
10
6.9364046752649999
20
3.6791338582677002
10
6.9485972465156003
20
3.7085693291410005
0
LWPOLYLINE
5
113
100
AcDbEntity
8
0
100
AcDbPolyline
90
4
70
1
43
0.0
10
10.8267716535433
20
9.0551181102362008
10
8.0314960629920993
20
6.8897637795276001
10
6.6929133858267997
20
6.8897637795276001
10
6.4960629921260002
20
8.6785347483739006
0
LWPOLYLINE
5
114
100
AcDbEntity
8
0
100
AcDbPolyline
90
4
70
1
43
0.0
10
8.0314960629920993
20
2.9527559055118004
10
10.8267716535433
20
0.78740157480319983
10
6.4960629921260002
20
1.1639849366655
10
6.6929133858267997
20
2.9527559055118004
0
LWPOLYLINE
5
115
100
AcDbEntity
8
0
100
AcDbPolyline
90
3
70
1
43
0.0
10
11.811023622047202
20
1.1811023622046999
10
11.811023622047202
20
2.9527559055118004
10
9.6305269533615991
20
2.9527559055118004
0
LWPOLYLINE
5
116
100
AcDbEntity
8
0
100
AcDbPolyline
90
3
70
1
43
0.0
10
11.811023622047202
20
8.6614173228346996
10
11.811023622047202
20
6.8897637795276001
10
9.6305269533615991
20
6.8897637795276001
0
LWPOLYLINE
5
117
100
AcDbEntity
8
0
100
AcDbPolyline
90
4
70
1
43
0.0
10
1.7716535433071003
20
9.0551181102362008
10
4.5669291338582996
20
6.8897637795276001
10
5.9055118110236009
20
6.8897637795276001
10
6.1023622047244004
20
8.6785347483739006
0
LWPOLYLINE
5
118
100
AcDbEntity
8
0
100
AcDbPolyline
90
3
70
1
43
0.0
10
0.78740157480319994
20
8.6614173228346996
10
2.5984251968504002
20
6.8897637795276001
10
0.78740157480319983
20
6.8897637795276001
0
LWPOLYLINE
5
119
100
AcDbEntity
8
0
100
AcDbPolyline
90
3
70
1
43
0.0
10
0.78740157480319994
20
1.1811023622046999
10
0.78740157480319994
20
2.9527559055118004
10
2.5984251968504002
20
2.9527559055118004
0
LWPOLYLINE
5
120
100
AcDbEntity
8
0
100
AcDbPolyline
90
4
70
1
43
0.0
10
1.7716535433071003
20
0.78740157480319994
10
4.5669291338582996
20
2.9527559055118004
10
5.9055118110236009
20
2.9527559055118004
10
6.1023622047244004
20
1.1639849366655
0
LWPOLYLINE
5
121
100
AcDbEntity
8
0
100
AcDbPolyline
90
4
70
1
43
0.0
10
1.5748031496063
20
5.7086614173228014
10
11.0236220472441
20
5.7086614173228014
10
11.0236220472441
20
4.1338582677165006
10
1.5748031496063
20
4.1338582677165006
0
ENDSEC
0
SECTION
2
OBJECTS
0
DICTIONARY
5
C
100
AcDbDictionary
3
ACAD_GROUP
350
D
3
ACAD_MLINESTYLE
350
17
0
DICTIONARY
5
D
100
AcDbDictionary
0
DICTIONARY
5
1A
330
C
100
AcDbDictionary
0
DICTIONARY
5
17
100
AcDbDictionary
0
ENDSEC
0
EOF
