 0
SECTION
 2
ENTITIES
  0
POLYLINE
 8
Layer0
 66
     1
70
    8
 10
0.0
 20
 0.0
 30
0.0
  0
VERTEX
  8
MY3DLAYER
10
10.9173228346457
20
7.28346456692913
30
0.0
 70
     32
  0
VERTEX
  8
MY3DLAYER
10
10.9173228346457
20
6.49606299212598
30
0.0
 70
     32
  0
VERTEX
  8
MY3DLAYER
10
9.53937007874016
20
6.49606299212598
30
0.0
 70
     32
  0
VERTEX
  8
MY3DLAYER
10
9.50502410443675
20
6.49531356030067
30
0.0
 70
     32
  0
VERTEX
  8
MY3DLAYER
10
9.47074350964752
20
6.49306669141082
30
0.0
 70
     32
  0
VERTEX
  8
MY3DLAYER
10
9.43659354943304
20
6.48932666249906
30
0.0
 70
     32
  0
VERTEX
  8
MY3DLAYER
10
9.40263923018352
20
6.48410059292299
30
0.0
 70
     32
  0
VERTEX
  8
MY3DLAYER
10
9.36894518587551
20
6.47739843080309
30
0.0
 70
     32
  0
VERTEX
  8
MY3DLAYER
10
9.33557555503739
20
6.46923293408587
30
0.0
 70
     32
  0
VERTEX
  8
MY3DLAYER
10
9.30259385865806
20
6.45961964625844
30
0.0
 70
     32
  0
VERTEX
  8
MY3DLAYER
10
9.27006287927113
20
6.44857686676055
30
0.0
 70
     32
  0
VERTEX
  8
MY3DLAYER
10
9.23804454144482
20
6.43612561615061
30
0.0
 70
     32
  0
VERTEX
  8
MY3DLAYER
10
9.20659979390497
20
6.42228959609184
30
0.0
 70
     32
  0
VERTEX
  8
MY3DLAYER
10
9.17578849351573
20
6.40709514423481
30
0.0
 70
     32
  0
VERTEX
  8
MY3DLAYER
10
9.14566929133859
20
6.39057118408223
30
0.0
 70
     32
  0
VERTEX
  8
MY3DLAYER
10
9.11629952098676
20
6.3727491699314
30
0.0
 70
     32
  0
VERTEX
  8
MY3DLAYER
10
9.08773508948737
20
6.3536630269992
30
0.0
 70
     32
  0
VERTEX
  8
MY3DLAYER
10
9.06003037085928
20
6.33334908684348
30
0.0
 70
     32
  0
VERTEX
  8
MY3DLAYER
10
9.03323810260903
20
6.31184601820391
30
0.0
 70
     32
  0
VERTEX
  8
MY3DLAYER
10
9.00740928534201
20
6.28919475339379
30
0.0
 70
     32
  0
VERTEX
  8
MY3DLAYER
10
8.98259308567989
20
6.2654384103831
30
0.0
 70
     32
  0
VERTEX
  8
MY3DLAYER
10
8.9588367426692
20
6.24062221072098
30
0.0
 70
     32
  0
VERTEX
  8
MY3DLAYER
10
8.93618547785908
20
6.21479339345396
30
0.0
 70
     32
  0
VERTEX
  8
MY3DLAYER
10
8.91468240921951
20
6.18800112520371
30
0.0
 70
     32
  0
VERTEX
  8
MY3DLAYER
10
8.89436846906379
20
6.16029640657562
30
0.0
 70
     32
  0
VERTEX
  8
MY3DLAYER
10
8.87528232613159
20
6.13173197507623
30
0.0
 70
     32
  0
VERTEX
  8
MY3DLAYER
10
8.85746031198076
20
6.1023622047244
30
0.0
 70
     32
  0
VERTEX
  8
MY3DLAYER
10
8.84093635182818
20
6.07224300254726
30
0.0
 70
     32
  0
VERTEX
  8
MY3DLAYER
10
8.82574189997115
20
6.04143170215802
30
0.0
 70
     32
  0
VERTEX
  8
MY3DLAYER
10
8.81190587991238
20
6.00998695461817
30
0.0
 70
     32
  0
VERTEX
  8
MY3DLAYER
10
8.79945462930244
20
5.97796861679186
30
0.0
 70
     32
  0
VERTEX
  8
MY3DLAYER
10
8.78841184980455
20
5.94543763740493
30
0.0
 70
     32
  0
VERTEX
  8
MY3DLAYER
10
8.77879856197712
20
5.9124559410256
30
0.0
 70
     32
  0
VERTEX
  8
MY3DLAYER
10
8.7706330652599
20
5.87908631018747
30
0.0
 70
     32
  0
VERTEX
  8
MY3DLAYER
10
8.76393090314
20
5.84539226587946
30
0.0
 70
     32
  0
VERTEX
  8
MY3DLAYER
10
8.75870483356393
20
5.81143794662995
30
0.0
 70
     32
  0
VERTEX
  8
MY3DLAYER
10
8.75496480465217
20
5.77728798641547
30
0.0
 70
     32
  0
VERTEX
  8
MY3DLAYER
10
8.75271793576232
20
5.74300739162624
30
0.0
 70
     32
  0
VERTEX
  8
MY3DLAYER
10
8.75196850393701
20
5.70866141732283
30
0.0
 70
     32
  0
VERTEX
  8
MY3DLAYER
10
8.75196850393701
20
1.5748031496063
30
0.0
 70
     32
  0
VERTEX
  8
MY3DLAYER
10
8.75271793576232
20
1.54045717530288
30
0.0
 70
     32
  0
VERTEX
  8
MY3DLAYER
10
8.75496480465217
20
1.50617658051365
30
0.0
 70
     32
  0
VERTEX
  8
MY3DLAYER
10
8.75870483356393
20
1.47202662029917
30
0.0
 70
     32
  0
VERTEX
  8
MY3DLAYER
10
8.76393090314
20
1.43807230104966
30
0.0
 70
     32
  0
VERTEX
  8
MY3DLAYER
10
8.7706330652599
20
1.40437825674165
30
0.0
 70
     32
  0
VERTEX
  8
MY3DLAYER
10
8.77879856197712
20
1.37100862590353
30
0.0
 70
     32
  0
VERTEX
  8
MY3DLAYER
10
8.78841184980455
20
1.33802692952419
30
0.0
 70
     32
  0
VERTEX
  8
MY3DLAYER
10
8.79945462930244
20
1.30549595013727
30
0.0
 70
     32
  0
VERTEX
  8
MY3DLAYER
10
8.81190587991238
20
1.27347761231095
30
0.0
 70
     32
  0
VERTEX
  8
MY3DLAYER
10
8.82574189997115
20
1.2420328647711
30
0.0
 70
     32
  0
VERTEX
  8
MY3DLAYER
10
8.84093635182818
20
1.21122156438186
30
0.0
 70
     32
  0
VERTEX
  8
MY3DLAYER
10
8.85746031198076
20
1.18110236220472
30
0.0
 70
     32
  0
VERTEX
  8
MY3DLAYER
10
8.87528232613159
20
1.15173259185289
30
0.0
 70
     32
  0
VERTEX
  8
MY3DLAYER
10
8.89436846906379
20
1.12316816035351
30
0.0
 70
     32
  0
VERTEX
  8
MY3DLAYER
10
8.91468240921951
20
1.09546344172542
30
0.0
 70
     32
  0
VERTEX
  8
MY3DLAYER
10
8.93618547785908
20
1.06867117347517
30
0.0
 70
     32
  0
VERTEX
  8
MY3DLAYER
10
8.9588367426692
20
1.04284235620814
30
0.0
 70
     32
  0
VERTEX
  8
MY3DLAYER
10
8.98259308567989
20
1.01802615654603
30
0.0
 70
     32
  0
VERTEX
  8
MY3DLAYER
10
9.00740928534201
20
0.994269813535336
30
0.0
 70
     32
  0
VERTEX
  8
MY3DLAYER
10
9.03323810260903
20
0.971618548725214
30
0.0
 70
     32
  0
VERTEX
  8
MY3DLAYER
10
9.06003037085928
20
0.950115480085642
30
0.0
 70
     32
  0
VERTEX
  8
MY3DLAYER
10
9.08773508948737
20
0.929801539929928
30
0.0
 70
     32
  0
VERTEX
  8
MY3DLAYER
10
9.11629952098676
20
0.910715396997728
30
0.0
 70
     32
  0
VERTEX
  8
MY3DLAYER
10
9.14566929133859
20
0.892893382846899
30
0.0
 70
     32
  0
VERTEX
  8
MY3DLAYER
10
9.17578849351573
20
0.876369422694314
30
0.0
 70
     32
  0
VERTEX
  8
MY3DLAYER
10
9.20659979390497
20
0.861174970837284
30
0.0
 70
     32
  0
VERTEX
  8
MY3DLAYER
10
9.23804454144482
20
0.847338950778515
30
0.0
 70
     32
  0
VERTEX
  8
MY3DLAYER
10
9.27006287927113
20
0.834887700168576
30
0.0
 70
     32
  0
VERTEX
  8
MY3DLAYER
10
9.30259385865806
20
0.823844920670688
30
0.0
 70
     32
  0
VERTEX
  8
MY3DLAYER
10
9.33557555503739
20
0.814231632843254
30
0.0
 70
     32
  0
VERTEX
  8
MY3DLAYER
10
9.36894518587551
20
0.806066136126037
30
0.0
 70
     32
  0
VERTEX
  8
MY3DLAYER
10
9.40263923018352
20
0.799363974006136
30
0.0
 70
     32
  0
VERTEX
  8
MY3DLAYER
10
9.43659354943303
20
0.794137904430071
30
0.0
 70
     32
  0
VERTEX
  8
MY3DLAYER
10
9.47074350964752
20
0.790397875518311
30
0.0
 70
     32
  0
VERTEX
  8
MY3DLAYER
10
9.50502410443675
20
0.788151006628459
30
0.0
 70
     32
  0
VERTEX
  8
MY3DLAYER
10
9.53937007874016
20
0.78740157480315
30
0.0
 70
     32
  0
VERTEX
  8
MY3DLAYER
10
10.9173228346457
20
0.78740157480315
30
0.0
 70
     32
  0
VERTEX
  8
MY3DLAYER
10
10.9173228346457
20
0.0
30
0.0
 70
     32
  0
VERTEX
  8
MY3DLAYER
10
7.96456692913386
20
0.0
30
0.0
 70
     32
  0
VERTEX
  8
MY3DLAYER
10
7.96456692913386
20
7.28346456692913
30
0.0
 70
     32
  0
VERTEX
  8
MY3DLAYER
10
10.9173228346457
20
7.28346456692913
30
0.0
 70
     32
  0
SEQEND
  0
POLYLINE
 8
Layer0
 66
     1
70
    8
 10
0.0
 20
 0.0
 30
0.0
  0
VERTEX
  8
MY3DLAYER
10
8.45669291338584
20
6.88976377952755
30
0.0
 70
     32
  0
VERTEX
  8
MY3DLAYER
10
8.45648217748412
20
6.89620109539666
30
0.0
 70
     32
  0
VERTEX
  8
MY3DLAYER
10
8.45585087218246
20
6.90261084569094
30
0.0
 70
     32
  0
VERTEX
  8
MY3DLAYER
10
8.45480170082709
20
6.9089655828756
30
0.0
 70
     32
  0
VERTEX
  8
MY3DLAYER
10
8.45333915613082
20
6.9152380949904
30
0.0
 70
     32
  0
VERTEX
  8
MY3DLAYER
10
8.45146950093456
20
6.9214015221755
30
0.0
 70
     32
  0
VERTEX
  8
MY3DLAYER
10
8.44920074138891
20
6.92742947168947
30
0.0
 70
     32
  0
VERTEX
  8
MY3DLAYER
10
8.44654259267054
20
6.93329613092706
30
0.0
 70
     32
  0
VERTEX
  8
MY3DLAYER
10
8.44350643738036
20
6.93897637795275
30
0.0
 70
     32
  0
VERTEX
  8
MY3DLAYER
10
8.44010527680144
20
6.94444588907673
30
0.0
 70
     32
  0
VERTEX
  8
MY3DLAYER
10
8.43635367522552
20
6.94968124301266
30
0.0
 70
     32
  0
VERTEX
  8
MY3DLAYER
10
8.43226769758652
20
6.95466002117126
30
0.0
 70
     32
  0
VERTEX
  8
MY3DLAYER
10
8.42786484066797
20
6.95936090366009
30
0.0
 70
     32
  0
VERTEX
  8
MY3DLAYER
10
8.42316395817914
20
6.96376376057863
30
0.0
 70
     32
  0
VERTEX
  8
MY3DLAYER
10
8.41818518002055
20
6.96784973821763
30
0.0
 70
     32
  0
VERTEX
  8
MY3DLAYER
10
8.41294982608461
20
6.97160133979355
30
0.0
 70
     32
  0
VERTEX
  8
MY3DLAYER
10
8.40748031496063
20
6.97500250037248
30
0.0
 70
     32
  0
VERTEX
  8
MY3DLAYER
10
8.40180006793494
20
6.97803865566266
30
0.0
 70
     32
  0
VERTEX
  8
MY3DLAYER
10
8.39593340869735
20
6.98069680438102
30
0.0
 70
     32
  0
VERTEX
  8
MY3DLAYER
10
8.38990545918339
20
6.98296556392668
30
0.0
 70
     32
  0
VERTEX
  8
MY3DLAYER
10
8.38374203199828
20
6.98483521912293
30
0.0
 70
     32
  0
VERTEX
  8
MY3DLAYER
10
8.37746951988348
20
6.98629776381921
30
0.0
 70
     32
  0
VERTEX
  8
MY3DLAYER
10
8.37111478269883
20
6.98734693517458
30
0.0
 70
     32
  0
VERTEX
  8
MY3DLAYER
10
8.36470503240455
20
6.98797824047623
30
0.0
 70
     32
  0
VERTEX
  8
MY3DLAYER
10
8.35826771653544
20
6.98818897637794
30
0.0
 70
     32
  0
VERTEX
  8
MY3DLAYER
10
8.35183040066633
20
6.98797824047623
30
0.0
 70
     32
  0
VERTEX
  8
MY3DLAYER
10
8.34542065037205
20
6.98734693517458
30
0.0
 70
     32
  0
VERTEX
  8
MY3DLAYER
10
8.33906591318739
20
6.98629776381921
30
0.0
 70
     32
  0
VERTEX
  8
MY3DLAYER
10
8.33279340107259
20
6.98483521912293
30
0.0
 70
     32
  0
VERTEX
  8
MY3DLAYER
10
8.32662997388749
20
6.98296556392668
30
0.0
 70
     32
  0
VERTEX
  8
MY3DLAYER
10
8.32060202437352
20
6.98069680438102
30
0.0
 70
     32
  0
VERTEX
  8
MY3DLAYER
10
8.31473536513593
20
6.97803865566266
30
0.0
 70
     32
  0
VERTEX
  8
MY3DLAYER
10
8.30905511811024
20
6.97500250037248
30
0.0
 70
     32
  0
VERTEX
  8
MY3DLAYER
10
8.30358560698626
20
6.97160133979355
30
0.0
 70
     32
  0
VERTEX
  8
MY3DLAYER
10
8.29835025305033
20
6.96784973821763
30
0.0
 70
     32
  0
VERTEX
  8
MY3DLAYER
10
8.29337147489173
20
6.96376376057863
30
0.0
 70
     32
  0
VERTEX
  8
MY3DLAYER
10
8.2886705924029
20
6.95936090366009
30
0.0
 70
     32
  0
VERTEX
  8
MY3DLAYER
10
8.28426773548436
20
6.95466002117126
30
0.0
 70
     32
  0
VERTEX
  8
MY3DLAYER
10
8.28018175784536
20
6.94968124301266
30
0.0
 70
     32
  0
VERTEX
  8
MY3DLAYER
10
8.27643015626944
20
6.94444588907673
30
0.0
 70
     32
  0
VERTEX
  8
MY3DLAYER
10
8.27302899569051
20
6.93897637795275
30
0.0
 70
     32
  0
VERTEX
  8
MY3DLAYER
10
8.26999284040033
20
6.93329613092706
30
0.0
 70
     32
  0
VERTEX
  8
MY3DLAYER
10
8.26733469168196
20
6.92742947168947
30
0.0
 70
     32
  0
VERTEX
  8
MY3DLAYER
10
8.26506593213631
20
6.9214015221755
30
0.0
 70
     32
  0
VERTEX
  8
MY3DLAYER
10
8.26319627694006
20
6.9152380949904
30
0.0
 70
     32
  0
VERTEX
  8
MY3DLAYER
10
8.26173373224378
20
6.9089655828756
30
0.0
 70
     32
  0
VERTEX
  8
MY3DLAYER
10
8.26068456088841
20
6.90261084569094
30
0.0
 70
     32
  0
VERTEX
  8
MY3DLAYER
10
8.26005325558676
20
6.89620109539666
30
0.0
 70
     32
  0
VERTEX
  8
MY3DLAYER
10
8.25984251968504
20
6.88976377952755
30
0.0
 70
     32
  0
VERTEX
  8
MY3DLAYER
10
8.26005325558676
20
6.88332646365844
30
0.0
 70
     32
  0
VERTEX
  8
MY3DLAYER
10
8.26068456088841
20
6.87691671336416
30
0.0
 70
     32
  0
VERTEX
  8
MY3DLAYER
10
8.26173373224378
20
6.87056197617951
30
0.0
 70
     32
  0
VERTEX
  8
MY3DLAYER
10
8.26319627694006
20
6.86428946406471
30
0.0
 70
     32
  0
VERTEX
  8
MY3DLAYER
10
8.26506593213631
20
6.8581260368796
30
0.0
 70
     32
  0
VERTEX
  8
MY3DLAYER
10
8.26733469168196
20
6.85209808736563
30
0.0
 70
     32
  0
VERTEX
  8
MY3DLAYER
10
8.26999284040033
20
6.84623142812804
30
0.0
 70
     32
  0
VERTEX
  8
MY3DLAYER
10
8.27302899569051
20
6.84055118110235
30
0.0
 70
     32
  0
VERTEX
  8
MY3DLAYER
10
8.27643015626944
20
6.83508166997838
30
0.0
 70
     32
  0
VERTEX
  8
MY3DLAYER
10
8.28018175784536
20
6.82984631604244
30
0.0
 70
     32
  0
VERTEX
  8
MY3DLAYER
10
8.28426773548436
20
6.82486753788384
30
0.0
 70
     32
  0
VERTEX
  8
MY3DLAYER
10
8.2886705924029
20
6.82016665539502
30
0.0
 70
     32
  0
VERTEX
  8
MY3DLAYER
10
8.29337147489173
20
6.81576379847647
30
0.0
 70
     32
  0
VERTEX
  8
MY3DLAYER
10
8.29835025305033
20
6.81167782083747
30
0.0
 70
     32
  0
VERTEX
  8
MY3DLAYER
10
8.30358560698626
20
6.80792621926155
30
0.0
 70
     32
  0
VERTEX
  8
MY3DLAYER
10
8.30905511811024
20
6.80452505868263
30
0.0
 70
     32
  0
VERTEX
  8
MY3DLAYER
10
8.31473536513593
20
6.80148890339244
30
0.0
 70
     32
  0
VERTEX
  8
MY3DLAYER
10
8.32060202437352
20
6.79883075467408
30
0.0
 70
     32
  0
VERTEX
  8
MY3DLAYER
10
8.32662997388749
20
6.79656199512843
30
0.0
 70
     32
  0
VERTEX
  8
MY3DLAYER
10
8.33279340107259
20
6.79469233993217
30
0.0
 70
     32
  0
VERTEX
  8
MY3DLAYER
10
8.33906591318739
20
6.7932297952359
30
0.0
 70
     32
  0
VERTEX
  8
MY3DLAYER
10
8.34542065037205
20
6.79218062388052
30
0.0
 70
     32
  0
VERTEX
  8
MY3DLAYER
10
8.35183040066633
20
6.79154931857887
30
0.0
 70
     32
  0
VERTEX
  8
MY3DLAYER
10
8.35826771653544
20
6.79133858267716
30
0.0
 70
     32
  0
VERTEX
  8
MY3DLAYER
10
8.36470503240455
20
6.79154931857887
30
0.0
 70
     32
  0
VERTEX
  8
MY3DLAYER
10
8.37111478269883
20
6.79218062388052
30
0.0
 70
     32
  0
VERTEX
  8
MY3DLAYER
10
8.37746951988348
20
6.7932297952359
30
0.0
 70
     32
  0
VERTEX
  8
MY3DLAYER
10
8.38374203199828
20
6.79469233993217
30
0.0
 70
     32
  0
VERTEX
  8
MY3DLAYER
10
8.38990545918339
20
6.79656199512843
30
0.0
 70
     32
  0
VERTEX
  8
MY3DLAYER
10
8.39593340869736
20
6.79883075467408
30
0.0
 70
     32
  0
VERTEX
  8
MY3DLAYER
10
8.40180006793494
20
6.80148890339244
30
0.0
 70
     32
  0
VERTEX
  8
MY3DLAYER
10
8.40748031496063
20
6.80452505868263
30
0.0
 70
     32
  0
VERTEX
  8
MY3DLAYER
10
8.41294982608461
20
6.80792621926155
30
0.0
 70
     32
  0
VERTEX
  8
MY3DLAYER
10
8.41818518002055
20
6.81167782083747
30
0.0
 70
     32
  0
VERTEX
  8
MY3DLAYER
10
8.42316395817915
20
6.81576379847647
30
0.0
 70
     32
  0
VERTEX
  8
MY3DLAYER
10
8.42786484066797
20
6.82016665539502
30
0.0
 70
     32
  0
VERTEX
  8
MY3DLAYER
10
8.43226769758652
20
6.82486753788384
30
0.0
 70
     32
  0
VERTEX
  8
MY3DLAYER
10
8.43635367522552
20
6.82984631604244
30
0.0
 70
     32
  0
VERTEX
  8
MY3DLAYER
10
8.44010527680144
20
6.83508166997838
30
0.0
 70
     32
  0
VERTEX
  8
MY3DLAYER
10
8.44350643738036
20
6.84055118110235
30
0.0
 70
     32
  0
VERTEX
  8
MY3DLAYER
10
8.44654259267054
20
6.84623142812804
30
0.0
 70
     32
  0
VERTEX
  8
MY3DLAYER
10
8.44920074138891
20
6.85209808736563
30
0.0
 70
     32
  0
VERTEX
  8
MY3DLAYER
10
8.45146950093456
20
6.8581260368796
30
0.0
 70
     32
  0
VERTEX
  8
MY3DLAYER
10
8.45333915613082
20
6.86428946406471
30
0.0
 70
     32
  0
VERTEX
  8
MY3DLAYER
10
8.45480170082709
20
6.87056197617951
30
0.0
 70
     32
  0
VERTEX
  8
MY3DLAYER
10
8.45585087218246
20
6.87691671336416
30
0.0
 70
     32
  0
VERTEX
  8
MY3DLAYER
10
8.45648217748412
20
6.88332646365844
30
0.0
 70
     32
  0
VERTEX
  8
MY3DLAYER
10
8.45669291338584
20
6.88976377952755
30
0.0
 70
     32
  0
SEQEND
  0
POLYLINE
 8
Layer0
 66
     1
70
    8
 10
0.0
 20
 0.0
 30
0.0
  0
VERTEX
  8
MY3DLAYER
10
8.45669291338584
20
0.393700787401575
30
0.0
 70
     32
  0
VERTEX
  8
MY3DLAYER
10
8.45648217748412
20
0.400138103270683
30
0.0
 70
     32
  0
VERTEX
  8
MY3DLAYER
10
8.45585087218246
20
0.406547853564966
30
0.0
 70
     32
  0
VERTEX
  8
MY3DLAYER
10
8.45480170082709
20
0.412902590749619
30
0.0
 70
     32
  0
VERTEX
  8
MY3DLAYER
10
8.45333915613082
20
0.419175102864421
30
0.0
 70
     32
  0
VERTEX
  8
MY3DLAYER
10
8.45146950093456
20
0.425338530049524
30
0.0
 70
     32
  0
VERTEX
  8
MY3DLAYER
10
8.44920074138891
20
0.431366479563493
30
0.0
 70
     32
  0
VERTEX
  8
MY3DLAYER
10
8.44654259267054
20
0.437233138801083
30
0.0
 70
     32
  0
VERTEX
  8
MY3DLAYER
10
8.44350643738036
20
0.442913385826772
30
0.0
 70
     32
  0
VERTEX
  8
MY3DLAYER
10
8.44010527680144
20
0.448382896950748
30
0.0
 70
     32
  0
VERTEX
  8
MY3DLAYER
10
8.43635367522552
20
0.453618250886685
30
0.0
 70
     32
  0
VERTEX
  8
MY3DLAYER
10
8.43226769758652
20
0.458597029045282
30
0.0
 70
     32
  0
VERTEX
  8
MY3DLAYER
10
8.42786484066797
20
0.463297911534109
30
0.0
 70
     32
  0
VERTEX
  8
MY3DLAYER
10
8.42316395817914
20
0.467700768452655
30
0.0
 70
     32
  0
VERTEX
  8
MY3DLAYER
10
8.41818518002055
20
0.471786746091657
30
0.0
 70
     32
  0
VERTEX
  8
MY3DLAYER
10
8.41294982608461
20
0.475538347667573
30
0.0
 70
     32
  0
VERTEX
  8
MY3DLAYER
10
8.40748031496063
20
0.4789395082465
30
0.0
 70
     32
  0
VERTEX
  8
MY3DLAYER
10
8.40180006793494
20
0.481975663536682
30
0.0
 70
     32
  0
VERTEX
  8
MY3DLAYER
10
8.39593340869735
20
0.484633812255048
30
0.0
 70
     32
  0
VERTEX
  8
MY3DLAYER
10
8.38990545918339
20
0.486902571800699
30
0.0
 70
     32
  0
VERTEX
  8
MY3DLAYER
10
8.38374203199828
20
0.488772226996956
30
0.0
 70
     32
  0
VERTEX
  8
MY3DLAYER
10
8.37746951988348
20
0.490234771693231
30
0.0
 70
     32
  0
VERTEX
  8
MY3DLAYER
10
8.37111478269883
20
0.491283943048603
30
0.0
 70
     32
  0
VERTEX
  8
MY3DLAYER
10
8.36470503240455
20
0.491915248350256
30
0.0
 70
     32
  0
VERTEX
  8
MY3DLAYER
10
8.35826771653544
20
0.492125984251969
30
0.0
 70
     32
  0
VERTEX
  8
MY3DLAYER
10
8.35183040066633
20
0.491915248350256
30
0.0
 70
     32
  0
VERTEX
  8
MY3DLAYER
10
8.34542065037205
20
0.491283943048603
30
0.0
 70
     32
  0
VERTEX
  8
MY3DLAYER
10
8.33906591318739
20
0.490234771693231
30
0.0
 70
     32
  0
VERTEX
  8
MY3DLAYER
10
8.33279340107259
20
0.488772226996956
30
0.0
 70
     32
  0
VERTEX
  8
MY3DLAYER
10
8.32662997388749
20
0.486902571800699
30
0.0
 70
     32
  0
VERTEX
  8
MY3DLAYER
10
8.32060202437352
20
0.484633812255048
30
0.0
 70
     32
  0
VERTEX
  8
MY3DLAYER
10
8.31473536513593
20
0.481975663536682
30
0.0
 70
     32
  0
VERTEX
  8
MY3DLAYER
10
8.30905511811024
20
0.4789395082465
30
0.0
 70
     32
  0
VERTEX
  8
MY3DLAYER
10
8.30358560698626
20
0.475538347667573
30
0.0
 70
     32
  0
VERTEX
  8
MY3DLAYER
10
8.29835025305033
20
0.471786746091657
30
0.0
 70
     32
  0
VERTEX
  8
MY3DLAYER
10
8.29337147489173
20
0.467700768452655
30
0.0
 70
     32
  0
VERTEX
  8
MY3DLAYER
10
8.2886705924029
20
0.463297911534109
30
0.0
 70
     32
  0
VERTEX
  8
MY3DLAYER
10
8.28426773548436
20
0.458597029045283
30
0.0
 70
     32
  0
VERTEX
  8
MY3DLAYER
10
8.28018175784536
20
0.453618250886685
30
0.0
 70
     32
  0
VERTEX
  8
MY3DLAYER
10
8.27643015626944
20
0.448382896950748
30
0.0
 70
     32
  0
VERTEX
  8
MY3DLAYER
10
8.27302899569051
20
0.442913385826772
30
0.0
 70
     32
  0
VERTEX
  8
MY3DLAYER
10
8.26999284040033
20
0.437233138801083
30
0.0
 70
     32
  0
VERTEX
  8
MY3DLAYER
10
8.26733469168196
20
0.431366479563493
30
0.0
 70
     32
  0
VERTEX
  8
MY3DLAYER
10
8.26506593213631
20
0.425338530049524
30
0.0
 70
     32
  0
VERTEX
  8
MY3DLAYER
10
8.26319627694006
20
0.419175102864422
30
0.0
 70
     32
  0
VERTEX
  8
MY3DLAYER
10
8.26173373224378
20
0.412902590749619
30
0.0
 70
     32
  0
VERTEX
  8
MY3DLAYER
10
8.26068456088841
20
0.406547853564966
30
0.0
 70
     32
  0
VERTEX
  8
MY3DLAYER
10
8.26005325558676
20
0.400138103270684
30
0.0
 70
     32
  0
VERTEX
  8
MY3DLAYER
10
8.25984251968504
20
0.393700787401575
30
0.0
 70
     32
  0
VERTEX
  8
MY3DLAYER
10
8.26005325558676
20
0.387263471532467
30
0.0
 70
     32
  0
VERTEX
  8
MY3DLAYER
10
8.26068456088841
20
0.380853721238184
30
0.0
 70
     32
  0
VERTEX
  8
MY3DLAYER
10
8.26173373224378
20
0.374498984053531
30
0.0
 70
     32
  0
VERTEX
  8
MY3DLAYER
10
8.26319627694006
20
0.368226471938729
30
0.0
 70
     32
  0
VERTEX
  8
MY3DLAYER
10
8.26506593213631
20
0.362063044753626
30
0.0
 70
     32
  0
VERTEX
  8
MY3DLAYER
10
8.26733469168196
20
0.356035095239657
30
0.0
 70
     32
  0
VERTEX
  8
MY3DLAYER
10
8.26999284040033
20
0.350168436002067
30
0.0
 70
     32
  0
VERTEX
  8
MY3DLAYER
10
8.27302899569051
20
0.344488188976378
30
0.0
 70
     32
  0
VERTEX
  8
MY3DLAYER
10
8.27643015626944
20
0.339018677852402
30
0.0
 70
     32
  0
VERTEX
  8
MY3DLAYER
10
8.28018175784536
20
0.333783323916465
30
0.0
 70
     32
  0
VERTEX
  8
MY3DLAYER
10
8.28426773548436
20
0.328804545757868
30
0.0
 70
     32
  0
VERTEX
  8
MY3DLAYER
10
8.2886705924029
20
0.324103663269041
30
0.0
 70
     32
  0
VERTEX
  8
MY3DLAYER
10
8.29337147489173
20
0.319700806350495
30
0.0
 70
     32
  0
VERTEX
  8
MY3DLAYER
10
8.29835025305033
20
0.315614828711493
30
0.0
 70
     32
  0
VERTEX
  8
MY3DLAYER
10
8.30358560698626
20
0.311863227135577
30
0.0
 70
     32
  0
VERTEX
  8
MY3DLAYER
10
8.30905511811024
20
0.30846206655665
30
0.0
 70
     32
  0
VERTEX
  8
MY3DLAYER
10
8.31473536513593
20
0.305425911266468
30
0.0
 70
     32
  0
VERTEX
  8
MY3DLAYER
10
8.32060202437352
20
0.302767762548102
30
0.0
 70
     32
  0
VERTEX
  8
MY3DLAYER
10
8.32662997388749
20
0.30049900300245
30
0.0
 70
     32
  0
VERTEX
  8
MY3DLAYER
10
8.33279340107259
20
0.298629347806194
30
0.0
 70
     32
  0
VERTEX
  8
MY3DLAYER
10
8.33906591318739
20
0.297166803109918
30
0.0
 70
     32
  0
VERTEX
  8
MY3DLAYER
10
8.34542065037205
20
0.296117631754546
30
0.0
 70
     32
  0
VERTEX
  8
MY3DLAYER
10
8.35183040066633
20
0.295486326452893
30
0.0
 70
     32
  0
VERTEX
  8
MY3DLAYER
10
8.35826771653544
20
0.295275590551181
30
0.0
 70
     32
  0
VERTEX
  8
MY3DLAYER
10
8.36470503240455
20
0.295486326452893
30
0.0
 70
     32
  0
VERTEX
  8
MY3DLAYER
10
8.37111478269883
20
0.296117631754546
30
0.0
 70
     32
  0
VERTEX
  8
MY3DLAYER
10
8.37746951988348
20
0.297166803109918
30
0.0
 70
     32
  0
VERTEX
  8
MY3DLAYER
10
8.38374203199828
20
0.298629347806194
30
0.0
 70
     32
  0
VERTEX
  8
MY3DLAYER
10
8.38990545918339
20
0.30049900300245
30
0.0
 70
     32
  0
VERTEX
  8
MY3DLAYER
10
8.39593340869736
20
0.302767762548102
30
0.0
 70
     32
  0
VERTEX
  8
MY3DLAYER
10
8.40180006793494
20
0.305425911266468
30
0.0
 70
     32
  0
VERTEX
  8
MY3DLAYER
10
8.40748031496063
20
0.30846206655665
30
0.0
 70
     32
  0
VERTEX
  8
MY3DLAYER
10
8.41294982608461
20
0.311863227135577
30
0.0
 70
     32
  0
VERTEX
  8
MY3DLAYER
10
8.41818518002055
20
0.315614828711493
30
0.0
 70
     32
  0
VERTEX
  8
MY3DLAYER
10
8.42316395817915
20
0.319700806350495
30
0.0
 70
     32
  0
VERTEX
  8
MY3DLAYER
10
8.42786484066797
20
0.324103663269041
30
0.0
 70
     32
  0
VERTEX
  8
MY3DLAYER
10
8.43226769758652
20
0.328804545757868
30
0.0
 70
     32
  0
VERTEX
  8
MY3DLAYER
10
8.43635367522552
20
0.333783323916465
30
0.0
 70
     32
  0
VERTEX
  8
MY3DLAYER
10
8.44010527680144
20
0.339018677852402
30
0.0
 70
     32
  0
VERTEX
  8
MY3DLAYER
10
8.44350643738036
20
0.344488188976379
30
0.0
 70
     32
  0
VERTEX
  8
MY3DLAYER
10
8.44654259267054
20
0.350168436002067
30
0.0
 70
     32
  0
VERTEX
  8
MY3DLAYER
10
8.44920074138891
20
0.356035095239657
30
0.0
 70
     32
  0
VERTEX
  8
MY3DLAYER
10
8.45146950093456
20
0.362063044753627
30
0.0
 70
     32
  0
VERTEX
  8
MY3DLAYER
10
8.45333915613082
20
0.368226471938729
30
0.0
 70
     32
  0
VERTEX
  8
MY3DLAYER
10
8.45480170082709
20
0.374498984053532
30
0.0
 70
     32
  0
VERTEX
  8
MY3DLAYER
10
8.45585087218246
20
0.380853721238185
30
0.0
 70
     32
  0
VERTEX
  8
MY3DLAYER
10
8.45648217748412
20
0.387263471532467
30
0.0
 70
     32
  0
VERTEX
  8
MY3DLAYER
10
8.45669291338584
20
0.393700787401575
30
0.0
 70
     32
  0
SEQEND
  0
POLYLINE
 8
Layer0
 66
     1
70
    8
 10
0.0
 20
 0.0
 30
0.0
  0
VERTEX
  8
MY3DLAYER
10
8.45669291338584
20
1.18110236220472
30
0.0
 70
     32
  0
VERTEX
  8
MY3DLAYER
10
8.45648217748412
20
1.18753967807383
30
0.0
 70
     32
  0
VERTEX
  8
MY3DLAYER
10
8.45585087218246
20
1.19394942836812
30
0.0
 70
     32
  0
VERTEX
  8
MY3DLAYER
10
8.45480170082709
20
1.20030416555277
30
0.0
 70
     32
  0
VERTEX
  8
MY3DLAYER
10
8.45333915613082
20
1.20657667766757
30
0.0
 70
     32
  0
VERTEX
  8
MY3DLAYER
10
8.45146950093456
20
1.21274010485267
30
0.0
 70
     32
  0
VERTEX
  8
MY3DLAYER
10
8.44920074138891
20
1.21876805436664
30
0.0
 70
     32
  0
VERTEX
  8
MY3DLAYER
10
8.44654259267054
20
1.22463471360423
30
0.0
 70
     32
  0
VERTEX
  8
MY3DLAYER
10
8.44350643738036
20
1.23031496062992
30
0.0
 70
     32
  0
VERTEX
  8
MY3DLAYER
10
8.44010527680144
20
1.2357844717539
30
0.0
 70
     32
  0
VERTEX
  8
MY3DLAYER
10
8.43635367522552
20
1.24101982568983
30
0.0
 70
     32
  0
VERTEX
  8
MY3DLAYER
10
8.43226769758652
20
1.24599860384843
30
0.0
 70
     32
  0
VERTEX
  8
MY3DLAYER
10
8.42786484066797
20
1.25069948633726
30
0.0
 70
     32
  0
VERTEX
  8
MY3DLAYER
10
8.42316395817914
20
1.2551023432558
30
0.0
 70
     32
  0
VERTEX
  8
MY3DLAYER
10
8.41818518002055
20
1.25918832089481
30
0.0
 70
     32
  0
VERTEX
  8
MY3DLAYER
10
8.41294982608461
20
1.26293992247072
30
0.0
 70
     32
  0
VERTEX
  8
MY3DLAYER
10
8.40748031496063
20
1.26634108304965
30
0.0
 70
     32
  0
VERTEX
  8
MY3DLAYER
10
8.40180006793494
20
1.26937723833983
30
0.0
 70
     32
  0
VERTEX
  8
MY3DLAYER
10
8.39593340869735
20
1.2720353870582
30
0.0
 70
     32
  0
VERTEX
  8
MY3DLAYER
10
8.38990545918339
20
1.27430414660385
30
0.0
 70
     32
  0
VERTEX
  8
MY3DLAYER
10
8.38374203199828
20
1.27617380180011
30
0.0
 70
     32
  0
VERTEX
  8
MY3DLAYER
10
8.37746951988348
20
1.27763634649638
30
0.0
 70
     32
  0
VERTEX
  8
MY3DLAYER
10
8.37111478269883
20
1.27868551785175
30
0.0
 70
     32
  0
VERTEX
  8
MY3DLAYER
10
8.36470503240455
20
1.27931682315341
30
0.0
 70
     32
  0
VERTEX
  8
MY3DLAYER
10
8.35826771653544
20
1.27952755905512
30
0.0
 70
     32
  0
VERTEX
  8
MY3DLAYER
10
8.35183040066633
20
1.27931682315341
30
0.0
 70
     32
  0
VERTEX
  8
MY3DLAYER
10
8.34542065037205
20
1.27868551785175
30
0.0
 70
     32
  0
VERTEX
  8
MY3DLAYER
10
8.33906591318739
20
1.27763634649638
30
0.0
 70
     32
  0
VERTEX
  8
MY3DLAYER
10
8.33279340107259
20
1.27617380180011
30
0.0
 70
     32
  0
VERTEX
  8
MY3DLAYER
10
8.32662997388749
20
1.27430414660385
30
0.0
 70
     32
  0
VERTEX
  8
MY3DLAYER
10
8.32060202437352
20
1.2720353870582
30
0.0
 70
     32
  0
VERTEX
  8
MY3DLAYER
10
8.31473536513593
20
1.26937723833983
30
0.0
 70
     32
  0
VERTEX
  8
MY3DLAYER
10
8.30905511811024
20
1.26634108304965
30
0.0
 70
     32
  0
VERTEX
  8
MY3DLAYER
10
8.30358560698626
20
1.26293992247072
30
0.0
 70
     32
  0
VERTEX
  8
MY3DLAYER
10
8.29835025305033
20
1.25918832089481
30
0.0
 70
     32
  0
VERTEX
  8
MY3DLAYER
10
8.29337147489173
20
1.2551023432558
30
0.0
 70
     32
  0
VERTEX
  8
MY3DLAYER
10
8.2886705924029
20
1.25069948633726
30
0.0
 70
     32
  0
VERTEX
  8
MY3DLAYER
10
8.28426773548436
20
1.24599860384843
30
0.0
 70
     32
  0
VERTEX
  8
MY3DLAYER
10
8.28018175784536
20
1.24101982568983
30
0.0
 70
     32
  0
VERTEX
  8
MY3DLAYER
10
8.27643015626944
20
1.2357844717539
30
0.0
 70
     32
  0
VERTEX
  8
MY3DLAYER
10
8.27302899569051
20
1.23031496062992
30
0.0
 70
     32
  0
VERTEX
  8
MY3DLAYER
10
8.26999284040033
20
1.22463471360423
30
0.0
 70
     32
  0
VERTEX
  8
MY3DLAYER
10
8.26733469168196
20
1.21876805436664
30
0.0
 70
     32
  0
VERTEX
  8
MY3DLAYER
10
8.26506593213631
20
1.21274010485267
30
0.0
 70
     32
  0
VERTEX
  8
MY3DLAYER
10
8.26319627694006
20
1.20657667766757
30
0.0
 70
     32
  0
VERTEX
  8
MY3DLAYER
10
8.26173373224378
20
1.20030416555277
30
0.0
 70
     32
  0
VERTEX
  8
MY3DLAYER
10
8.26068456088841
20
1.19394942836812
30
0.0
 70
     32
  0
VERTEX
  8
MY3DLAYER
10
8.26005325558676
20
1.18753967807383
30
0.0
 70
     32
  0
VERTEX
  8
MY3DLAYER
10
8.25984251968504
20
1.18110236220472
30
0.0
 70
     32
  0
VERTEX
  8
MY3DLAYER
10
8.26005325558676
20
1.17466504633562
30
0.0
 70
     32
  0
VERTEX
  8
MY3DLAYER
10
8.26068456088841
20
1.16825529604133
30
0.0
 70
     32
  0
VERTEX
  8
MY3DLAYER
10
8.26173373224378
20
1.16190055885668
30
0.0
 70
     32
  0
VERTEX
  8
MY3DLAYER
10
8.26319627694006
20
1.15562804674188
30
0.0
 70
     32
  0
VERTEX
  8
MY3DLAYER
10
8.26506593213631
20
1.14946461955678
30
0.0
 70
     32
  0
VERTEX
  8
MY3DLAYER
10
8.26733469168196
20
1.14343667004281
30
0.0
 70
     32
  0
VERTEX
  8
MY3DLAYER
10
8.26999284040033
20
1.13757001080522
30
0.0
 70
     32
  0
VERTEX
  8
MY3DLAYER
10
8.27302899569051
20
1.13188976377953
30
0.0
 70
     32
  0
VERTEX
  8
MY3DLAYER
10
8.27643015626944
20
1.12642025265555
30
0.0
 70
     32
  0
VERTEX
  8
MY3DLAYER
10
8.28018175784536
20
1.12118489871961
30
0.0
 70
     32
  0
VERTEX
  8
MY3DLAYER
10
8.28426773548436
20
1.11620612056102
30
0.0
 70
     32
  0
VERTEX
  8
MY3DLAYER
10
8.2886705924029
20
1.11150523807219
30
0.0
 70
     32
  0
VERTEX
  8
MY3DLAYER
10
8.29337147489173
20
1.10710238115364
30
0.0
 70
     32
  0
VERTEX
  8
MY3DLAYER
10
8.29835025305033
20
1.10301640351464
30
0.0
 70
     32
  0
VERTEX
  8
MY3DLAYER
10
8.30358560698626
20
1.09926480193873
30
0.0
 70
     32
  0
VERTEX
  8
MY3DLAYER
10
8.30905511811024
20
1.0958636413598
30
0.0
 70
     32
  0
VERTEX
  8
MY3DLAYER
10
8.31473536513593
20
1.09282748606962
30
0.0
 70
     32
  0
VERTEX
  8
MY3DLAYER
10
8.32060202437352
20
1.09016933735125
30
0.0
 70
     32
  0
VERTEX
  8
MY3DLAYER
10
8.32662997388749
20
1.0879005778056
30
0.0
 70
     32
  0
VERTEX
  8
MY3DLAYER
10
8.33279340107259
20
1.08603092260934
30
0.0
 70
     32
  0
VERTEX
  8
MY3DLAYER
10
8.33906591318739
20
1.08456837791307
30
0.0
 70
     32
  0
VERTEX
  8
MY3DLAYER
10
8.34542065037205
20
1.0835192065577
30
0.0
 70
     32
  0
VERTEX
  8
MY3DLAYER
10
8.35183040066633
20
1.08288790125604
30
0.0
 70
     32
  0
VERTEX
  8
MY3DLAYER
10
8.35826771653544
20
1.08267716535433
30
0.0
 70
     32
  0
VERTEX
  8
MY3DLAYER
10
8.36470503240455
20
1.08288790125604
30
0.0
 70
     32
  0
VERTEX
  8
MY3DLAYER
10
8.37111478269883
20
1.0835192065577
30
0.0
 70
     32
  0
VERTEX
  8
MY3DLAYER
10
8.37746951988348
20
1.08456837791307
30
0.0
 70
     32
  0
VERTEX
  8
MY3DLAYER
10
8.38374203199828
20
1.08603092260934
30
0.0
 70
     32
  0
VERTEX
  8
MY3DLAYER
10
8.38990545918339
20
1.0879005778056
30
0.0
 70
     32
  0
VERTEX
  8
MY3DLAYER
10
8.39593340869736
20
1.09016933735125
30
0.0
 70
     32
  0
VERTEX
  8
MY3DLAYER
10
8.40180006793494
20
1.09282748606962
30
0.0
 70
     32
  0
VERTEX
  8
MY3DLAYER
10
8.40748031496063
20
1.0958636413598
30
0.0
 70
     32
  0
VERTEX
  8
MY3DLAYER
10
8.41294982608461
20
1.09926480193873
30
0.0
 70
     32
  0
VERTEX
  8
MY3DLAYER
10
8.41818518002055
20
1.10301640351464
30
0.0
 70
     32
  0
VERTEX
  8
MY3DLAYER
10
8.42316395817915
20
1.10710238115364
30
0.0
 70
     32
  0
VERTEX
  8
MY3DLAYER
10
8.42786484066797
20
1.11150523807219
30
0.0
 70
     32
  0
VERTEX
  8
MY3DLAYER
10
8.43226769758652
20
1.11620612056102
30
0.0
 70
     32
  0
VERTEX
  8
MY3DLAYER
10
8.43635367522552
20
1.12118489871961
30
0.0
 70
     32
  0
VERTEX
  8
MY3DLAYER
10
8.44010527680144
20
1.12642025265555
30
0.0
 70
     32
  0
VERTEX
  8
MY3DLAYER
10
8.44350643738036
20
1.13188976377953
30
0.0
 70
     32
  0
VERTEX
  8
MY3DLAYER
10
8.44654259267054
20
1.13757001080522
30
0.0
 70
     32
  0
VERTEX
  8
MY3DLAYER
10
8.44920074138891
20
1.14343667004281
30
0.0
 70
     32
  0
VERTEX
  8
MY3DLAYER
10
8.45146950093456
20
1.14946461955678
30
0.0
 70
     32
  0
VERTEX
  8
MY3DLAYER
10
8.45333915613082
20
1.15562804674188
30
0.0
 70
     32
  0
VERTEX
  8
MY3DLAYER
10
8.45480170082709
20
1.16190055885668
30
0.0
 70
     32
  0
VERTEX
  8
MY3DLAYER
10
8.45585087218246
20
1.16825529604133
30
0.0
 70
     32
  0
VERTEX
  8
MY3DLAYER
10
8.45648217748412
20
1.17466504633562
30
0.0
 70
     32
  0
VERTEX
  8
MY3DLAYER
10
8.45669291338584
20
1.18110236220472
30
0.0
 70
     32
  0
SEQEND
  0
POLYLINE
 8
Layer0
 66
     1
70
    8
 10
0.0
 20
 0.0
 30
0.0
  0
VERTEX
  8
MY3DLAYER
10
8.45669291338584
20
6.1023622047244
30
0.0
 70
     32
  0
VERTEX
  8
MY3DLAYER
10
8.45648217748412
20
6.10879952059351
30
0.0
 70
     32
  0
VERTEX
  8
MY3DLAYER
10
8.45585087218246
20
6.11520927088779
30
0.0
 70
     32
  0
VERTEX
  8
MY3DLAYER
10
8.45480170082709
20
6.12156400807245
30
0.0
 70
     32
  0
VERTEX
  8
MY3DLAYER
10
8.45333915613082
20
6.12783652018725
30
0.0
 70
     32
  0
VERTEX
  8
MY3DLAYER
10
8.45146950093456
20
6.13399994737235
30
0.0
 70
     32
  0
VERTEX
  8
MY3DLAYER
10
8.44920074138891
20
6.14002789688632
30
0.0
 70
     32
  0
VERTEX
  8
MY3DLAYER
10
8.44654259267054
20
6.14589455612391
30
0.0
 70
     32
  0
VERTEX
  8
MY3DLAYER
10
8.44350643738036
20
6.1515748031496
30
0.0
 70
     32
  0
VERTEX
  8
MY3DLAYER
10
8.44010527680144
20
6.15704431427358
30
0.0
 70
     32
  0
VERTEX
  8
MY3DLAYER
10
8.43635367522552
20
6.16227966820951
30
0.0
 70
     32
  0
VERTEX
  8
MY3DLAYER
10
8.43226769758652
20
6.16725844636811
30
0.0
 70
     32
  0
VERTEX
  8
MY3DLAYER
10
8.42786484066797
20
6.17195932885694
30
0.0
 70
     32
  0
VERTEX
  8
MY3DLAYER
10
8.42316395817914
20
6.17636218577548
30
0.0
 70
     32
  0
VERTEX
  8
MY3DLAYER
10
8.41818518002055
20
6.18044816341448
30
0.0
 70
     32
  0
VERTEX
  8
MY3DLAYER
10
8.41294982608461
20
6.1841997649904
30
0.0
 70
     32
  0
VERTEX
  8
MY3DLAYER
10
8.40748031496063
20
6.18760092556933
30
0.0
 70
     32
  0
VERTEX
  8
MY3DLAYER
10
8.40180006793494
20
6.19063708085951
30
0.0
 70
     32
  0
VERTEX
  8
MY3DLAYER
10
8.39593340869735
20
6.19329522957787
30
0.0
 70
     32
  0
VERTEX
  8
MY3DLAYER
10
8.38990545918339
20
6.19556398912353
30
0.0
 70
     32
  0
VERTEX
  8
MY3DLAYER
10
8.38374203199828
20
6.19743364431978
30
0.0
 70
     32
  0
VERTEX
  8
MY3DLAYER
10
8.37746951988348
20
6.19889618901606
30
0.0
 70
     32
  0
VERTEX
  8
MY3DLAYER
10
8.37111478269883
20
6.19994536037143
30
0.0
 70
     32
  0
VERTEX
  8
MY3DLAYER
10
8.36470503240455
20
6.20057666567308
30
0.0
 70
     32
  0
VERTEX
  8
MY3DLAYER
10
8.35826771653544
20
6.20078740157479
30
0.0
 70
     32
  0
VERTEX
  8
MY3DLAYER
10
8.35183040066633
20
6.20057666567308
30
0.0
 70
     32
  0
VERTEX
  8
MY3DLAYER
10
8.34542065037205
20
6.19994536037143
30
0.0
 70
     32
  0
VERTEX
  8
MY3DLAYER
10
8.33906591318739
20
6.19889618901606
30
0.0
 70
     32
  0
VERTEX
  8
MY3DLAYER
10
8.33279340107259
20
6.19743364431978
30
0.0
 70
     32
  0
VERTEX
  8
MY3DLAYER
10
8.32662997388749
20
6.19556398912353
30
0.0
 70
     32
  0
VERTEX
  8
MY3DLAYER
10
8.32060202437352
20
6.19329522957787
30
0.0
 70
     32
  0
VERTEX
  8
MY3DLAYER
10
8.31473536513593
20
6.19063708085951
30
0.0
 70
     32
  0
VERTEX
  8
MY3DLAYER
10
8.30905511811024
20
6.18760092556933
30
0.0
 70
     32
  0
VERTEX
  8
MY3DLAYER
10
8.30358560698626
20
6.1841997649904
30
0.0
 70
     32
  0
VERTEX
  8
MY3DLAYER
10
8.29835025305033
20
6.18044816341448
30
0.0
 70
     32
  0
VERTEX
  8
MY3DLAYER
10
8.29337147489173
20
6.17636218577548
30
0.0
 70
     32
  0
VERTEX
  8
MY3DLAYER
10
8.2886705924029
20
6.17195932885694
30
0.0
 70
     32
  0
VERTEX
  8
MY3DLAYER
10
8.28426773548436
20
6.16725844636811
30
0.0
 70
     32
  0
VERTEX
  8
MY3DLAYER
10
8.28018175784536
20
6.16227966820951
30
0.0
 70
     32
  0
VERTEX
  8
MY3DLAYER
10
8.27643015626944
20
6.15704431427358
30
0.0
 70
     32
  0
VERTEX
  8
MY3DLAYER
10
8.27302899569051
20
6.1515748031496
30
0.0
 70
     32
  0
VERTEX
  8
MY3DLAYER
10
8.26999284040033
20
6.14589455612391
30
0.0
 70
     32
  0
VERTEX
  8
MY3DLAYER
10
8.26733469168196
20
6.14002789688632
30
0.0
 70
     32
  0
VERTEX
  8
MY3DLAYER
10
8.26506593213631
20
6.13399994737235
30
0.0
 70
     32
  0
VERTEX
  8
MY3DLAYER
10
8.26319627694006
20
6.12783652018725
30
0.0
 70
     32
  0
VERTEX
  8
MY3DLAYER
10
8.26173373224378
20
6.12156400807245
30
0.0
 70
     32
  0
VERTEX
  8
MY3DLAYER
10
8.26068456088841
20
6.11520927088779
30
0.0
 70
     32
  0
VERTEX
  8
MY3DLAYER
10
8.26005325558676
20
6.10879952059351
30
0.0
 70
     32
  0
VERTEX
  8
MY3DLAYER
10
8.25984251968504
20
6.1023622047244
30
0.0
 70
     32
  0
VERTEX
  8
MY3DLAYER
10
8.26005325558676
20
6.09592488885529
30
0.0
 70
     32
  0
VERTEX
  8
MY3DLAYER
10
8.26068456088841
20
6.08951513856101
30
0.0
 70
     32
  0
VERTEX
  8
MY3DLAYER
10
8.26173373224378
20
6.08316040137636
30
0.0
 70
     32
  0
VERTEX
  8
MY3DLAYER
10
8.26319627694006
20
6.07688788926156
30
0.0
 70
     32
  0
VERTEX
  8
MY3DLAYER
10
8.26506593213631
20
6.07072446207645
30
0.0
 70
     32
  0
VERTEX
  8
MY3DLAYER
10
8.26733469168196
20
6.06469651256248
30
0.0
 70
     32
  0
VERTEX
  8
MY3DLAYER
10
8.26999284040033
20
6.05882985332489
30
0.0
 70
     32
  0
VERTEX
  8
MY3DLAYER
10
8.27302899569051
20
6.05314960629921
30
0.0
 70
     32
  0
VERTEX
  8
MY3DLAYER
10
8.27643015626944
20
6.04768009517523
30
0.0
 70
     32
  0
VERTEX
  8
MY3DLAYER
10
8.28018175784536
20
6.04244474123929
30
0.0
 70
     32
  0
VERTEX
  8
MY3DLAYER
10
8.28426773548436
20
6.03746596308069
30
0.0
 70
     32
  0
VERTEX
  8
MY3DLAYER
10
8.2886705924029
20
6.03276508059187
30
0.0
 70
     32
  0
VERTEX
  8
MY3DLAYER
10
8.29337147489173
20
6.02836222367332
30
0.0
 70
     32
  0
VERTEX
  8
MY3DLAYER
10
8.29835025305033
20
6.02427624603432
30
0.0
 70
     32
  0
VERTEX
  8
MY3DLAYER
10
8.30358560698626
20
6.0205246444584
30
0.0
 70
     32
  0
VERTEX
  8
MY3DLAYER
10
8.30905511811024
20
6.01712348387948
30
0.0
 70
     32
  0
VERTEX
  8
MY3DLAYER
10
8.31473536513593
20
6.01408732858929
30
0.0
 70
     32
  0
VERTEX
  8
MY3DLAYER
10
8.32060202437352
20
6.01142917987093
30
0.0
 70
     32
  0
VERTEX
  8
MY3DLAYER
10
8.32662997388749
20
6.00916042032528
30
0.0
 70
     32
  0
VERTEX
  8
MY3DLAYER
10
8.33279340107259
20
6.00729076512902
30
0.0
 70
     32
  0
VERTEX
  8
MY3DLAYER
10
8.33906591318739
20
6.00582822043275
30
0.0
 70
     32
  0
VERTEX
  8
MY3DLAYER
10
8.34542065037205
20
6.00477904907737
30
0.0
 70
     32
  0
VERTEX
  8
MY3DLAYER
10
8.35183040066633
20
6.00414774377572
30
0.0
 70
     32
  0
VERTEX
  8
MY3DLAYER
10
8.35826771653544
20
6.00393700787401
30
0.0
 70
     32
  0
VERTEX
  8
MY3DLAYER
10
8.36470503240455
20
6.00414774377572
30
0.0
 70
     32
  0
VERTEX
  8
MY3DLAYER
10
8.37111478269883
20
6.00477904907737
30
0.0
 70
     32
  0
VERTEX
  8
MY3DLAYER
10
8.37746951988348
20
6.00582822043275
30
0.0
 70
     32
  0
VERTEX
  8
MY3DLAYER
10
8.38374203199828
20
6.00729076512902
30
0.0
 70
     32
  0
VERTEX
  8
MY3DLAYER
10
8.38990545918339
20
6.00916042032528
30
0.0
 70
     32
  0
VERTEX
  8
MY3DLAYER
10
8.39593340869736
20
6.01142917987093
30
0.0
 70
     32
  0
VERTEX
  8
MY3DLAYER
10
8.40180006793494
20
6.01408732858929
30
0.0
 70
     32
  0
VERTEX
  8
MY3DLAYER
10
8.40748031496063
20
6.01712348387948
30
0.0
 70
     32
  0
VERTEX
  8
MY3DLAYER
10
8.41294982608461
20
6.0205246444584
30
0.0
 70
     32
  0
VERTEX
  8
MY3DLAYER
10
8.41818518002055
20
6.02427624603432
30
0.0
 70
     32
  0
VERTEX
  8
MY3DLAYER
10
8.42316395817915
20
6.02836222367332
30
0.0
 70
     32
  0
VERTEX
  8
MY3DLAYER
10
8.42786484066797
20
6.03276508059187
30
0.0
 70
     32
  0
VERTEX
  8
MY3DLAYER
10
8.43226769758652
20
6.03746596308069
30
0.0
 70
     32
  0
VERTEX
  8
MY3DLAYER
10
8.43635367522552
20
6.04244474123929
30
0.0
 70
     32
  0
VERTEX
  8
MY3DLAYER
10
8.44010527680144
20
6.04768009517523
30
0.0
 70
     32
  0
VERTEX
  8
MY3DLAYER
10
8.44350643738036
20
6.05314960629921
30
0.0
 70
     32
  0
VERTEX
  8
MY3DLAYER
10
8.44654259267054
20
6.05882985332489
30
0.0
 70
     32
  0
VERTEX
  8
MY3DLAYER
10
8.44920074138891
20
6.06469651256248
30
0.0
 70
     32
  0
VERTEX
  8
MY3DLAYER
10
8.45146950093456
20
6.07072446207645
30
0.0
 70
     32
  0
VERTEX
  8
MY3DLAYER
10
8.45333915613082
20
6.07688788926156
30
0.0
 70
     32
  0
VERTEX
  8
MY3DLAYER
10
8.45480170082709
20
6.08316040137636
30
0.0
 70
     32
  0
VERTEX
  8
MY3DLAYER
10
8.45585087218246
20
6.08951513856101
30
0.0
 70
     32
  0
VERTEX
  8
MY3DLAYER
10
8.45648217748412
20
6.09592488885529
30
0.0
 70
     32
  0
VERTEX
  8
MY3DLAYER
10
8.45669291338584
20
6.1023622047244
30
0.0
 70
     32
  0
SEQEND
  0
POLYLINE
 8
Layer0
 66
     1
70
    8
 10
0.0
 20
 0.0
 30
0.0
  0
VERTEX
  8
MY3DLAYER
10
9.24409448818898
20
6.88976377952755
30
0.0
 70
     32
  0
VERTEX
  8
MY3DLAYER
10
9.24388375228727
20
6.89620109539666
30
0.0
 70
     32
  0
VERTEX
  8
MY3DLAYER
10
9.24325244698562
20
6.90261084569094
30
0.0
 70
     32
  0
VERTEX
  8
MY3DLAYER
10
9.24220327563025
20
6.9089655828756
30
0.0
 70
     32
  0
VERTEX
  8
MY3DLAYER
10
9.24074073093397
20
6.9152380949904
30
0.0
 70
     32
  0
VERTEX
  8
MY3DLAYER
10
9.23887107573771
20
6.9214015221755
30
0.0
 70
     32
  0
VERTEX
  8
MY3DLAYER
10
9.23660231619206
20
6.92742947168947
30
0.0
 70
     32
  0
VERTEX
  8
MY3DLAYER
10
9.2339441674737
20
6.93329613092706
30
0.0
 70
     32
  0
VERTEX
  8
MY3DLAYER
10
9.23090801218351
20
6.93897637795275
30
0.0
 70
     32
  0
VERTEX
  8
MY3DLAYER
10
9.22750685160459
20
6.94444588907673
30
0.0
 70
     32
  0
VERTEX
  8
MY3DLAYER
10
9.22375525002867
20
6.94968124301266
30
0.0
 70
     32
  0
VERTEX
  8
MY3DLAYER
10
9.21966927238967
20
6.95466002117126
30
0.0
 70
     32
  0
VERTEX
  8
MY3DLAYER
10
9.21526641547112
20
6.95936090366009
30
0.0
 70
     32
  0
VERTEX
  8
MY3DLAYER
10
9.2105655329823
20
6.96376376057863
30
0.0
 70
     32
  0
VERTEX
  8
MY3DLAYER
10
9.2055867548237
20
6.96784973821763
30
0.0
 70
     32
  0
VERTEX
  8
MY3DLAYER
10
9.20035140088776
20
6.97160133979355
30
0.0
 70
     32
  0
VERTEX
  8
MY3DLAYER
10
9.19488188976379
20
6.97500250037248
30
0.0
 70
     32
  0
VERTEX
  8
MY3DLAYER
10
9.1892016427381
20
6.97803865566266
30
0.0
 70
     32
  0
VERTEX
  8
MY3DLAYER
10
9.18333498350051
20
6.98069680438102
30
0.0
 70
     32
  0
VERTEX
  8
MY3DLAYER
10
9.17730703398654
20
6.98296556392668
30
0.0
 70
     32
  0
VERTEX
  8
MY3DLAYER
10
9.17114360680143
20
6.98483521912293
30
0.0
 70
     32
  0
VERTEX
  8
MY3DLAYER
10
9.16487109468663
20
6.98629776381921
30
0.0
 70
     32
  0
VERTEX
  8
MY3DLAYER
10
9.15851635750198
20
6.98734693517458
30
0.0
 70
     32
  0
VERTEX
  8
MY3DLAYER
10
9.1521066072077
20
6.98797824047623
30
0.0
 70
     32
  0
VERTEX
  8
MY3DLAYER
10
9.14566929133859
20
6.98818897637794
30
0.0
 70
     32
  0
VERTEX
  8
MY3DLAYER
10
9.13923197546948
20
6.98797824047623
30
0.0
 70
     32
  0
VERTEX
  8
MY3DLAYER
10
9.1328222251752
20
6.98734693517458
30
0.0
 70
     32
  0
VERTEX
  8
MY3DLAYER
10
9.12646748799054
20
6.98629776381921
30
0.0
 70
     32
  0
VERTEX
  8
MY3DLAYER
10
9.12019497587574
20
6.98483521912293
30
0.0
 70
     32
  0
VERTEX
  8
MY3DLAYER
10
9.11403154869064
20
6.98296556392668
30
0.0
 70
     32
  0
VERTEX
  8
MY3DLAYER
10
9.10800359917667
20
6.98069680438102
30
0.0
 70
     32
  0
VERTEX
  8
MY3DLAYER
10
9.10213693993908
20
6.97803865566266
30
0.0
 70
     32
  0
VERTEX
  8
MY3DLAYER
10
9.09645669291339
20
6.97500250037248
30
0.0
 70
     32
  0
VERTEX
  8
MY3DLAYER
10
9.09098718178942
20
6.97160133979355
30
0.0
 70
     32
  0
VERTEX
  8
MY3DLAYER
10
9.08575182785348
20
6.96784973821763
30
0.0
 70
     32
  0
VERTEX
  8
MY3DLAYER
10
9.08077304969488
20
6.96376376057863
30
0.0
 70
     32
  0
VERTEX
  8
MY3DLAYER
10
9.07607216720606
20
6.95936090366009
30
0.0
 70
     32
  0
VERTEX
  8
MY3DLAYER
10
9.07166931028751
20
6.95466002117126
30
0.0
 70
     32
  0
VERTEX
  8
MY3DLAYER
10
9.06758333264851
20
6.94968124301266
30
0.0
 70
     32
  0
VERTEX
  8
MY3DLAYER
10
9.06383173107259
20
6.94444588907673
30
0.0
 70
     32
  0
VERTEX
  8
MY3DLAYER
10
9.06043057049366
20
6.93897637795275
30
0.0
 70
     32
  0
VERTEX
  8
MY3DLAYER
10
9.05739441520348
20
6.93329613092706
30
0.0
 70
     32
  0
VERTEX
  8
MY3DLAYER
10
9.05473626648512
20
6.92742947168947
30
0.0
 70
     32
  0
VERTEX
  8
MY3DLAYER
10
9.05246750693946
20
6.9214015221755
30
0.0
 70
     32
  0
VERTEX
  8
MY3DLAYER
10
9.05059785174321
20
6.9152380949904
30
0.0
 70
     32
  0
VERTEX
  8
MY3DLAYER
10
9.04913530704693
20
6.9089655828756
30
0.0
 70
     32
  0
VERTEX
  8
MY3DLAYER
10
9.04808613569156
20
6.90261084569094
30
0.0
 70
     32
  0
VERTEX
  8
MY3DLAYER
10
9.04745483038991
20
6.89620109539666
30
0.0
 70
     32
  0
VERTEX
  8
MY3DLAYER
10
9.04724409448819
20
6.88976377952755
30
0.0
 70
     32
  0
VERTEX
  8
MY3DLAYER
10
9.04745483038991
20
6.88332646365844
30
0.0
 70
     32
  0
VERTEX
  8
MY3DLAYER
10
9.04808613569156
20
6.87691671336416
30
0.0
 70
     32
  0
VERTEX
  8
MY3DLAYER
10
9.04913530704693
20
6.87056197617951
30
0.0
 70
     32
  0
VERTEX
  8
MY3DLAYER
10
9.05059785174321
20
6.86428946406471
30
0.0
 70
     32
  0
VERTEX
  8
MY3DLAYER
10
9.05246750693946
20
6.8581260368796
30
0.0
 70
     32
  0
VERTEX
  8
MY3DLAYER
10
9.05473626648512
20
6.85209808736563
30
0.0
 70
     32
  0
VERTEX
  8
MY3DLAYER
10
9.05739441520348
20
6.84623142812804
30
0.0
 70
     32
  0
VERTEX
  8
MY3DLAYER
10
9.06043057049366
20
6.84055118110235
30
0.0
 70
     32
  0
VERTEX
  8
MY3DLAYER
10
9.06383173107259
20
6.83508166997838
30
0.0
 70
     32
  0
VERTEX
  8
MY3DLAYER
10
9.06758333264851
20
6.82984631604244
30
0.0
 70
     32
  0
VERTEX
  8
MY3DLAYER
10
9.07166931028751
20
6.82486753788384
30
0.0
 70
     32
  0
VERTEX
  8
MY3DLAYER
10
9.07607216720605
20
6.82016665539502
30
0.0
 70
     32
  0
VERTEX
  8
MY3DLAYER
10
9.08077304969488
20
6.81576379847647
30
0.0
 70
     32
  0
VERTEX
  8
MY3DLAYER
10
9.08575182785348
20
6.81167782083747
30
0.0
 70
     32
  0
VERTEX
  8
MY3DLAYER
10
9.09098718178942
20
6.80792621926155
30
0.0
 70
     32
  0
VERTEX
  8
MY3DLAYER
10
9.09645669291339
20
6.80452505868263
30
0.0
 70
     32
  0
VERTEX
  8
MY3DLAYER
10
9.10213693993908
20
6.80148890339244
30
0.0
 70
     32
  0
VERTEX
  8
MY3DLAYER
10
9.10800359917667
20
6.79883075467408
30
0.0
 70
     32
  0
VERTEX
  8
MY3DLAYER
10
9.11403154869064
20
6.79656199512843
30
0.0
 70
     32
  0
VERTEX
  8
MY3DLAYER
10
9.12019497587574
20
6.79469233993217
30
0.0
 70
     32
  0
VERTEX
  8
MY3DLAYER
10
9.12646748799054
20
6.7932297952359
30
0.0
 70
     32
  0
VERTEX
  8
MY3DLAYER
10
9.1328222251752
20
6.79218062388052
30
0.0
 70
     32
  0
VERTEX
  8
MY3DLAYER
10
9.13923197546948
20
6.79154931857887
30
0.0
 70
     32
  0
VERTEX
  8
MY3DLAYER
10
9.14566929133859
20
6.79133858267716
30
0.0
 70
     32
  0
VERTEX
  8
MY3DLAYER
10
9.1521066072077
20
6.79154931857887
30
0.0
 70
     32
  0
VERTEX
  8
MY3DLAYER
10
9.15851635750198
20
6.79218062388052
30
0.0
 70
     32
  0
VERTEX
  8
MY3DLAYER
10
9.16487109468663
20
6.7932297952359
30
0.0
 70
     32
  0
VERTEX
  8
MY3DLAYER
10
9.17114360680143
20
6.79469233993217
30
0.0
 70
     32
  0
VERTEX
  8
MY3DLAYER
10
9.17730703398654
20
6.79656199512843
30
0.0
 70
     32
  0
VERTEX
  8
MY3DLAYER
10
9.18333498350051
20
6.79883075467408
30
0.0
 70
     32
  0
VERTEX
  8
MY3DLAYER
10
9.1892016427381
20
6.80148890339244
30
0.0
 70
     32
  0
VERTEX
  8
MY3DLAYER
10
9.19488188976379
20
6.80452505868263
30
0.0
 70
     32
  0
VERTEX
  8
MY3DLAYER
10
9.20035140088776
20
6.80792621926155
30
0.0
 70
     32
  0
VERTEX
  8
MY3DLAYER
10
9.2055867548237
20
6.81167782083747
30
0.0
 70
     32
  0
VERTEX
  8
MY3DLAYER
10
9.2105655329823
20
6.81576379847647
30
0.0
 70
     32
  0
VERTEX
  8
MY3DLAYER
10
9.21526641547112
20
6.82016665539502
30
0.0
 70
     32
  0
VERTEX
  8
MY3DLAYER
10
9.21966927238967
20
6.82486753788384
30
0.0
 70
     32
  0
VERTEX
  8
MY3DLAYER
10
9.22375525002867
20
6.82984631604244
30
0.0
 70
     32
  0
VERTEX
  8
MY3DLAYER
10
9.22750685160459
20
6.83508166997838
30
0.0
 70
     32
  0
VERTEX
  8
MY3DLAYER
10
9.23090801218351
20
6.84055118110235
30
0.0
 70
     32
  0
VERTEX
  8
MY3DLAYER
10
9.2339441674737
20
6.84623142812804
30
0.0
 70
     32
  0
VERTEX
  8
MY3DLAYER
10
9.23660231619206
20
6.85209808736563
30
0.0
 70
     32
  0
VERTEX
  8
MY3DLAYER
10
9.23887107573771
20
6.8581260368796
30
0.0
 70
     32
  0
VERTEX
  8
MY3DLAYER
10
9.24074073093397
20
6.86428946406471
30
0.0
 70
     32
  0
VERTEX
  8
MY3DLAYER
10
9.24220327563025
20
6.87056197617951
30
0.0
 70
     32
  0
VERTEX
  8
MY3DLAYER
10
9.24325244698562
20
6.87691671336416
30
0.0
 70
     32
  0
VERTEX
  8
MY3DLAYER
10
9.24388375228727
20
6.88332646365844
30
0.0
 70
     32
  0
VERTEX
  8
MY3DLAYER
10
9.24409448818898
20
6.88976377952755
30
0.0
 70
     32
  0
SEQEND
  0
POLYLINE
 8
Layer0
 66
     1
70
    8
 10
0.0
 20
 0.0
 30
0.0
  0
VERTEX
  8
MY3DLAYER
10
9.24409448818898
20
0.393700787401575
30
0.0
 70
     32
  0
VERTEX
  8
MY3DLAYER
10
9.24388375228727
20
0.400138103270683
30
0.0
 70
     32
  0
VERTEX
  8
MY3DLAYER
10
9.24325244698562
20
0.406547853564966
30
0.0
 70
     32
  0
VERTEX
  8
MY3DLAYER
10
9.24220327563025
20
0.412902590749619
30
0.0
 70
     32
  0
VERTEX
  8
MY3DLAYER
10
9.24074073093397
20
0.419175102864421
30
0.0
 70
     32
  0
VERTEX
  8
MY3DLAYER
10
9.23887107573771
20
0.425338530049524
30
0.0
 70
     32
  0
VERTEX
  8
MY3DLAYER
10
9.23660231619206
20
0.431366479563493
30
0.0
 70
     32
  0
VERTEX
  8
MY3DLAYER
10
9.2339441674737
20
0.437233138801083
30
0.0
 70
     32
  0
VERTEX
  8
MY3DLAYER
10
9.23090801218351
20
0.442913385826772
30
0.0
 70
     32
  0
VERTEX
  8
MY3DLAYER
10
9.22750685160459
20
0.448382896950748
30
0.0
 70
     32
  0
VERTEX
  8
MY3DLAYER
10
9.22375525002867
20
0.453618250886685
30
0.0
 70
     32
  0
VERTEX
  8
MY3DLAYER
10
9.21966927238967
20
0.458597029045282
30
0.0
 70
     32
  0
VERTEX
  8
MY3DLAYER
10
9.21526641547112
20
0.463297911534109
30
0.0
 70
     32
  0
VERTEX
  8
MY3DLAYER
10
9.2105655329823
20
0.467700768452655
30
0.0
 70
     32
  0
VERTEX
  8
MY3DLAYER
10
9.2055867548237
20
0.471786746091657
30
0.0
 70
     32
  0
VERTEX
  8
MY3DLAYER
10
9.20035140088776
20
0.475538347667573
30
0.0
 70
     32
  0
VERTEX
  8
MY3DLAYER
10
9.19488188976379
20
0.4789395082465
30
0.0
 70
     32
  0
VERTEX
  8
MY3DLAYER
10
9.1892016427381
20
0.481975663536682
30
0.0
 70
     32
  0
VERTEX
  8
MY3DLAYER
10
9.18333498350051
20
0.484633812255048
30
0.0
 70
     32
  0
VERTEX
  8
MY3DLAYER
10
9.17730703398654
20
0.4869025718007
30
0.0
 70
     32
  0
VERTEX
  8
MY3DLAYER
10
9.17114360680143
20
0.488772226996956
30
0.0
 70
     32
  0
VERTEX
  8
MY3DLAYER
10
9.16487109468663
20
0.490234771693231
30
0.0
 70
     32
  0
VERTEX
  8
MY3DLAYER
10
9.15851635750198
20
0.491283943048604
30
0.0
 70
     32
  0
VERTEX
  8
MY3DLAYER
10
9.1521066072077
20
0.491915248350256
30
0.0
 70
     32
  0
VERTEX
  8
MY3DLAYER
10
9.14566929133859
20
0.492125984251969
30
0.0
 70
     32
  0
VERTEX
  8
MY3DLAYER
10
9.13923197546948
20
0.491915248350256
30
0.0
 70
     32
  0
VERTEX
  8
MY3DLAYER
10
9.1328222251752
20
0.491283943048604
30
0.0
 70
     32
  0
VERTEX
  8
MY3DLAYER
10
9.12646748799054
20
0.490234771693231
30
0.0
 70
     32
  0
VERTEX
  8
MY3DLAYER
10
9.12019497587574
20
0.488772226996956
30
0.0
 70
     32
  0
VERTEX
  8
MY3DLAYER
10
9.11403154869064
20
0.4869025718007
30
0.0
 70
     32
  0
VERTEX
  8
MY3DLAYER
10
9.10800359917667
20
0.484633812255048
30
0.0
 70
     32
  0
VERTEX
  8
MY3DLAYER
10
9.10213693993908
20
0.481975663536682
30
0.0
 70
     32
  0
VERTEX
  8
MY3DLAYER
10
9.09645669291339
20
0.4789395082465
30
0.0
 70
     32
  0
VERTEX
  8
MY3DLAYER
10
9.09098718178942
20
0.475538347667574
30
0.0
 70
     32
  0
VERTEX
  8
MY3DLAYER
10
9.08575182785348
20
0.471786746091657
30
0.0
 70
     32
  0
VERTEX
  8
MY3DLAYER
10
9.08077304969488
20
0.467700768452656
30
0.0
 70
     32
  0
VERTEX
  8
MY3DLAYER
10
9.07607216720606
20
0.463297911534109
30
0.0
 70
     32
  0
VERTEX
  8
MY3DLAYER
10
9.07166931028751
20
0.458597029045283
30
0.0
 70
     32
  0
VERTEX
  8
MY3DLAYER
10
9.06758333264851
20
0.453618250886685
30
0.0
 70
     32
  0
VERTEX
  8
MY3DLAYER
10
9.06383173107259
20
0.448382896950749
30
0.0
 70
     32
  0
VERTEX
  8
MY3DLAYER
10
9.06043057049366
20
0.442913385826772
30
0.0
 70
     32
  0
VERTEX
  8
MY3DLAYER
10
9.05739441520348
20
0.437233138801083
30
0.0
 70
     32
  0
VERTEX
  8
MY3DLAYER
10
9.05473626648512
20
0.431366479563493
30
0.0
 70
     32
  0
VERTEX
  8
MY3DLAYER
10
9.05246750693946
20
0.425338530049524
30
0.0
 70
     32
  0
VERTEX
  8
MY3DLAYER
10
9.05059785174321
20
0.419175102864422
30
0.0
 70
     32
  0
VERTEX
  8
MY3DLAYER
10
9.04913530704693
20
0.412902590749619
30
0.0
 70
     32
  0
VERTEX
  8
MY3DLAYER
10
9.04808613569156
20
0.406547853564966
30
0.0
 70
     32
  0
VERTEX
  8
MY3DLAYER
10
9.04745483038991
20
0.400138103270684
30
0.0
 70
     32
  0
VERTEX
  8
MY3DLAYER
10
9.04724409448819
20
0.393700787401575
30
0.0
 70
     32
  0
VERTEX
  8
MY3DLAYER
10
9.04745483038991
20
0.387263471532467
30
0.0
 70
     32
  0
VERTEX
  8
MY3DLAYER
10
9.04808613569156
20
0.380853721238184
30
0.0
 70
     32
  0
VERTEX
  8
MY3DLAYER
10
9.04913530704693
20
0.374498984053531
30
0.0
 70
     32
  0
VERTEX
  8
MY3DLAYER
10
9.05059785174321
20
0.368226471938729
30
0.0
 70
     32
  0
VERTEX
  8
MY3DLAYER
10
9.05246750693946
20
0.362063044753626
30
0.0
 70
     32
  0
VERTEX
  8
MY3DLAYER
10
9.05473626648512
20
0.356035095239657
30
0.0
 70
     32
  0
VERTEX
  8
MY3DLAYER
10
9.05739441520348
20
0.350168436002067
30
0.0
 70
     32
  0
VERTEX
  8
MY3DLAYER
10
9.06043057049366
20
0.344488188976378
30
0.0
 70
     32
  0
VERTEX
  8
MY3DLAYER
10
9.06383173107259
20
0.339018677852402
30
0.0
 70
     32
  0
VERTEX
  8
MY3DLAYER
10
9.06758333264851
20
0.333783323916465
30
0.0
 70
     32
  0
VERTEX
  8
MY3DLAYER
10
9.07166931028751
20
0.328804545757868
30
0.0
 70
     32
  0
VERTEX
  8
MY3DLAYER
10
9.07607216720605
20
0.324103663269041
30
0.0
 70
     32
  0
VERTEX
  8
MY3DLAYER
10
9.08077304969488
20
0.319700806350495
30
0.0
 70
     32
  0
VERTEX
  8
MY3DLAYER
10
9.08575182785348
20
0.315614828711493
30
0.0
 70
     32
  0
VERTEX
  8
MY3DLAYER
10
9.09098718178942
20
0.311863227135576
30
0.0
 70
     32
  0
VERTEX
  8
MY3DLAYER
10
9.09645669291339
20
0.30846206655665
30
0.0
 70
     32
  0
VERTEX
  8
MY3DLAYER
10
9.10213693993908
20
0.305425911266468
30
0.0
 70
     32
  0
VERTEX
  8
MY3DLAYER
10
9.10800359917667
20
0.302767762548102
30
0.0
 70
     32
  0
VERTEX
  8
MY3DLAYER
10
9.11403154869064
20
0.30049900300245
30
0.0
 70
     32
  0
VERTEX
  8
MY3DLAYER
10
9.12019497587574
20
0.298629347806194
30
0.0
 70
     32
  0
VERTEX
  8
MY3DLAYER
10
9.12646748799054
20
0.297166803109918
30
0.0
 70
     32
  0
VERTEX
  8
MY3DLAYER
10
9.1328222251752
20
0.296117631754546
30
0.0
 70
     32
  0
VERTEX
  8
MY3DLAYER
10
9.13923197546948
20
0.295486326452893
30
0.0
 70
     32
  0
VERTEX
  8
MY3DLAYER
10
9.14566929133859
20
0.295275590551181
30
0.0
 70
     32
  0
VERTEX
  8
MY3DLAYER
10
9.1521066072077
20
0.295486326452893
30
0.0
 70
     32
  0
VERTEX
  8
MY3DLAYER
10
9.15851635750198
20
0.296117631754546
30
0.0
 70
     32
  0
VERTEX
  8
MY3DLAYER
10
9.16487109468663
20
0.297166803109918
30
0.0
 70
     32
  0
VERTEX
  8
MY3DLAYER
10
9.17114360680143
20
0.298629347806194
30
0.0
 70
     32
  0
VERTEX
  8
MY3DLAYER
10
9.17730703398654
20
0.30049900300245
30
0.0
 70
     32
  0
VERTEX
  8
MY3DLAYER
10
9.18333498350051
20
0.302767762548102
30
0.0
 70
     32
  0
VERTEX
  8
MY3DLAYER
10
9.1892016427381
20
0.305425911266468
30
0.0
 70
     32
  0
VERTEX
  8
MY3DLAYER
10
9.19488188976379
20
0.30846206655665
30
0.0
 70
     32
  0
VERTEX
  8
MY3DLAYER
10
9.20035140088776
20
0.311863227135576
30
0.0
 70
     32
  0
VERTEX
  8
MY3DLAYER
10
9.2055867548237
20
0.315614828711493
30
0.0
 70
     32
  0
VERTEX
  8
MY3DLAYER
10
9.2105655329823
20
0.319700806350495
30
0.0
 70
     32
  0
VERTEX
  8
MY3DLAYER
10
9.21526641547112
20
0.324103663269041
30
0.0
 70
     32
  0
VERTEX
  8
MY3DLAYER
10
9.21966927238967
20
0.328804545757868
30
0.0
 70
     32
  0
VERTEX
  8
MY3DLAYER
10
9.22375525002867
20
0.333783323916465
30
0.0
 70
     32
  0
VERTEX
  8
MY3DLAYER
10
9.22750685160459
20
0.339018677852402
30
0.0
 70
     32
  0
VERTEX
  8
MY3DLAYER
10
9.23090801218351
20
0.344488188976379
30
0.0
 70
     32
  0
VERTEX
  8
MY3DLAYER
10
9.2339441674737
20
0.350168436002067
30
0.0
 70
     32
  0
VERTEX
  8
MY3DLAYER
10
9.23660231619206
20
0.356035095239657
30
0.0
 70
     32
  0
VERTEX
  8
MY3DLAYER
10
9.23887107573771
20
0.362063044753627
30
0.0
 70
     32
  0
VERTEX
  8
MY3DLAYER
10
9.24074073093397
20
0.368226471938729
30
0.0
 70
     32
  0
VERTEX
  8
MY3DLAYER
10
9.24220327563025
20
0.374498984053531
30
0.0
 70
     32
  0
VERTEX
  8
MY3DLAYER
10
9.24325244698562
20
0.380853721238185
30
0.0
 70
     32
  0
VERTEX
  8
MY3DLAYER
10
9.24388375228727
20
0.387263471532467
30
0.0
 70
     32
  0
VERTEX
  8
MY3DLAYER
10
9.24409448818898
20
0.393700787401575
30
0.0
 70
     32
  0
SEQEND
  0
POLYLINE
 8
Layer0
 66
     1
70
    8
 10
0.0
 20
 0.0
 30
0.0
  0
VERTEX
  8
MY3DLAYER
10
10.6220472440945
20
6.88976377952755
30
0.0
 70
     32
  0
VERTEX
  8
MY3DLAYER
10
10.6222579799962
20
6.88332646365844
30
0.0
 70
     32
  0
VERTEX
  8
MY3DLAYER
10
10.6228892852979
20
6.87691671336416
30
0.0
 70
     32
  0
VERTEX
  8
MY3DLAYER
10
10.6239384566532
20
6.87056197617951
30
0.0
 70
     32
  0
VERTEX
  8
MY3DLAYER
10
10.6254010013495
20
6.86428946406471
30
0.0
 70
     32
  0
VERTEX
  8
MY3DLAYER
10
10.6272706565458
20
6.8581260368796
30
0.0
 70
     32
  0
VERTEX
  8
MY3DLAYER
10
10.6295394160914
20
6.85209808736563
30
0.0
 70
     32
  0
VERTEX
  8
MY3DLAYER
10
10.6321975648098
20
6.84623142812804
30
0.0
 70
     32
  0
VERTEX
  8
MY3DLAYER
10
10.6352337201
20
6.84055118110235
30
0.0
 70
     32
  0
VERTEX
  8
MY3DLAYER
10
10.6386348806789
20
6.83508166997838
30
0.0
 70
     32
  0
VERTEX
  8
MY3DLAYER
10
10.6423864822548
20
6.82984631604244
30
0.0
 70
     32
  0
VERTEX
  8
MY3DLAYER
10
10.6464724598938
20
6.82486753788384
30
0.0
 70
     32
  0
VERTEX
  8
MY3DLAYER
10
10.6508753168124
20
6.82016665539502
30
0.0
 70
     32
  0
VERTEX
  8
MY3DLAYER
10
10.6555761993012
20
6.81576379847647
30
0.0
 70
     32
  0
VERTEX
  8
MY3DLAYER
10
10.6605549774598
20
6.81167782083747
30
0.0
 70
     32
  0
VERTEX
  8
MY3DLAYER
10
10.6657903313957
20
6.80792621926155
30
0.0
 70
     32
  0
VERTEX
  8
MY3DLAYER
10
10.6712598425197
20
6.80452505868263
30
0.0
 70
     32
  0
VERTEX
  8
MY3DLAYER
10
10.6769400895454
20
6.80148890339244
30
0.0
 70
     32
  0
VERTEX
  8
MY3DLAYER
10
10.682806748783
20
6.79883075467408
30
0.0
 70
     32
  0
VERTEX
  8
MY3DLAYER
10
10.6888346982969
20
6.79656199512843
30
0.0
 70
     32
  0
VERTEX
  8
MY3DLAYER
10
10.694998125482
20
6.79469233993217
30
0.0
 70
     32
  0
VERTEX
  8
MY3DLAYER
10
10.7012706375968
20
6.7932297952359
30
0.0
 70
     32
  0
VERTEX
  8
MY3DLAYER
10
10.7076253747815
20
6.79218062388052
30
0.0
 70
     32
  0
VERTEX
  8
MY3DLAYER
10
10.7140351250758
20
6.79154931857887
30
0.0
 70
     32
  0
VERTEX
  8
MY3DLAYER
10
10.7204724409449
20
6.79133858267716
30
0.0
 70
     32
  0
VERTEX
  8
MY3DLAYER
10
10.726909756814
20
6.79154931857887
30
0.0
 70
     32
  0
VERTEX
  8
MY3DLAYER
10
10.7333195071083
20
6.79218062388052
30
0.0
 70
     32
  0
VERTEX
  8
MY3DLAYER
10
10.7396742442929
20
6.7932297952359
30
0.0
 70
     32
  0
VERTEX
  8
MY3DLAYER
10
10.7459467564077
20
6.79469233993217
30
0.0
 70
     32
  0
VERTEX
  8
MY3DLAYER
10
10.7521101835928
20
6.79656199512843
30
0.0
 70
     32
  0
VERTEX
  8
MY3DLAYER
10
10.7581381331068
20
6.79883075467408
30
0.0
 70
     32
  0
VERTEX
  8
MY3DLAYER
10
10.7640047923444
20
6.80148890339244
30
0.0
 70
     32
  0
VERTEX
  8
MY3DLAYER
10
10.7696850393701
20
6.80452505868263
30
0.0
 70
     32
  0
VERTEX
  8
MY3DLAYER
10
10.7751545504941
20
6.80792621926155
30
0.0
 70
     32
  0
VERTEX
  8
MY3DLAYER
10
10.78038990443
20
6.81167782083747
30
0.0
 70
     32
  0
VERTEX
  8
MY3DLAYER
10
10.7853686825886
20
6.81576379847647
30
0.0
 70
     32
  0
VERTEX
  8
MY3DLAYER
10
10.7900695650774
20
6.82016665539502
30
0.0
 70
     32
  0
VERTEX
  8
MY3DLAYER
10
10.794472421996
20
6.82486753788384
30
0.0
 70
     32
  0
VERTEX
  8
MY3DLAYER
10
10.798558399635
20
6.82984631604244
30
0.0
 70
     32
  0
VERTEX
  8
MY3DLAYER
10
10.8023100012109
20
6.83508166997838
30
0.0
 70
     32
  0
VERTEX
  8
MY3DLAYER
10
10.8057111617898
20
6.84055118110235
30
0.0
 70
     32
  0
VERTEX
  8
MY3DLAYER
10
10.80874731708
20
6.84623142812804
30
0.0
 70
     32
  0
VERTEX
  8
MY3DLAYER
10
10.8114054657984
20
6.85209808736563
30
0.0
 70
     32
  0
VERTEX
  8
MY3DLAYER
10
10.813674225344
20
6.8581260368796
30
0.0
 70
     32
  0
VERTEX
  8
MY3DLAYER
10
10.8155438805403
20
6.8642894640647
30
0.0
 70
     32
  0
VERTEX
  8
MY3DLAYER
10
10.8170064252365
20
6.87056197617951
30
0.0
 70
     32
  0
VERTEX
  8
MY3DLAYER
10
10.8180555965919
20
6.87691671336416
30
0.0
 70
     32
  0
VERTEX
  8
MY3DLAYER
10
10.8186869018936
20
6.88332646365844
30
0.0
 70
     32
  0
VERTEX
  8
MY3DLAYER
10
10.8188976377953
20
6.88976377952755
30
0.0
 70
     32
  0
VERTEX
  8
MY3DLAYER
10
10.8186869018936
20
6.89620109539666
30
0.0
 70
     32
  0
VERTEX
  8
MY3DLAYER
10
10.8180555965919
20
6.90261084569094
30
0.0
 70
     32
  0
VERTEX
  8
MY3DLAYER
10
10.8170064252365
20
6.9089655828756
30
0.0
 70
     32
  0
VERTEX
  8
MY3DLAYER
10
10.8155438805403
20
6.9152380949904
30
0.0
 70
     32
  0
VERTEX
  8
MY3DLAYER
10
10.813674225344
20
6.9214015221755
30
0.0
 70
     32
  0
VERTEX
  8
MY3DLAYER
10
10.8114054657984
20
6.92742947168947
30
0.0
 70
     32
  0
VERTEX
  8
MY3DLAYER
10
10.80874731708
20
6.93329613092706
30
0.0
 70
     32
  0
VERTEX
  8
MY3DLAYER
10
10.8057111617898
20
6.93897637795275
30
0.0
 70
     32
  0
VERTEX
  8
MY3DLAYER
10
10.8023100012109
20
6.94444588907672
30
0.0
 70
     32
  0
VERTEX
  8
MY3DLAYER
10
10.798558399635
20
6.94968124301266
30
0.0
 70
     32
  0
VERTEX
  8
MY3DLAYER
10
10.794472421996
20
6.95466002117126
30
0.0
 70
     32
  0
VERTEX
  8
MY3DLAYER
10
10.7900695650774
20
6.95936090366008
30
0.0
 70
     32
  0
VERTEX
  8
MY3DLAYER
10
10.7853686825886
20
6.96376376057863
30
0.0
 70
     32
  0
VERTEX
  8
MY3DLAYER
10
10.78038990443
20
6.96784973821763
30
0.0
 70
     32
  0
VERTEX
  8
MY3DLAYER
10
10.7751545504941
20
6.97160133979355
30
0.0
 70
     32
  0
VERTEX
  8
MY3DLAYER
10
10.7696850393701
20
6.97500250037248
30
0.0
 70
     32
  0
VERTEX
  8
MY3DLAYER
10
10.7640047923444
20
6.97803865566266
30
0.0
 70
     32
  0
VERTEX
  8
MY3DLAYER
10
10.7581381331068
20
6.98069680438102
30
0.0
 70
     32
  0
VERTEX
  8
MY3DLAYER
10
10.7521101835928
20
6.98296556392668
30
0.0
 70
     32
  0
VERTEX
  8
MY3DLAYER
10
10.7459467564077
20
6.98483521912293
30
0.0
 70
     32
  0
VERTEX
  8
MY3DLAYER
10
10.7396742442929
20
6.98629776381921
30
0.0
 70
     32
  0
VERTEX
  8
MY3DLAYER
10
10.7333195071083
20
6.98734693517458
30
0.0
 70
     32
  0
VERTEX
  8
MY3DLAYER
10
10.726909756814
20
6.98797824047623
30
0.0
 70
     32
  0
VERTEX
  8
MY3DLAYER
10
10.7204724409449
20
6.98818897637794
30
0.0
 70
     32
  0
VERTEX
  8
MY3DLAYER
10
10.7140351250758
20
6.98797824047623
30
0.0
 70
     32
  0
VERTEX
  8
MY3DLAYER
10
10.7076253747815
20
6.98734693517458
30
0.0
 70
     32
  0
VERTEX
  8
MY3DLAYER
10
10.7012706375968
20
6.98629776381921
30
0.0
 70
     32
  0
VERTEX
  8
MY3DLAYER
10
10.694998125482
20
6.98483521912293
30
0.0
 70
     32
  0
VERTEX
  8
MY3DLAYER
10
10.6888346982969
20
6.98296556392668
30
0.0
 70
     32
  0
VERTEX
  8
MY3DLAYER
10
10.682806748783
20
6.98069680438102
30
0.0
 70
     32
  0
VERTEX
  8
MY3DLAYER
10
10.6769400895454
20
6.97803865566266
30
0.0
 70
     32
  0
VERTEX
  8
MY3DLAYER
10
10.6712598425197
20
6.97500250037248
30
0.0
 70
     32
  0
VERTEX
  8
MY3DLAYER
10
10.6657903313957
20
6.97160133979355
30
0.0
 70
     32
  0
VERTEX
  8
MY3DLAYER
10
10.6605549774598
20
6.96784973821763
30
0.0
 70
     32
  0
VERTEX
  8
MY3DLAYER
10
10.6555761993012
20
6.96376376057863
30
0.0
 70
     32
  0
VERTEX
  8
MY3DLAYER
10
10.6508753168124
20
6.95936090366008
30
0.0
 70
     32
  0
VERTEX
  8
MY3DLAYER
10
10.6464724598938
20
6.95466002117126
30
0.0
 70
     32
  0
VERTEX
  8
MY3DLAYER
10
10.6423864822548
20
6.94968124301266
30
0.0
 70
     32
  0
VERTEX
  8
MY3DLAYER
10
10.6386348806789
20
6.94444588907672
30
0.0
 70
     32
  0
VERTEX
  8
MY3DLAYER
10
10.6352337201
20
6.93897637795275
30
0.0
 70
     32
  0
VERTEX
  8
MY3DLAYER
10
10.6321975648098
20
6.93329613092706
30
0.0
 70
     32
  0
VERTEX
  8
MY3DLAYER
10
10.6295394160914
20
6.92742947168947
30
0.0
 70
     32
  0
VERTEX
  8
MY3DLAYER
10
10.6272706565458
20
6.9214015221755
30
0.0
 70
     32
  0
VERTEX
  8
MY3DLAYER
10
10.6254010013495
20
6.9152380949904
30
0.0
 70
     32
  0
VERTEX
  8
MY3DLAYER
10
10.6239384566532
20
6.90896558287559
30
0.0
 70
     32
  0
VERTEX
  8
MY3DLAYER
10
10.6228892852979
20
6.90261084569094
30
0.0
 70
     32
  0
VERTEX
  8
MY3DLAYER
10
10.6222579799962
20
6.89620109539666
30
0.0
 70
     32
  0
VERTEX
  8
MY3DLAYER
10
10.6220472440945
20
6.88976377952755
30
0.0
 70
     32
  0
SEQEND
  0
POLYLINE
 8
Layer0
 66
     1
70
    8
 10
0.0
 20
 0.0
 30
0.0
  0
VERTEX
  8
MY3DLAYER
10
9.83464566929134
20
6.88976377952755
30
0.0
 70
     32
  0
VERTEX
  8
MY3DLAYER
10
9.83485640519306
20
6.88332646365844
30
0.0
 70
     32
  0
VERTEX
  8
MY3DLAYER
10
9.83548771049471
20
6.87691671336416
30
0.0
 70
     32
  0
VERTEX
  8
MY3DLAYER
10
9.83653688185008
20
6.87056197617951
30
0.0
 70
     32
  0
VERTEX
  8
MY3DLAYER
10
9.83799942654636
20
6.8642894640647
30
0.0
 70
     32
  0
VERTEX
  8
MY3DLAYER
10
9.83986908174262
20
6.8581260368796
30
0.0
 70
     32
  0
VERTEX
  8
MY3DLAYER
10
9.84213784128827
20
6.85209808736563
30
0.0
 70
     32
  0
VERTEX
  8
MY3DLAYER
10
9.84479599000663
20
6.84623142812804
30
0.0
 70
     32
  0
VERTEX
  8
MY3DLAYER
10
9.84783214529681
20
6.84055118110235
30
0.0
 70
     32
  0
VERTEX
  8
MY3DLAYER
10
9.85123330587574
20
6.83508166997838
30
0.0
 70
     32
  0
VERTEX
  8
MY3DLAYER
10
9.85498490745166
20
6.82984631604244
30
0.0
 70
     32
  0
VERTEX
  8
MY3DLAYER
10
9.85907088509066
20
6.82486753788384
30
0.0
 70
     32
  0
VERTEX
  8
MY3DLAYER
10
9.86347374200921
20
6.82016665539502
30
0.0
 70
     32
  0
VERTEX
  8
MY3DLAYER
10
9.86817462449803
20
6.81576379847647
30
0.0
 70
     32
  0
VERTEX
  8
MY3DLAYER
10
9.87315340265663
20
6.81167782083747
30
0.0
 70
     32
  0
VERTEX
  8
MY3DLAYER
10
9.87838875659257
20
6.80792621926155
30
0.0
 70
     32
  0
VERTEX
  8
MY3DLAYER
10
9.88385826771654
20
6.80452505868263
30
0.0
 70
     32
  0
VERTEX
  8
MY3DLAYER
10
9.88953851474223
20
6.80148890339244
30
0.0
 70
     32
  0
VERTEX
  8
MY3DLAYER
10
9.89540517397982
20
6.79883075467408
30
0.0
 70
     32
  0
VERTEX
  8
MY3DLAYER
10
9.90143312349379
20
6.79656199512843
30
0.0
 70
     32
  0
VERTEX
  8
MY3DLAYER
10
9.90759655067889
20
6.79469233993217
30
0.0
 70
     32
  0
VERTEX
  8
MY3DLAYER
10
9.9138690627937
20
6.7932297952359
30
0.0
 70
     32
  0
VERTEX
  8
MY3DLAYER
10
9.92022379997835
20
6.79218062388052
30
0.0
 70
     32
  0
VERTEX
  8
MY3DLAYER
10
9.92663355027263
20
6.79154931857887
30
0.0
 70
     32
  0
VERTEX
  8
MY3DLAYER
10
9.93307086614174
20
6.79133858267716
30
0.0
 70
     32
  0
VERTEX
  8
MY3DLAYER
10
9.93950818201085
20
6.79154931857887
30
0.0
 70
     32
  0
VERTEX
  8
MY3DLAYER
10
9.94591793230513
20
6.79218062388052
30
0.0
 70
     32
  0
VERTEX
  8
MY3DLAYER
10
9.95227266948979
20
6.7932297952359
30
0.0
 70
     32
  0
VERTEX
  8
MY3DLAYER
10
9.95854518160459
20
6.79469233993217
30
0.0
 70
     32
  0
VERTEX
  8
MY3DLAYER
10
9.96470860878969
20
6.79656199512843
30
0.0
 70
     32
  0
VERTEX
  8
MY3DLAYER
10
9.97073655830366
20
6.79883075467408
30
0.0
 70
     32
  0
VERTEX
  8
MY3DLAYER
10
9.97660321754125
20
6.80148890339244
30
0.0
 70
     32
  0
VERTEX
  8
MY3DLAYER
10
9.98228346456694
20
6.80452505868263
30
0.0
 70
     32
  0
VERTEX
  8
MY3DLAYER
10
9.98775297569091
20
6.80792621926155
30
0.0
 70
     32
  0
VERTEX
  8
MY3DLAYER
10
9.99298832962685
20
6.81167782083747
30
0.0
 70
     32
  0
VERTEX
  8
MY3DLAYER
10
9.99796710778545
20
6.81576379847647
30
0.0
 70
     32
  0
VERTEX
  8
MY3DLAYER
10
10.0026679902743
20
6.82016665539502
30
0.0
 70
     32
  0
VERTEX
  8
MY3DLAYER
10
10.0070708471928
20
6.82486753788384
30
0.0
 70
     32
  0
VERTEX
  8
MY3DLAYER
10
10.0111568248318
20
6.82984631604244
30
0.0
 70
     32
  0
VERTEX
  8
MY3DLAYER
10
10.0149084264077
20
6.83508166997838
30
0.0
 70
     32
  0
VERTEX
  8
MY3DLAYER
10
10.0183095869867
20
6.84055118110235
30
0.0
 70
     32
  0
VERTEX
  8
MY3DLAYER
10
10.0213457422768
20
6.84623142812804
30
0.0
 70
     32
  0
VERTEX
  8
MY3DLAYER
10
10.0240038909952
20
6.85209808736563
30
0.0
 70
     32
  0
VERTEX
  8
MY3DLAYER
10
10.0262726505409
20
6.8581260368796
30
0.0
 70
     32
  0
VERTEX
  8
MY3DLAYER
10
10.0281423057371
20
6.8642894640647
30
0.0
 70
     32
  0
VERTEX
  8
MY3DLAYER
10
10.0296048504334
20
6.87056197617951
30
0.0
 70
     32
  0
VERTEX
  8
MY3DLAYER
10
10.0306540217888
20
6.87691671336416
30
0.0
 70
     32
  0
VERTEX
  8
MY3DLAYER
10
10.0312853270904
20
6.88332646365844
30
0.0
 70
     32
  0
VERTEX
  8
MY3DLAYER
10
10.0314960629921
20
6.88976377952755
30
0.0
 70
     32
  0
VERTEX
  8
MY3DLAYER
10
10.0312853270904
20
6.89620109539666
30
0.0
 70
     32
  0
VERTEX
  8
MY3DLAYER
10
10.0306540217888
20
6.90261084569094
30
0.0
 70
     32
  0
VERTEX
  8
MY3DLAYER
10
10.0296048504334
20
6.9089655828756
30
0.0
 70
     32
  0
VERTEX
  8
MY3DLAYER
10
10.0281423057371
20
6.9152380949904
30
0.0
 70
     32
  0
VERTEX
  8
MY3DLAYER
10
10.0262726505409
20
6.9214015221755
30
0.0
 70
     32
  0
VERTEX
  8
MY3DLAYER
10
10.0240038909952
20
6.92742947168947
30
0.0
 70
     32
  0
VERTEX
  8
MY3DLAYER
10
10.0213457422768
20
6.93329613092706
30
0.0
 70
     32
  0
VERTEX
  8
MY3DLAYER
10
10.0183095869867
20
6.93897637795275
30
0.0
 70
     32
  0
VERTEX
  8
MY3DLAYER
10
10.0149084264077
20
6.94444588907672
30
0.0
 70
     32
  0
VERTEX
  8
MY3DLAYER
10
10.0111568248318
20
6.94968124301266
30
0.0
 70
     32
  0
VERTEX
  8
MY3DLAYER
10
10.0070708471928
20
6.95466002117126
30
0.0
 70
     32
  0
VERTEX
  8
MY3DLAYER
10
10.0026679902743
20
6.95936090366009
30
0.0
 70
     32
  0
VERTEX
  8
MY3DLAYER
10
9.99796710778545
20
6.96376376057863
30
0.0
 70
     32
  0
VERTEX
  8
MY3DLAYER
10
9.99298832962685
20
6.96784973821763
30
0.0
 70
     32
  0
VERTEX
  8
MY3DLAYER
10
9.98775297569091
20
6.97160133979355
30
0.0
 70
     32
  0
VERTEX
  8
MY3DLAYER
10
9.98228346456694
20
6.97500250037248
30
0.0
 70
     32
  0
VERTEX
  8
MY3DLAYER
10
9.97660321754125
20
6.97803865566266
30
0.0
 70
     32
  0
VERTEX
  8
MY3DLAYER
10
9.97073655830366
20
6.98069680438102
30
0.0
 70
     32
  0
VERTEX
  8
MY3DLAYER
10
9.96470860878969
20
6.98296556392668
30
0.0
 70
     32
  0
VERTEX
  8
MY3DLAYER
10
9.95854518160459
20
6.98483521912293
30
0.0
 70
     32
  0
VERTEX
  8
MY3DLAYER
10
9.95227266948979
20
6.98629776381921
30
0.0
 70
     32
  0
VERTEX
  8
MY3DLAYER
10
9.94591793230513
20
6.98734693517458
30
0.0
 70
     32
  0
VERTEX
  8
MY3DLAYER
10
9.93950818201085
20
6.98797824047623
30
0.0
 70
     32
  0
VERTEX
  8
MY3DLAYER
10
9.93307086614174
20
6.98818897637794
30
0.0
 70
     32
  0
VERTEX
  8
MY3DLAYER
10
9.92663355027263
20
6.98797824047623
30
0.0
 70
     32
  0
VERTEX
  8
MY3DLAYER
10
9.92022379997835
20
6.98734693517458
30
0.0
 70
     32
  0
VERTEX
  8
MY3DLAYER
10
9.9138690627937
20
6.98629776381921
30
0.0
 70
     32
  0
VERTEX
  8
MY3DLAYER
10
9.90759655067889
20
6.98483521912293
30
0.0
 70
     32
  0
VERTEX
  8
MY3DLAYER
10
9.90143312349379
20
6.98296556392668
30
0.0
 70
     32
  0
VERTEX
  8
MY3DLAYER
10
9.89540517397982
20
6.98069680438102
30
0.0
 70
     32
  0
VERTEX
  8
MY3DLAYER
10
9.88953851474223
20
6.97803865566266
30
0.0
 70
     32
  0
VERTEX
  8
MY3DLAYER
10
9.88385826771654
20
6.97500250037248
30
0.0
 70
     32
  0
VERTEX
  8
MY3DLAYER
10
9.87838875659257
20
6.97160133979355
30
0.0
 70
     32
  0
VERTEX
  8
MY3DLAYER
10
9.87315340265663
20
6.96784973821763
30
0.0
 70
     32
  0
VERTEX
  8
MY3DLAYER
10
9.86817462449803
20
6.96376376057863
30
0.0
 70
     32
  0
VERTEX
  8
MY3DLAYER
10
9.86347374200921
20
6.95936090366008
30
0.0
 70
     32
  0
VERTEX
  8
MY3DLAYER
10
9.85907088509066
20
6.95466002117126
30
0.0
 70
     32
  0
VERTEX
  8
MY3DLAYER
10
9.85498490745166
20
6.94968124301266
30
0.0
 70
     32
  0
VERTEX
  8
MY3DLAYER
10
9.85123330587574
20
6.94444588907672
30
0.0
 70
     32
  0
VERTEX
  8
MY3DLAYER
10
9.84783214529681
20
6.93897637795275
30
0.0
 70
     32
  0
VERTEX
  8
MY3DLAYER
10
9.84479599000663
20
6.93329613092706
30
0.0
 70
     32
  0
VERTEX
  8
MY3DLAYER
10
9.84213784128827
20
6.92742947168947
30
0.0
 70
     32
  0
VERTEX
  8
MY3DLAYER
10
9.83986908174262
20
6.9214015221755
30
0.0
 70
     32
  0
VERTEX
  8
MY3DLAYER
10
9.83799942654636
20
6.9152380949904
30
0.0
 70
     32
  0
VERTEX
  8
MY3DLAYER
10
9.83653688185008
20
6.90896558287559
30
0.0
 70
     32
  0
VERTEX
  8
MY3DLAYER
10
9.83548771049471
20
6.90261084569094
30
0.0
 70
     32
  0
VERTEX
  8
MY3DLAYER
10
9.83485640519306
20
6.89620109539666
30
0.0
 70
     32
  0
VERTEX
  8
MY3DLAYER
10
9.83464566929134
20
6.88976377952755
30
0.0
 70
     32
  0
SEQEND
  0
POLYLINE
 8
Layer0
 66
     1
70
    8
 10
0.0
 20
 0.0
 30
0.0
  0
VERTEX
  8
MY3DLAYER
10
10.0314960629921
20
0.393700787401575
30
0.0
 70
     32
  0
VERTEX
  8
MY3DLAYER
10
10.0312853270904
20
0.400138103270683
30
0.0
 70
     32
  0
VERTEX
  8
MY3DLAYER
10
10.0306540217888
20
0.406547853564966
30
0.0
 70
     32
  0
VERTEX
  8
MY3DLAYER
10
10.0296048504334
20
0.412902590749619
30
0.0
 70
     32
  0
VERTEX
  8
MY3DLAYER
10
10.0281423057371
20
0.419175102864421
30
0.0
 70
     32
  0
VERTEX
  8
MY3DLAYER
10
10.0262726505409
20
0.425338530049524
30
0.0
 70
     32
  0
VERTEX
  8
MY3DLAYER
10
10.0240038909952
20
0.431366479563493
30
0.0
 70
     32
  0
VERTEX
  8
MY3DLAYER
10
10.0213457422768
20
0.437233138801083
30
0.0
 70
     32
  0
VERTEX
  8
MY3DLAYER
10
10.0183095869867
20
0.442913385826772
30
0.0
 70
     32
  0
VERTEX
  8
MY3DLAYER
10
10.0149084264077
20
0.448382896950748
30
0.0
 70
     32
  0
VERTEX
  8
MY3DLAYER
10
10.0111568248318
20
0.453618250886685
30
0.0
 70
     32
  0
VERTEX
  8
MY3DLAYER
10
10.0070708471928
20
0.458597029045282
30
0.0
 70
     32
  0
VERTEX
  8
MY3DLAYER
10
10.0026679902743
20
0.463297911534109
30
0.0
 70
     32
  0
VERTEX
  8
MY3DLAYER
10
9.99796710778545
20
0.467700768452655
30
0.0
 70
     32
  0
VERTEX
  8
MY3DLAYER
10
9.99298832962685
20
0.471786746091657
30
0.0
 70
     32
  0
VERTEX
  8
MY3DLAYER
10
9.98775297569091
20
0.475538347667573
30
0.0
 70
     32
  0
VERTEX
  8
MY3DLAYER
10
9.98228346456694
20
0.4789395082465
30
0.0
 70
     32
  0
VERTEX
  8
MY3DLAYER
10
9.97660321754125
20
0.481975663536682
30
0.0
 70
     32
  0
VERTEX
  8
MY3DLAYER
10
9.97073655830366
20
0.484633812255048
30
0.0
 70
     32
  0
VERTEX
  8
MY3DLAYER
10
9.96470860878969
20
0.486902571800699
30
0.0
 70
     32
  0
VERTEX
  8
MY3DLAYER
10
9.95854518160459
20
0.488772226996955
30
0.0
 70
     32
  0
VERTEX
  8
MY3DLAYER
10
9.95227266948979
20
0.490234771693231
30
0.0
 70
     32
  0
VERTEX
  8
MY3DLAYER
10
9.94591793230513
20
0.491283943048603
30
0.0
 70
     32
  0
VERTEX
  8
MY3DLAYER
10
9.93950818201085
20
0.491915248350256
30
0.0
 70
     32
  0
VERTEX
  8
MY3DLAYER
10
9.93307086614174
20
0.492125984251968
30
0.0
 70
     32
  0
VERTEX
  8
MY3DLAYER
10
9.92663355027263
20
0.491915248350256
30
0.0
 70
     32
  0
VERTEX
  8
MY3DLAYER
10
9.92022379997835
20
0.491283943048603
30
0.0
 70
     32
  0
VERTEX
  8
MY3DLAYER
10
9.9138690627937
20
0.490234771693231
30
0.0
 70
     32
  0
VERTEX
  8
MY3DLAYER
10
9.90759655067889
20
0.488772226996955
30
0.0
 70
     32
  0
VERTEX
  8
MY3DLAYER
10
9.90143312349379
20
0.486902571800699
30
0.0
 70
     32
  0
VERTEX
  8
MY3DLAYER
10
9.89540517397982
20
0.484633812255048
30
0.0
 70
     32
  0
VERTEX
  8
MY3DLAYER
10
9.88953851474223
20
0.481975663536682
30
0.0
 70
     32
  0
VERTEX
  8
MY3DLAYER
10
9.88385826771654
20
0.4789395082465
30
0.0
 70
     32
  0
VERTEX
  8
MY3DLAYER
10
9.87838875659257
20
0.475538347667573
30
0.0
 70
     32
  0
VERTEX
  8
MY3DLAYER
10
9.87315340265663
20
0.471786746091657
30
0.0
 70
     32
  0
VERTEX
  8
MY3DLAYER
10
9.86817462449803
20
0.467700768452655
30
0.0
 70
     32
  0
VERTEX
  8
MY3DLAYER
10
9.86347374200921
20
0.463297911534109
30
0.0
 70
     32
  0
VERTEX
  8
MY3DLAYER
10
9.85907088509066
20
0.458597029045282
30
0.0
 70
     32
  0
VERTEX
  8
MY3DLAYER
10
9.85498490745166
20
0.453618250886685
30
0.0
 70
     32
  0
VERTEX
  8
MY3DLAYER
10
9.85123330587574
20
0.448382896950748
30
0.0
 70
     32
  0
VERTEX
  8
MY3DLAYER
10
9.84783214529681
20
0.442913385826772
30
0.0
 70
     32
  0
VERTEX
  8
MY3DLAYER
10
9.84479599000663
20
0.437233138801083
30
0.0
 70
     32
  0
VERTEX
  8
MY3DLAYER
10
9.84213784128827
20
0.431366479563493
30
0.0
 70
     32
  0
VERTEX
  8
MY3DLAYER
10
9.83986908174262
20
0.425338530049524
30
0.0
 70
     32
  0
VERTEX
  8
MY3DLAYER
10
9.83799942654636
20
0.419175102864422
30
0.0
 70
     32
  0
VERTEX
  8
MY3DLAYER
10
9.83653688185008
20
0.412902590749619
30
0.0
 70
     32
  0
VERTEX
  8
MY3DLAYER
10
9.83548771049471
20
0.406547853564966
30
0.0
 70
     32
  0
VERTEX
  8
MY3DLAYER
10
9.83485640519306
20
0.400138103270684
30
0.0
 70
     32
  0
VERTEX
  8
MY3DLAYER
10
9.83464566929135
20
0.393700787401575
30
0.0
 70
     32
  0
VERTEX
  8
MY3DLAYER
10
9.83485640519306
20
0.387263471532467
30
0.0
 70
     32
  0
VERTEX
  8
MY3DLAYER
10
9.83548771049471
20
0.380853721238184
30
0.0
 70
     32
  0
VERTEX
  8
MY3DLAYER
10
9.83653688185008
20
0.374498984053531
30
0.0
 70
     32
  0
VERTEX
  8
MY3DLAYER
10
9.83799942654636
20
0.368226471938729
30
0.0
 70
     32
  0
VERTEX
  8
MY3DLAYER
10
9.83986908174262
20
0.362063044753626
30
0.0
 70
     32
  0
VERTEX
  8
MY3DLAYER
10
9.84213784128827
20
0.356035095239657
30
0.0
 70
     32
  0
VERTEX
  8
MY3DLAYER
10
9.84479599000663
20
0.350168436002067
30
0.0
 70
     32
  0
VERTEX
  8
MY3DLAYER
10
9.84783214529681
20
0.344488188976378
30
0.0
 70
     32
  0
VERTEX
  8
MY3DLAYER
10
9.85123330587574
20
0.339018677852402
30
0.0
 70
     32
  0
VERTEX
  8
MY3DLAYER
10
9.85498490745166
20
0.333783323916465
30
0.0
 70
     32
  0
VERTEX
  8
MY3DLAYER
10
9.85907088509066
20
0.328804545757868
30
0.0
 70
     32
  0
VERTEX
  8
MY3DLAYER
10
9.86347374200921
20
0.324103663269041
30
0.0
 70
     32
  0
VERTEX
  8
MY3DLAYER
10
9.86817462449803
20
0.319700806350495
30
0.0
 70
     32
  0
VERTEX
  8
MY3DLAYER
10
9.87315340265663
20
0.315614828711493
30
0.0
 70
     32
  0
VERTEX
  8
MY3DLAYER
10
9.87838875659257
20
0.311863227135577
30
0.0
 70
     32
  0
VERTEX
  8
MY3DLAYER
10
9.88385826771654
20
0.30846206655665
30
0.0
 70
     32
  0
VERTEX
  8
MY3DLAYER
10
9.88953851474223
20
0.305425911266468
30
0.0
 70
     32
  0
VERTEX
  8
MY3DLAYER
10
9.89540517397982
20
0.302767762548102
30
0.0
 70
     32
  0
VERTEX
  8
MY3DLAYER
10
9.90143312349379
20
0.30049900300245
30
0.0
 70
     32
  0
VERTEX
  8
MY3DLAYER
10
9.90759655067889
20
0.298629347806194
30
0.0
 70
     32
  0
VERTEX
  8
MY3DLAYER
10
9.9138690627937
20
0.297166803109919
30
0.0
 70
     32
  0
VERTEX
  8
MY3DLAYER
10
9.92022379997835
20
0.296117631754546
30
0.0
 70
     32
  0
VERTEX
  8
MY3DLAYER
10
9.92663355027263
20
0.295486326452894
30
0.0
 70
     32
  0
VERTEX
  8
MY3DLAYER
10
9.93307086614174
20
0.295275590551181
30
0.0
 70
     32
  0
VERTEX
  8
MY3DLAYER
10
9.93950818201085
20
0.295486326452894
30
0.0
 70
     32
  0
VERTEX
  8
MY3DLAYER
10
9.94591793230513
20
0.296117631754546
30
0.0
 70
     32
  0
VERTEX
  8
MY3DLAYER
10
9.95227266948979
20
0.297166803109919
30
0.0
 70
     32
  0
VERTEX
  8
MY3DLAYER
10
9.95854518160459
20
0.298629347806194
30
0.0
 70
     32
  0
VERTEX
  8
MY3DLAYER
10
9.96470860878969
20
0.300499003002451
30
0.0
 70
     32
  0
VERTEX
  8
MY3DLAYER
10
9.97073655830366
20
0.302767762548102
30
0.0
 70
     32
  0
VERTEX
  8
MY3DLAYER
10
9.97660321754125
20
0.305425911266468
30
0.0
 70
     32
  0
VERTEX
  8
MY3DLAYER
10
9.98228346456694
20
0.30846206655665
30
0.0
 70
     32
  0
VERTEX
  8
MY3DLAYER
10
9.98775297569091
20
0.311863227135577
30
0.0
 70
     32
  0
VERTEX
  8
MY3DLAYER
10
9.99298832962685
20
0.315614828711493
30
0.0
 70
     32
  0
VERTEX
  8
MY3DLAYER
10
9.99796710778545
20
0.319700806350495
30
0.0
 70
     32
  0
VERTEX
  8
MY3DLAYER
10
10.0026679902743
20
0.324103663269041
30
0.0
 70
     32
  0
VERTEX
  8
MY3DLAYER
10
10.0070708471928
20
0.328804545757868
30
0.0
 70
     32
  0
VERTEX
  8
MY3DLAYER
10
10.0111568248318
20
0.333783323916465
30
0.0
 70
     32
  0
VERTEX
  8
MY3DLAYER
10
10.0149084264077
20
0.339018677852402
30
0.0
 70
     32
  0
VERTEX
  8
MY3DLAYER
10
10.0183095869867
20
0.344488188976379
30
0.0
 70
     32
  0
VERTEX
  8
MY3DLAYER
10
10.0213457422768
20
0.350168436002068
30
0.0
 70
     32
  0
VERTEX
  8
MY3DLAYER
10
10.0240038909952
20
0.356035095239657
30
0.0
 70
     32
  0
VERTEX
  8
MY3DLAYER
10
10.0262726505409
20
0.362063044753627
30
0.0
 70
     32
  0
VERTEX
  8
MY3DLAYER
10
10.0281423057371
20
0.368226471938729
30
0.0
 70
     32
  0
VERTEX
  8
MY3DLAYER
10
10.0296048504334
20
0.374498984053532
30
0.0
 70
     32
  0
VERTEX
  8
MY3DLAYER
10
10.0306540217888
20
0.380853721238185
30
0.0
 70
     32
  0
VERTEX
  8
MY3DLAYER
10
10.0312853270904
20
0.387263471532467
30
0.0
 70
     32
  0
VERTEX
  8
MY3DLAYER
10
10.0314960629921
20
0.393700787401575
30
0.0
 70
     32
  0
SEQEND
  0
POLYLINE
 8
Layer0
 66
     1
70
    8
 10
0.0
 20
 0.0
 30
0.0
  0
VERTEX
  8
MY3DLAYER
10
10.6220472440945
20
0.393700787401575
30
0.0
 70
     32
  0
VERTEX
  8
MY3DLAYER
10
10.6222579799962
20
0.387263471532466
30
0.0
 70
     32
  0
VERTEX
  8
MY3DLAYER
10
10.6228892852979
20
0.380853721238184
30
0.0
 70
     32
  0
VERTEX
  8
MY3DLAYER
10
10.6239384566532
20
0.374498984053531
30
0.0
 70
     32
  0
VERTEX
  8
MY3DLAYER
10
10.6254010013495
20
0.368226471938728
30
0.0
 70
     32
  0
VERTEX
  8
MY3DLAYER
10
10.6272706565458
20
0.362063044753626
30
0.0
 70
     32
  0
VERTEX
  8
MY3DLAYER
10
10.6295394160914
20
0.356035095239657
30
0.0
 70
     32
  0
VERTEX
  8
MY3DLAYER
10
10.6321975648098
20
0.350168436002067
30
0.0
 70
     32
  0
VERTEX
  8
MY3DLAYER
10
10.6352337201
20
0.344488188976378
30
0.0
 70
     32
  0
VERTEX
  8
MY3DLAYER
10
10.6386348806789
20
0.339018677852401
30
0.0
 70
     32
  0
VERTEX
  8
MY3DLAYER
10
10.6423864822548
20
0.333783323916465
30
0.0
 70
     32
  0
VERTEX
  8
MY3DLAYER
10
10.6464724598938
20
0.328804545757867
30
0.0
 70
     32
  0
VERTEX
  8
MY3DLAYER
10
10.6508753168124
20
0.324103663269041
30
0.0
 70
     32
  0
VERTEX
  8
MY3DLAYER
10
10.6555761993012
20
0.319700806350494
30
0.0
 70
     32
  0
VERTEX
  8
MY3DLAYER
10
10.6605549774598
20
0.315614828711493
30
0.0
 70
     32
  0
VERTEX
  8
MY3DLAYER
10
10.6657903313957
20
0.311863227135576
30
0.0
 70
     32
  0
VERTEX
  8
MY3DLAYER
10
10.6712598425197
20
0.30846206655665
30
0.0
 70
     32
  0
VERTEX
  8
MY3DLAYER
10
10.6769400895454
20
0.305425911266468
30
0.0
 70
     32
  0
VERTEX
  8
MY3DLAYER
10
10.682806748783
20
0.302767762548102
30
0.0
 70
     32
  0
VERTEX
  8
MY3DLAYER
10
10.6888346982969
20
0.30049900300245
30
0.0
 70
     32
  0
VERTEX
  8
MY3DLAYER
10
10.694998125482
20
0.298629347806194
30
0.0
 70
     32
  0
VERTEX
  8
MY3DLAYER
10
10.7012706375968
20
0.297166803109918
30
0.0
 70
     32
  0
VERTEX
  8
MY3DLAYER
10
10.7076253747815
20
0.296117631754546
30
0.0
 70
     32
  0
VERTEX
  8
MY3DLAYER
10
10.7140351250758
20
0.295486326452894
30
0.0
 70
     32
  0
VERTEX
  8
MY3DLAYER
10
10.7204724409449
20
0.295275590551181
30
0.0
 70
     32
  0
VERTEX
  8
MY3DLAYER
10
10.726909756814
20
0.295486326452894
30
0.0
 70
     32
  0
VERTEX
  8
MY3DLAYER
10
10.7333195071083
20
0.296117631754546
30
0.0
 70
     32
  0
VERTEX
  8
MY3DLAYER
10
10.7396742442929
20
0.297166803109918
30
0.0
 70
     32
  0
VERTEX
  8
MY3DLAYER
10
10.7459467564077
20
0.298629347806194
30
0.0
 70
     32
  0
VERTEX
  8
MY3DLAYER
10
10.7521101835928
20
0.30049900300245
30
0.0
 70
     32
  0
VERTEX
  8
MY3DLAYER
10
10.7581381331068
20
0.302767762548102
30
0.0
 70
     32
  0
VERTEX
  8
MY3DLAYER
10
10.7640047923444
20
0.305425911266468
30
0.0
 70
     32
  0
VERTEX
  8
MY3DLAYER
10
10.7696850393701
20
0.30846206655665
30
0.0
 70
     32
  0
VERTEX
  8
MY3DLAYER
10
10.7751545504941
20
0.311863227135576
30
0.0
 70
     32
  0
VERTEX
  8
MY3DLAYER
10
10.78038990443
20
0.315614828711493
30
0.0
 70
     32
  0
VERTEX
  8
MY3DLAYER
10
10.7853686825886
20
0.319700806350494
30
0.0
 70
     32
  0
VERTEX
  8
MY3DLAYER
10
10.7900695650774
20
0.324103663269041
30
0.0
 70
     32
  0
VERTEX
  8
MY3DLAYER
10
10.794472421996
20
0.328804545757867
30
0.0
 70
     32
  0
VERTEX
  8
MY3DLAYER
10
10.798558399635
20
0.333783323916464
30
0.0
 70
     32
  0
VERTEX
  8
MY3DLAYER
10
10.8023100012109
20
0.339018677852401
30
0.0
 70
     32
  0
VERTEX
  8
MY3DLAYER
10
10.8057111617898
20
0.344488188976378
30
0.0
 70
     32
  0
VERTEX
  8
MY3DLAYER
10
10.80874731708
20
0.350168436002067
30
0.0
 70
     32
  0
VERTEX
  8
MY3DLAYER
10
10.8114054657984
20
0.356035095239656
30
0.0
 70
     32
  0
VERTEX
  8
MY3DLAYER
10
10.813674225344
20
0.362063044753626
30
0.0
 70
     32
  0
VERTEX
  8
MY3DLAYER
10
10.8155438805403
20
0.368226471938728
30
0.0
 70
     32
  0
VERTEX
  8
MY3DLAYER
10
10.8170064252365
20
0.37449898405353
30
0.0
 70
     32
  0
VERTEX
  8
MY3DLAYER
10
10.8180555965919
20
0.380853721238184
30
0.0
 70
     32
  0
VERTEX
  8
MY3DLAYER
10
10.8186869018936
20
0.387263471532466
30
0.0
 70
     32
  0
VERTEX
  8
MY3DLAYER
10
10.8188976377953
20
0.393700787401575
30
0.0
 70
     32
  0
VERTEX
  8
MY3DLAYER
10
10.8186869018936
20
0.400138103270683
30
0.0
 70
     32
  0
VERTEX
  8
MY3DLAYER
10
10.8180555965919
20
0.406547853564965
30
0.0
 70
     32
  0
VERTEX
  8
MY3DLAYER
10
10.8170064252365
20
0.412902590749619
30
0.0
 70
     32
  0
VERTEX
  8
MY3DLAYER
10
10.8155438805403
20
0.419175102864421
30
0.0
 70
     32
  0
VERTEX
  8
MY3DLAYER
10
10.813674225344
20
0.425338530049523
30
0.0
 70
     32
  0
VERTEX
  8
MY3DLAYER
10
10.8114054657984
20
0.431366479563493
30
0.0
 70
     32
  0
VERTEX
  8
MY3DLAYER
10
10.80874731708
20
0.437233138801082
30
0.0
 70
     32
  0
VERTEX
  8
MY3DLAYER
10
10.8057111617898
20
0.442913385826771
30
0.0
 70
     32
  0
VERTEX
  8
MY3DLAYER
10
10.8023100012109
20
0.448382896950748
30
0.0
 70
     32
  0
VERTEX
  8
MY3DLAYER
10
10.798558399635
20
0.453618250886685
30
0.0
 70
     32
  0
VERTEX
  8
MY3DLAYER
10
10.794472421996
20
0.458597029045282
30
0.0
 70
     32
  0
VERTEX
  8
MY3DLAYER
10
10.7900695650774
20
0.463297911534109
30
0.0
 70
     32
  0
VERTEX
  8
MY3DLAYER
10
10.7853686825886
20
0.467700768452655
30
0.0
 70
     32
  0
VERTEX
  8
MY3DLAYER
10
10.78038990443
20
0.471786746091657
30
0.0
 70
     32
  0
VERTEX
  8
MY3DLAYER
10
10.7751545504941
20
0.475538347667573
30
0.0
 70
     32
  0
VERTEX
  8
MY3DLAYER
10
10.7696850393701
20
0.4789395082465
30
0.0
 70
     32
  0
VERTEX
  8
MY3DLAYER
10
10.7640047923444
20
0.481975663536682
30
0.0
 70
     32
  0
VERTEX
  8
MY3DLAYER
10
10.7581381331068
20
0.484633812255048
30
0.0
 70
     32
  0
VERTEX
  8
MY3DLAYER
10
10.7521101835928
20
0.486902571800699
30
0.0
 70
     32
  0
VERTEX
  8
MY3DLAYER
10
10.7459467564077
20
0.488772226996955
30
0.0
 70
     32
  0
VERTEX
  8
MY3DLAYER
10
10.7396742442929
20
0.490234771693231
30
0.0
 70
     32
  0
VERTEX
  8
MY3DLAYER
10
10.7333195071083
20
0.491283943048603
30
0.0
 70
     32
  0
VERTEX
  8
MY3DLAYER
10
10.726909756814
20
0.491915248350256
30
0.0
 70
     32
  0
VERTEX
  8
MY3DLAYER
10
10.7204724409449
20
0.492125984251968
30
0.0
 70
     32
  0
VERTEX
  8
MY3DLAYER
10
10.7140351250758
20
0.491915248350256
30
0.0
 70
     32
  0
VERTEX
  8
MY3DLAYER
10
10.7076253747815
20
0.491283943048603
30
0.0
 70
     32
  0
VERTEX
  8
MY3DLAYER
10
10.7012706375968
20
0.490234771693231
30
0.0
 70
     32
  0
VERTEX
  8
MY3DLAYER
10
10.694998125482
20
0.488772226996955
30
0.0
 70
     32
  0
VERTEX
  8
MY3DLAYER
10
10.6888346982969
20
0.486902571800699
30
0.0
 70
     32
  0
VERTEX
  8
MY3DLAYER
10
10.682806748783
20
0.484633812255048
30
0.0
 70
     32
  0
VERTEX
  8
MY3DLAYER
10
10.6769400895454
20
0.481975663536682
30
0.0
 70
     32
  0
VERTEX
  8
MY3DLAYER
10
10.6712598425197
20
0.4789395082465
30
0.0
 70
     32
  0
VERTEX
  8
MY3DLAYER
10
10.6657903313957
20
0.475538347667573
30
0.0
 70
     32
  0
VERTEX
  8
MY3DLAYER
10
10.6605549774598
20
0.471786746091657
30
0.0
 70
     32
  0
VERTEX
  8
MY3DLAYER
10
10.6555761993012
20
0.467700768452655
30
0.0
 70
     32
  0
VERTEX
  8
MY3DLAYER
10
10.6508753168124
20
0.463297911534108
30
0.0
 70
     32
  0
VERTEX
  8
MY3DLAYER
10
10.6464724598938
20
0.458597029045282
30
0.0
 70
     32
  0
VERTEX
  8
MY3DLAYER
10
10.6423864822548
20
0.453618250886685
30
0.0
 70
     32
  0
VERTEX
  8
MY3DLAYER
10
10.6386348806789
20
0.448382896950748
30
0.0
 70
     32
  0
VERTEX
  8
MY3DLAYER
10
10.6352337201
20
0.442913385826771
30
0.0
 70
     32
  0
VERTEX
  8
MY3DLAYER
10
10.6321975648098
20
0.437233138801082
30
0.0
 70
     32
  0
VERTEX
  8
MY3DLAYER
10
10.6295394160914
20
0.431366479563492
30
0.0
 70
     32
  0
VERTEX
  8
MY3DLAYER
10
10.6272706565458
20
0.425338530049523
30
0.0
 70
     32
  0
VERTEX
  8
MY3DLAYER
10
10.6254010013495
20
0.419175102864421
30
0.0
 70
     32
  0
VERTEX
  8
MY3DLAYER
10
10.6239384566532
20
0.412902590749618
30
0.0
 70
     32
  0
VERTEX
  8
MY3DLAYER
10
10.6228892852979
20
0.406547853564965
30
0.0
 70
     32
  0
VERTEX
  8
MY3DLAYER
10
10.6222579799962
20
0.400138103270682
30
0.0
 70
     32
  0
VERTEX
  8
MY3DLAYER
10
10.6220472440945
20
0.393700787401575
30
0.0
 70
     32
  0
SEQEND
  0
POLYLINE
 8
Layer0
 66
     1
70
    8
 10
0.0
 20
 0.0
 30
0.0
  0
VERTEX
  8
MY3DLAYER
10
8.45669291338584
20
3.64173228346457
30
0.0
 70
     32
  0
VERTEX
  8
MY3DLAYER
10
8.45648217748412
20
3.64816959933368
30
0.0
 70
     32
  0
VERTEX
  8
MY3DLAYER
10
8.45585087218246
20
3.65457934962796
30
0.0
 70
     32
  0
VERTEX
  8
MY3DLAYER
10
8.45480170082709
20
3.66093408681261
30
0.0
 70
     32
  0
VERTEX
  8
MY3DLAYER
10
8.45333915613082
20
3.66720659892741
30
0.0
 70
     32
  0
VERTEX
  8
MY3DLAYER
10
8.45146950093456
20
3.67337002611252
30
0.0
 70
     32
  0
VERTEX
  8
MY3DLAYER
10
8.44920074138891
20
3.67939797562649
30
0.0
 70
     32
  0
VERTEX
  8
MY3DLAYER
10
8.44654259267054
20
3.68526463486408
30
0.0
 70
     32
  0
VERTEX
  8
MY3DLAYER
10
8.44350643738036
20
3.69094488188976
30
0.0
 70
     32
  0
VERTEX
  8
MY3DLAYER
10
8.44010527680144
20
3.69641439301374
30
0.0
 70
     32
  0
VERTEX
  8
MY3DLAYER
10
8.43635367522552
20
3.70164974694968
30
0.0
 70
     32
  0
VERTEX
  8
MY3DLAYER
10
8.43226769758652
20
3.70662852510827
30
0.0
 70
     32
  0
VERTEX
  8
MY3DLAYER
10
8.42786484066797
20
3.7113294075971
30
0.0
 70
     32
  0
VERTEX
  8
MY3DLAYER
10
8.42316395817914
20
3.71573226451565
30
0.0
 70
     32
  0
VERTEX
  8
MY3DLAYER
10
8.41818518002055
20
3.71981824215465
30
0.0
 70
     32
  0
VERTEX
  8
MY3DLAYER
10
8.41294982608461
20
3.72356984373057
30
0.0
 70
     32
  0
VERTEX
  8
MY3DLAYER
10
8.40748031496063
20
3.72697100430949
30
0.0
 70
     32
  0
VERTEX
  8
MY3DLAYER
10
8.40180006793494
20
3.73000715959967
30
0.0
 70
     32
  0
VERTEX
  8
MY3DLAYER
10
8.39593340869735
20
3.73266530831804
30
0.0
 70
     32
  0
VERTEX
  8
MY3DLAYER
10
8.38990545918339
20
3.73493406786369
30
0.0
 70
     32
  0
VERTEX
  8
MY3DLAYER
10
8.38374203199828
20
3.73680372305995
30
0.0
 70
     32
  0
VERTEX
  8
MY3DLAYER
10
8.37746951988348
20
3.73826626775622
30
0.0
 70
     32
  0
VERTEX
  8
MY3DLAYER
10
8.37111478269883
20
3.7393154391116
30
0.0
 70
     32
  0
VERTEX
  8
MY3DLAYER
10
8.36470503240455
20
3.73994674441325
30
0.0
 70
     32
  0
VERTEX
  8
MY3DLAYER
10
8.35826771653544
20
3.74015748031496
30
0.0
 70
     32
  0
VERTEX
  8
MY3DLAYER
10
8.35183040066633
20
3.73994674441325
30
0.0
 70
     32
  0
VERTEX
  8
MY3DLAYER
10
8.34542065037205
20
3.7393154391116
30
0.0
 70
     32
  0
VERTEX
  8
MY3DLAYER
10
8.33906591318739
20
3.73826626775622
30
0.0
 70
     32
  0
VERTEX
  8
MY3DLAYER
10
8.33279340107259
20
3.73680372305995
30
0.0
 70
     32
  0
VERTEX
  8
MY3DLAYER
10
8.32662997388749
20
3.73493406786369
30
0.0
 70
     32
  0
VERTEX
  8
MY3DLAYER
10
8.32060202437352
20
3.73266530831804
30
0.0
 70
     32
  0
VERTEX
  8
MY3DLAYER
10
8.31473536513593
20
3.73000715959967
30
0.0
 70
     32
  0
VERTEX
  8
MY3DLAYER
10
8.30905511811024
20
3.72697100430949
30
0.0
 70
     32
  0
VERTEX
  8
MY3DLAYER
10
8.30358560698626
20
3.72356984373057
30
0.0
 70
     32
  0
VERTEX
  8
MY3DLAYER
10
8.29835025305033
20
3.71981824215465
30
0.0
 70
     32
  0
VERTEX
  8
MY3DLAYER
10
8.29337147489173
20
3.71573226451565
30
0.0
 70
     32
  0
VERTEX
  8
MY3DLAYER
10
8.2886705924029
20
3.7113294075971
30
0.0
 70
     32
  0
VERTEX
  8
MY3DLAYER
10
8.28426773548436
20
3.70662852510827
30
0.0
 70
     32
  0
VERTEX
  8
MY3DLAYER
10
8.28018175784536
20
3.70164974694968
30
0.0
 70
     32
  0
VERTEX
  8
MY3DLAYER
10
8.27643015626944
20
3.69641439301374
30
0.0
 70
     32
  0
VERTEX
  8
MY3DLAYER
10
8.27302899569051
20
3.69094488188976
30
0.0
 70
     32
  0
VERTEX
  8
MY3DLAYER
10
8.26999284040033
20
3.68526463486408
30
0.0
 70
     32
  0
VERTEX
  8
MY3DLAYER
10
8.26733469168196
20
3.67939797562649
30
0.0
 70
     32
  0
VERTEX
  8
MY3DLAYER
10
8.26506593213631
20
3.67337002611252
30
0.0
 70
     32
  0
VERTEX
  8
MY3DLAYER
10
8.26319627694006
20
3.66720659892741
30
0.0
 70
     32
  0
VERTEX
  8
MY3DLAYER
10
8.26173373224378
20
3.66093408681261
30
0.0
 70
     32
  0
VERTEX
  8
MY3DLAYER
10
8.26068456088841
20
3.65457934962796
30
0.0
 70
     32
  0
VERTEX
  8
MY3DLAYER
10
8.26005325558676
20
3.64816959933368
30
0.0
 70
     32
  0
VERTEX
  8
MY3DLAYER
10
8.25984251968504
20
3.64173228346457
30
0.0
 70
     32
  0
VERTEX
  8
MY3DLAYER
10
8.26005325558676
20
3.63529496759546
30
0.0
 70
     32
  0
VERTEX
  8
MY3DLAYER
10
8.26068456088841
20
3.62888521730118
30
0.0
 70
     32
  0
VERTEX
  8
MY3DLAYER
10
8.26173373224378
20
3.62253048011652
30
0.0
 70
     32
  0
VERTEX
  8
MY3DLAYER
10
8.26319627694006
20
3.61625796800172
30
0.0
 70
     32
  0
VERTEX
  8
MY3DLAYER
10
8.26506593213631
20
3.61009454081662
30
0.0
 70
     32
  0
VERTEX
  8
MY3DLAYER
10
8.26733469168196
20
3.60406659130265
30
0.0
 70
     32
  0
VERTEX
  8
MY3DLAYER
10
8.26999284040033
20
3.59819993206506
30
0.0
 70
     32
  0
VERTEX
  8
MY3DLAYER
10
8.27302899569051
20
3.59251968503937
30
0.0
 70
     32
  0
VERTEX
  8
MY3DLAYER
10
8.27643015626944
20
3.58705017391539
30
0.0
 70
     32
  0
VERTEX
  8
MY3DLAYER
10
8.28018175784536
20
3.58181481997946
30
0.0
 70
     32
  0
VERTEX
  8
MY3DLAYER
10
8.28426773548436
20
3.57683604182086
30
0.0
 70
     32
  0
VERTEX
  8
MY3DLAYER
10
8.2886705924029
20
3.57213515933203
30
0.0
 70
     32
  0
VERTEX
  8
MY3DLAYER
10
8.29337147489173
20
3.56773230241349
30
0.0
 70
     32
  0
VERTEX
  8
MY3DLAYER
10
8.29835025305033
20
3.56364632477449
30
0.0
 70
     32
  0
VERTEX
  8
MY3DLAYER
10
8.30358560698626
20
3.55989472319857
30
0.0
 70
     32
  0
VERTEX
  8
MY3DLAYER
10
8.30905511811024
20
3.55649356261964
30
0.0
 70
     32
  0
VERTEX
  8
MY3DLAYER
10
8.31473536513593
20
3.55345740732946
30
0.0
 70
     32
  0
VERTEX
  8
MY3DLAYER
10
8.32060202437352
20
3.55079925861109
30
0.0
 70
     32
  0
VERTEX
  8
MY3DLAYER
10
8.32662997388749
20
3.54853049906544
30
0.0
 70
     32
  0
VERTEX
  8
MY3DLAYER
10
8.33279340107259
20
3.54666084386919
30
0.0
 70
     32
  0
VERTEX
  8
MY3DLAYER
10
8.33906591318739
20
3.54519829917291
30
0.0
 70
     32
  0
VERTEX
  8
MY3DLAYER
10
8.34542065037205
20
3.54414912781754
30
0.0
 70
     32
  0
VERTEX
  8
MY3DLAYER
10
8.35183040066633
20
3.54351782251589
30
0.0
 70
     32
  0
VERTEX
  8
MY3DLAYER
10
8.35826771653544
20
3.54330708661417
30
0.0
 70
     32
  0
VERTEX
  8
MY3DLAYER
10
8.36470503240455
20
3.54351782251589
30
0.0
 70
     32
  0
VERTEX
  8
MY3DLAYER
10
8.37111478269883
20
3.54414912781754
30
0.0
 70
     32
  0
VERTEX
  8
MY3DLAYER
10
8.37746951988348
20
3.54519829917291
30
0.0
 70
     32
  0
VERTEX
  8
MY3DLAYER
10
8.38374203199828
20
3.54666084386919
30
0.0
 70
     32
  0
VERTEX
  8
MY3DLAYER
10
8.38990545918339
20
3.54853049906544
30
0.0
 70
     32
  0
VERTEX
  8
MY3DLAYER
10
8.39593340869736
20
3.55079925861109
30
0.0
 70
     32
  0
VERTEX
  8
MY3DLAYER
10
8.40180006793494
20
3.55345740732946
30
0.0
 70
     32
  0
VERTEX
  8
MY3DLAYER
10
8.40748031496063
20
3.55649356261964
30
0.0
 70
     32
  0
VERTEX
  8
MY3DLAYER
10
8.41294982608461
20
3.55989472319857
30
0.0
 70
     32
  0
VERTEX
  8
MY3DLAYER
10
8.41818518002055
20
3.56364632477449
30
0.0
 70
     32
  0
VERTEX
  8
MY3DLAYER
10
8.42316395817915
20
3.56773230241349
30
0.0
 70
     32
  0
VERTEX
  8
MY3DLAYER
10
8.42786484066797
20
3.57213515933203
30
0.0
 70
     32
  0
VERTEX
  8
MY3DLAYER
10
8.43226769758652
20
3.57683604182086
30
0.0
 70
     32
  0
VERTEX
  8
MY3DLAYER
10
8.43635367522552
20
3.58181481997946
30
0.0
 70
     32
  0
VERTEX
  8
MY3DLAYER
10
8.44010527680144
20
3.58705017391539
30
0.0
 70
     32
  0
VERTEX
  8
MY3DLAYER
10
8.44350643738036
20
3.59251968503937
30
0.0
 70
     32
  0
VERTEX
  8
MY3DLAYER
10
8.44654259267054
20
3.59819993206506
30
0.0
 70
     32
  0
VERTEX
  8
MY3DLAYER
10
8.44920074138891
20
3.60406659130265
30
0.0
 70
     32
  0
VERTEX
  8
MY3DLAYER
10
8.45146950093456
20
3.61009454081662
30
0.0
 70
     32
  0
VERTEX
  8
MY3DLAYER
10
8.45333915613082
20
3.61625796800172
30
0.0
 70
     32
  0
VERTEX
  8
MY3DLAYER
10
8.45480170082709
20
3.62253048011652
30
0.0
 70
     32
  0
VERTEX
  8
MY3DLAYER
10
8.45585087218246
20
3.62888521730118
30
0.0
 70
     32
  0
VERTEX
  8
MY3DLAYER
10
8.45648217748412
20
3.63529496759546
30
0.0
 70
     32
  0
VERTEX
  8
MY3DLAYER
10
8.45669291338584
20
3.64173228346457
30
0.0
 70
     32
  0
SEQEND
 0
ENDSEC
 0
EOF
