  0
SECTION
  2
HEADER
  9
$ACADVER
  1
AC1009
  9
$EXTMAX
 10
12.598424911499
 20
9.8425197601318
 30
0.0
  9
$EXTMIN
 10
0.0
 20
0.0
 30
0.0
  9
$INSUNITS
 70
     4
  9
$LUNITS
 70
     2
  9
$LUPREC
 70
     4
  9
$MEASUREMENT
 70
     1
  0
ENDSEC
  0
SECTION
  2
TABLES
  0
TABLE
  2
LAYER
 70
     1
  0
LAYER
  2
0
 70
     0
 62
     7
  6
Continuous
  0
LAYER
  2
STL_Import
 70
     0
 62
    70
  6
Continuous
  0
ENDTAB
  0
TABLE
  2
APPID
 70
     1
  0
APPID
  2
ACAD
 70
     0
  0
ENDTAB
  0
ENDSEC
  0
SECTION
  2
ENTITIES
  0
LINE
  8
STL_Import
 10
12.303598706628
 20
9.4223256095564
 30
0.0
 11
12.3070866141732
 21
9.4488188976378
 31
0.0
  0
LINE
  8
STL_Import
 10
12.3070866141732
 20
0.3937007874016
 30
0.0
 11
12.303598706628
 21
0.4201940754829
 31
0.0
  0
LINE
  8
STL_Import
 10
12.303598706628
 20
0.4201940754829
 30
0.0
 11
12.2933726791275
 21
0.4448818897638
 31
0.0
  0
LINE
  8
STL_Import
 10
12.2933726791275
 20
0.4448818897638
 30
0.0
 11
12.2771054185467
 21
0.4660817964994
 31
0.0
  0
LINE
  8
STL_Import
 10
12.2771054185467
 20
0.4660817964994
 30
0.0
 11
12.255905511811
 21
0.4823490570803
 31
0.0
  0
LINE
  8
STL_Import
 10
12.255905511811
 20
0.4823490570803
 30
0.0
 11
12.2312176975302
 21
0.4925750845808
 31
0.0
  0
LINE
  8
STL_Import
 10
12.2312176975302
 20
0.4925750845808
 30
0.0
 11
12.2047244094488
 21
0.496062992126
 31
0.0
  0
LINE
  8
STL_Import
 10
12.2047244094488
 20
0.496062992126
 30
0.0
 11
12.1782311213675
 21
0.4925750845808
 31
0.0
  0
LINE
  8
STL_Import
 10
12.1782311213675
 20
0.4925750845808
 30
0.0
 11
12.1535433070866
 21
0.4823490570803
 31
0.0
  0
LINE
  8
STL_Import
 10
12.1535433070866
 20
0.4823490570803
 30
0.0
 11
12.132343400351
 21
0.4660817964994
 31
0.0
  0
LINE
  8
STL_Import
 10
12.132343400351
 20
0.4660817964994
 30
0.0
 11
12.1160761397701
 21
0.4448818897638
 31
0.0
  0
LINE
  8
STL_Import
 10
12.1160761397701
 20
0.4448818897638
 30
0.0
 11
12.1058501122696
 21
0.4201940754829
 31
0.0
  0
LINE
  8
STL_Import
 10
12.1058501122696
 20
0.4201940754829
 30
0.0
 11
12.1023622047244
 21
0.3937007874016
 31
0.0
  0
LINE
  8
STL_Import
 10
12.1023622047244
 20
0.3937007874016
 30
0.0
 11
12.1058501122696
 21
0.3672074993202
 31
0.0
  0
LINE
  8
STL_Import
 10
12.1058501122696
 20
0.3672074993202
 30
0.0
 11
12.1160761397701
 21
0.3425196850394
 31
0.0
  0
LINE
  8
STL_Import
 10
12.1160761397701
 20
0.3425196850394
 30
0.0
 11
12.132343400351
 21
0.3213197783037
 31
0.0
  0
LINE
  8
STL_Import
 10
12.132343400351
 20
0.3213197783037
 30
0.0
 11
12.1535433070866
 21
0.3050525177229
 31
0.0
  0
LINE
  8
STL_Import
 10
12.1535433070866
 20
0.3050525177229
 30
0.0
 11
12.1782311213675
 21
0.2948264902224
 31
0.0
  0
LINE
  8
STL_Import
 10
12.1782311213675
 20
0.2948264902224
 30
0.0
 11
12.2047244094488
 21
0.2913385826772
 31
0.0
  0
LINE
  8
STL_Import
 10
12.2047244094488
 20
0.2913385826772
 30
0.0
 11
12.2312176975302
 21
0.2948264902224
 31
0.0
  0
LINE
  8
STL_Import
 10
12.2312176975302
 20
0.2948264902224
 30
0.0
 11
12.255905511811
 21
0.3050525177229
 31
0.0
  0
LINE
  8
STL_Import
 10
12.255905511811
 20
0.3050525177229
 30
0.0
 11
12.2771054185467
 21
0.3213197783037
 31
0.0
  0
LINE
  8
STL_Import
 10
12.2771054185467
 20
0.3213197783037
 30
0.0
 11
12.2933726791275
 21
0.3425196850394
 31
0.0
  0
LINE
  8
STL_Import
 10
12.2933726791275
 20
0.3425196850394
 30
0.0
 11
12.303598706628
 21
0.3672074993202
 31
0.0
  0
LINE
  8
STL_Import
 10
12.303598706628
 20
0.3672074993202
 30
0.0
 11
12.3070866141732
 21
0.3937007874016
 31
0.0
  0
LINE
  8
STL_Import
 10
0.496062992126
 20
0.3937007874016
 30
0.0
 11
0.4925750845808
 21
0.4201940754829
 31
0.0
  0
LINE
  8
STL_Import
 10
0.4925750845808
 20
0.4201940754829
 30
0.0
 11
0.4823490570803
 21
0.4448818897638
 31
0.0
  0
LINE
  8
STL_Import
 10
0.4823490570803
 20
0.4448818897638
 30
0.0
 11
0.4660817964994
 21
0.4660817964994
 31
0.0
  0
LINE
  8
STL_Import
 10
0.4660817964994
 20
0.4660817964994
 30
0.0
 11
0.4448818897638
 21
0.4823490570803
 31
0.0
  0
LINE
  8
STL_Import
 10
0.4448818897638
 20
0.4823490570803
 30
0.0
 11
0.4201940754829
 21
0.4925750845808
 31
0.0
  0
LINE
  8
STL_Import
 10
0.4201940754829
 20
0.4925750845808
 30
0.0
 11
0.3937007874016
 21
0.496062992126
 31
0.0
  0
LINE
  8
STL_Import
 10
0.3937007874016
 20
0.496062992126
 30
0.0
 11
0.3672074993202
 21
0.4925750845808
 31
0.0
  0
LINE
  8
STL_Import
 10
0.3672074993202
 20
0.4925750845808
 30
0.0
 11
0.3425196850394
 21
0.4823490570803
 31
0.0
  0
LINE
  8
STL_Import
 10
0.3425196850394
 20
0.4823490570803
 30
0.0
 11
0.3213197783037
 21
0.4660817964994
 31
0.0
  0
LINE
  8
STL_Import
 10
0.3213197783037
 20
0.4660817964994
 30
0.0
 11
0.3050525177229
 21
0.4448818897638
 31
0.0
  0
LINE
  8
STL_Import
 10
0.3050525177229
 20
0.4448818897638
 30
0.0
 11
0.2948264902224
 21
0.4201940754829
 31
0.0
  0
LINE
  8
STL_Import
 10
0.2948264902224
 20
0.4201940754829
 30
0.0
 11
0.2913385826772
 21
0.3937007874016
 31
0.0
  0
LINE
  8
STL_Import
 10
0.2913385826772
 20
0.3937007874016
 30
0.0
 11
0.2948264902224
 21
0.3672074993202
 31
0.0
  0
LINE
  8
STL_Import
 10
0.2948264902224
 20
0.3672074993202
 30
0.0
 11
0.3050525177229
 21
0.3425196850394
 31
0.0
  0
LINE
  8
STL_Import
 10
0.3050525177229
 20
0.3425196850394
 30
0.0
 11
0.3213197783037
 21
0.3213197783037
 31
0.0
  0
LINE
  8
STL_Import
 10
0.3213197783037
 20
0.3213197783037
 30
0.0
 11
0.3425196850394
 21
0.3050525177229
 31
0.0
  0
LINE
  8
STL_Import
 10
0.3425196850394
 20
0.3050525177229
 30
0.0
 11
0.3672074993202
 21
0.2948264902224
 31
0.0
  0
LINE
  8
STL_Import
 10
0.3672074993202
 20
0.2948264902224
 30
0.0
 11
0.3937007874016
 21
0.2913385826772
 31
0.0
  0
LINE
  8
STL_Import
 10
0.3937007874016
 20
0.2913385826772
 30
0.0
 11
0.4201940754829
 21
0.2948264902224
 31
0.0
  0
LINE
  8
STL_Import
 10
0.4201940754829
 20
0.2948264902224
 30
0.0
 11
0.4448818897638
 21
0.3050525177229
 31
0.0
  0
LINE
  8
STL_Import
 10
0.4448818897638
 20
0.3050525177229
 30
0.0
 11
0.4660817964994
 21
0.3213197783037
 31
0.0
  0
LINE
  8
STL_Import
 10
0.4660817964994
 20
0.3213197783037
 30
0.0
 11
0.4823490570803
 21
0.3425196850394
 31
0.0
  0
LINE
  8
STL_Import
 10
0.4823490570803
 20
0.3425196850394
 30
0.0
 11
0.4925750845808
 21
0.3672074993202
 31
0.0
  0
LINE
  8
STL_Import
 10
0.4925750845808
 20
0.3672074993202
 30
0.0
 11
0.496062992126
 21
0.3937007874016
 31
0.0
  0
LINE
  8
STL_Import
 10
4.7086614173228
 20
6.1023622047244
 30
0.0
 11
4.7045027583266
 21
6.1339503558983
 31
0.0
  0
LINE
  8
STL_Import
 10
4.7045027583266
 20
6.1339503558983
 30
0.0
 11
4.6923101870761
 21
6.1633858267717
 31
0.0
  0
LINE
  8
STL_Import
 10
4.6923101870761
 20
6.1633858267717
 30
0.0
 11
4.6729146071527
 21
6.1886626386488
 31
0.0
  0
LINE
  8
STL_Import
 10
4.6729146071527
 20
6.1886626386488
 30
0.0
 11
4.6476377952756
 21
6.2080582185721
 31
0.0
  0
LINE
  8
STL_Import
 10
4.6476377952756
 20
6.2080582185721
 30
0.0
 11
4.6182023244023
 21
6.2202507898227
 31
0.0
  0
LINE
  8
STL_Import
 10
4.6182023244023
 20
6.2202507898227
 30
0.0
 11
4.5866141732284
 21
6.2244094488189
 31
0.0
  0
LINE
  8
STL_Import
 10
4.5866141732284
 20
6.2244094488189
 30
0.0
 11
4.5550260220544
 21
6.2202507898227
 31
0.0
  0
LINE
  8
STL_Import
 10
12.2933726791275
 20
9.3976377952756
 30
0.0
 11
12.303598706628
 21
9.4223256095564
 31
0.0
  0
LINE
  8
STL_Import
 10
12.255905511811
 20
9.3601706279591
 30
0.0
 11
12.2771054185467
 21
9.37643788854
 31
0.0
  0
LINE
  8
STL_Import
 10
12.2312176975302
 20
9.3499446004586
 30
0.0
 11
12.255905511811
 21
9.3601706279591
 31
0.0
  0
LINE
  8
STL_Import
 10
12.2047244094488
 20
9.3464566929134
 30
0.0
 11
12.2312176975302
 21
9.3499446004586
 31
0.0
  0
LINE
  8
STL_Import
 10
12.1782311213675
 20
9.3499446004586
 30
0.0
 11
12.2047244094488
 21
9.3464566929134
 31
0.0
  0
LINE
  8
STL_Import
 10
12.1535433070866
 20
9.3601706279591
 30
0.0
 11
12.1782311213675
 21
9.3499446004586
 31
0.0
  0
LINE
  8
STL_Import
 10
12.132343400351
 20
9.37643788854
 30
0.0
 11
12.1535433070866
 21
9.3601706279591
 31
0.0
  0
LINE
  8
STL_Import
 10
12.1160761397701
 20
9.3976377952756
 30
0.0
 11
12.132343400351
 21
9.37643788854
 31
0.0
  0
LINE
  8
STL_Import
 10
12.1058501122696
 20
9.4223256095564
 30
0.0
 11
12.1160761397701
 21
9.3976377952756
 31
0.0
  0
LINE
  8
STL_Import
 10
12.1023622047244
 20
9.4488188976378
 30
0.0
 11
12.1058501122696
 21
9.4223256095564
 31
0.0
  0
LINE
  8
STL_Import
 10
12.1058501122696
 20
9.4753121857192
 30
0.0
 11
12.1023622047244
 21
9.4488188976378
 31
0.0
  0
LINE
  8
STL_Import
 10
12.1160761397701
 20
9.5
 30
0.0
 11
12.1058501122696
 21
9.4753121857192
 31
0.0
  0
LINE
  8
STL_Import
 10
12.132343400351
 20
9.5211999067356
 30
0.0
 11
12.1160761397701
 21
9.5
 31
0.0
  0
LINE
  8
STL_Import
 10
12.1535433070866
 20
9.5374671673165
 30
0.0
 11
12.132343400351
 21
9.5211999067356
 31
0.0
  0
LINE
  8
STL_Import
 10
12.1782311213675
 20
9.547693194817
 30
0.0
 11
12.1535433070866
 21
9.5374671673165
 31
0.0
  0
LINE
  8
STL_Import
 10
12.2047244094488
 20
9.5511811023622
 30
0.0
 11
12.1782311213675
 21
9.547693194817
 31
0.0
  0
LINE
  8
STL_Import
 10
12.2312176975302
 20
9.547693194817
 30
0.0
 11
12.2047244094488
 21
9.5511811023622
 31
0.0
  0
LINE
  8
STL_Import
 10
12.255905511811
 20
9.5374671673165
 30
0.0
 11
12.2312176975302
 21
9.547693194817
 31
0.0
  0
LINE
  8
STL_Import
 10
12.2771054185467
 20
9.5211999067356
 30
0.0
 11
12.255905511811
 21
9.5374671673165
 31
0.0
  0
LINE
  8
STL_Import
 10
12.2933726791275
 20
9.5
 30
0.0
 11
12.2771054185467
 21
9.5211999067356
 31
0.0
  0
LINE
  8
STL_Import
 10
12.303598706628
 20
9.4753121857192
 30
0.0
 11
12.2933726791275
 21
9.5
 31
0.0
  0
LINE
  8
STL_Import
 10
12.3070866141732
 20
9.4488188976378
 30
0.0
 11
12.303598706628
 21
9.4753121857192
 31
0.0
  0
LINE
  8
STL_Import
 10
0.4925750845808
 20
9.4223256095564
 30
0.0
 11
0.496062992126
 21
9.4488188976378
 31
0.0
  0
LINE
  8
STL_Import
 10
0.4823490570803
 20
9.3976377952756
 30
0.0
 11
0.4925750845808
 21
9.4223256095564
 31
0.0
  0
LINE
  8
STL_Import
 10
0.4660817964994
 20
9.37643788854
 30
0.0
 11
0.4823490570803
 21
9.3976377952756
 31
0.0
  0
LINE
  8
STL_Import
 10
0.4448818897638
 20
9.3601706279591
 30
0.0
 11
0.4660817964994
 21
9.37643788854
 31
0.0
  0
LINE
  8
STL_Import
 10
0.4201940754829
 20
9.3499446004586
 30
0.0
 11
0.4448818897638
 21
9.3601706279591
 31
0.0
  0
LINE
  8
STL_Import
 10
0.3937007874016
 20
9.3464566929134
 30
0.0
 11
0.4201940754829
 21
9.3499446004586
 31
0.0
  0
LINE
  8
STL_Import
 10
0.3672074993202
 20
9.3499446004586
 30
0.0
 11
0.3937007874016
 21
9.3464566929134
 31
0.0
  0
LINE
  8
STL_Import
 10
0.3425196850394
 20
9.3601706279591
 30
0.0
 11
0.3672074993202
 21
9.3499446004586
 31
0.0
  0
LINE
  8
STL_Import
 10
0.3213197783037
 20
9.37643788854
 30
0.0
 11
0.3425196850394
 21
9.3601706279591
 31
0.0
  0
LINE
  8
STL_Import
 10
0.3050525177229
 20
9.3976377952756
 30
0.0
 11
0.3213197783037
 21
9.37643788854
 31
0.0
  0
LINE
  8
STL_Import
 10
12.2771054185467
 20
9.37643788854
 30
0.0
 11
12.2933726791275
 21
9.3976377952756
 31
0.0
  0
LINE
  8
STL_Import
 10
0.2948264902224
 20
9.4223256095564
 30
0.0
 11
0.3050525177229
 21
9.3976377952756
 31
0.0
  0
LINE
  8
STL_Import
 10
0.2913385826772
 20
9.4488188976378
 30
0.0
 11
0.2948264902224
 21
9.4223256095564
 31
0.0
  0
LINE
  8
STL_Import
 10
0.2948264902224
 20
9.4753121857192
 30
0.0
 11
0.2913385826772
 21
9.4488188976378
 31
0.0
  0
LINE
  8
STL_Import
 10
0.3050525177229
 20
9.5
 30
0.0
 11
0.2948264902224
 21
9.4753121857192
 31
0.0
  0
LINE
  8
STL_Import
 10
0.3213197783037
 20
9.5211999067356
 30
0.0
 11
0.3050525177229
 21
9.5
 31
0.0
  0
LINE
  8
STL_Import
 10
0.3425196850394
 20
9.5374671673165
 30
0.0
 11
0.3213197783037
 21
9.5211999067356
 31
0.0
  0
LINE
  8
STL_Import
 10
0.3672074993202
 20
9.547693194817
 30
0.0
 11
0.3425196850394
 21
9.5374671673165
 31
0.0
  0
LINE
  8
STL_Import
 10
0.3937007874016
 20
9.5511811023622
 30
0.0
 11
0.3672074993202
 21
9.547693194817
 31
0.0
  0
LINE
  8
STL_Import
 10
0.4201940754829
 20
9.547693194817
 30
0.0
 11
0.3937007874016
 21
9.5511811023622
 31
0.0
  0
LINE
  8
STL_Import
 10
0.4448818897638
 20
9.5374671673165
 30
0.0
 11
0.4201940754829
 21
9.547693194817
 31
0.0
  0
LINE
  8
STL_Import
 10
0.4660817964994
 20
9.5211999067356
 30
0.0
 11
0.4448818897638
 21
9.5374671673165
 31
0.0
  0
LINE
  8
STL_Import
 10
0.4823490570803
 20
9.5
 30
0.0
 11
0.4660817964994
 21
9.5211999067356
 31
0.0
  0
LINE
  8
STL_Import
 10
0.4925750845808
 20
9.4753121857192
 30
0.0
 11
0.4823490570803
 21
9.5
 31
0.0
  0
LINE
  8
STL_Import
 10
0.496062992126
 20
9.4488188976378
 30
0.0
 11
0.4925750845808
 21
9.4753121857192
 31
0.0
  0
LINE
  8
STL_Import
 10
12.5984251968504
 20
9.8425196850394
 30
0.0
 11
10.8267716535433
 21
9.8425196850394
 31
0.0
  0
LINE
  8
STL_Import
 10
12.5984251968504
 20
0.0
 30
0.0
 11
12.5984251968504
 21
2.9527559055118
 31
0.0
  0
LINE
  8
STL_Import
 10
0.0
 20
0.0
 30
0.0
 11
1.7716535433071
 21
0.0
 31
0.0
  0
LINE
  8
STL_Import
 10
0.0
 20
9.8425196850394
 30
0.0
 11
0.0
 21
6.8897637795276
 31
0.0
  0
LINE
  8
STL_Import
 10
4.5550260220544
 20
6.2202507898227
 30
0.0
 11
4.5255905511811
 21
6.2080582185721
 31
0.0
  0
LINE
  8
STL_Import
 10
4.5255905511811
 20
6.2080582185721
 30
0.0
 11
4.500313739304
 21
6.1886626386488
 31
0.0
  0
LINE
  8
STL_Import
 10
4.500313739304
 20
6.1886626386488
 30
0.0
 11
4.4809181593806
 21
6.1633858267717
 31
0.0
  0
LINE
  8
STL_Import
 10
4.4809181593806
 20
6.1633858267717
 30
0.0
 11
4.4687255881301
 21
6.1339503558983
 31
0.0
  0
LINE
  8
STL_Import
 10
4.4687255881301
 20
6.1339503558983
 30
0.0
 11
4.4645669291339
 21
6.1023622047244
 31
0.0
  0
LINE
  8
STL_Import
 10
4.4645669291339
 20
6.1023622047244
 30
0.0
 11
4.4687255881301
 21
6.0707740535505
 31
0.0
  0
LINE
  8
STL_Import
 10
4.4687255881301
 20
6.0707740535505
 30
0.0
 11
4.4809181593806
 21
6.0413385826772
 31
0.0
  0
LINE
  8
STL_Import
 10
4.4809181593806
 20
6.0413385826772
 30
0.0
 11
4.500313739304
 21
6.0160617708001
 31
0.0
  0
LINE
  8
STL_Import
 10
4.500313739304
 20
6.0160617708001
 30
0.0
 11
4.5255905511811
 21
5.9966661908767
 31
0.0
  0
LINE
  8
STL_Import
 10
4.5255905511811
 20
5.9966661908767
 30
0.0
 11
4.5550260220544
 21
5.9844736196261
 31
0.0
  0
LINE
  8
STL_Import
 10
4.5550260220544
 20
5.9844736196261
 30
0.0
 11
4.5866141732284
 21
5.9803149606299
 31
0.0
  0
LINE
  8
STL_Import
 10
4.5866141732284
 20
5.9803149606299
 30
0.0
 11
4.6182023244023
 21
5.9844736196261
 31
0.0
  0
LINE
  8
STL_Import
 10
4.6182023244023
 20
5.9844736196261
 30
0.0
 11
4.6476377952756
 21
5.9966661908767
 31
0.0
  0
LINE
  8
STL_Import
 10
4.6476377952756
 20
5.9966661908767
 30
0.0
 11
4.6729146071527
 21
6.0160617708001
 31
0.0
  0
LINE
  8
STL_Import
 10
4.6729146071527
 20
6.0160617708001
 30
0.0
 11
4.6923101870761
 21
6.0413385826772
 31
0.0
  0
LINE
  8
STL_Import
 10
4.6923101870761
 20
6.0413385826772
 30
0.0
 11
4.7045027583266
 21
6.0707740535505
 31
0.0
  0
LINE
  8
STL_Import
 10
4.7045027583266
 20
6.0707740535505
 30
0.0
 11
4.7086614173228
 21
6.1023622047244
 31
0.0
  0
LINE
  8
STL_Import
 10
8.1338582677165
 20
6.1023622047244
 30
0.0
 11
8.1296996087203
 21
6.1339503558983
 31
0.0
  0
LINE
  8
STL_Import
 10
8.1296996087203
 20
6.1339503558983
 30
0.0
 11
8.1175070374698
 21
6.1633858267717
 31
0.0
  0
LINE
  8
STL_Import
 10
8.1175070374698
 20
6.1633858267717
 30
0.0
 11
8.0981114575464
 21
6.1886626386488
 31
0.0
  0
LINE
  8
STL_Import
 10
8.0981114575464
 20
6.1886626386488
 30
0.0
 11
8.0728346456693
 21
6.2080582185721
 31
0.0
  0
LINE
  8
STL_Import
 10
8.0728346456693
 20
6.2080582185721
 30
0.0
 11
8.043399174796
 21
6.2202507898227
 31
0.0
  0
LINE
  8
STL_Import
 10
8.043399174796
 20
6.2202507898227
 30
0.0
 11
8.0118110236221
 21
6.2244094488189
 31
0.0
  0
LINE
  8
STL_Import
 10
8.0118110236221
 20
6.2244094488189
 30
0.0
 11
7.9802228724481
 21
6.2202507898227
 31
0.0
  0
LINE
  8
STL_Import
 10
7.9802228724481
 20
6.2202507898227
 30
0.0
 11
7.9507874015748
 21
6.2080582185721
 31
0.0
  0
LINE
  8
STL_Import
 10
7.9507874015748
 20
6.2080582185721
 30
0.0
 11
7.9255105896977
 21
6.1886626386488
 31
0.0
  0
LINE
  8
STL_Import
 10
7.9255105896977
 20
6.1886626386488
 30
0.0
 11
7.9061150097743
 21
6.1633858267717
 31
0.0
  0
LINE
  8
STL_Import
 10
7.9061150097743
 20
6.1633858267717
 30
0.0
 11
7.8939224385238
 21
6.1339503558983
 31
0.0
  0
LINE
  8
STL_Import
 10
7.8939224385238
 20
6.1339503558983
 30
0.0
 11
7.8897637795276
 21
6.1023622047244
 31
0.0
  0
LINE
  8
STL_Import
 10
7.8897637795276
 20
6.1023622047244
 30
0.0
 11
7.8939224385238
 21
6.0707740535505
 31
0.0
  0
LINE
  8
STL_Import
 10
7.8939224385238
 20
6.0707740535505
 30
0.0
 11
7.9061150097743
 21
6.0413385826772
 31
0.0
  0
LINE
  8
STL_Import
 10
7.9061150097743
 20
6.0413385826772
 30
0.0
 11
7.9255105896977
 21
6.0160617708001
 31
0.0
  0
LINE
  8
STL_Import
 10
7.9255105896977
 20
6.0160617708001
 30
0.0
 11
7.9507874015748
 21
5.9966661908767
 31
0.0
  0
LINE
  8
STL_Import
 10
7.9507874015748
 20
5.9966661908767
 30
0.0
 11
7.9802228724481
 21
5.9844736196261
 31
0.0
  0
LINE
  8
STL_Import
 10
7.9802228724481
 20
5.9844736196261
 30
0.0
 11
8.0118110236221
 21
5.9803149606299
 31
0.0
  0
LINE
  8
STL_Import
 10
8.0118110236221
 20
5.9803149606299
 30
0.0
 11
8.043399174796
 21
5.9844736196261
 31
0.0
  0
LINE
  8
STL_Import
 10
8.043399174796
 20
5.9844736196261
 30
0.0
 11
8.0728346456693
 21
5.9966661908767
 31
0.0
  0
LINE
  8
STL_Import
 10
8.0728346456693
 20
5.9966661908767
 30
0.0
 11
8.0981114575464
 21
6.0160617708001
 31
0.0
  0
LINE
  8
STL_Import
 10
8.0981114575464
 20
6.0160617708001
 30
0.0
 11
8.1175070374698
 21
6.0413385826772
 31
0.0
  0
LINE
  8
STL_Import
 10
8.1175070374698
 20
6.0413385826772
 30
0.0
 11
8.1296996087203
 21
6.0707740535505
 31
0.0
  0
LINE
  8
STL_Import
 10
8.1296996087203
 20
6.0707740535505
 30
0.0
 11
8.1338582677165
 21
6.1023622047244
 31
0.0
  0
LINE
  8
STL_Import
 10
8.1338582677165
 20
3.740157480315
 30
0.0
 11
8.1296996087203
 21
3.7717456314889
 31
0.0
  0
LINE
  8
STL_Import
 10
8.1296996087203
 20
3.7717456314889
 30
0.0
 11
8.1175070374698
 21
3.8011811023622
 31
0.0
  0
LINE
  8
STL_Import
 10
8.1175070374698
 20
3.8011811023622
 30
0.0
 11
8.0981114575464
 21
3.8264579142393
 31
0.0
  0
LINE
  8
STL_Import
 10
8.0981114575464
 20
3.8264579142393
 30
0.0
 11
8.0728346456693
 21
3.8458534941627
 31
0.0
  0
LINE
  8
STL_Import
 10
8.0728346456693
 20
3.8458534941627
 30
0.0
 11
8.043399174796
 21
3.8580460654132
 31
0.0
  0
LINE
  8
STL_Import
 10
8.043399174796
 20
3.8580460654132
 30
0.0
 11
8.0118110236221
 21
3.8622047244095
 31
0.0
  0
LINE
  8
STL_Import
 10
8.0118110236221
 20
3.8622047244095
 30
0.0
 11
7.9802228724481
 21
3.8580460654132
 31
0.0
  0
LINE
  8
STL_Import
 10
7.9802228724481
 20
3.8580460654132
 30
0.0
 11
7.9507874015748
 21
3.8458534941627
 31
0.0
  0
LINE
  8
STL_Import
 10
7.9507874015748
 20
3.8458534941627
 30
0.0
 11
7.9255105896977
 21
3.8264579142393
 31
0.0
  0
LINE
  8
STL_Import
 10
7.9255105896977
 20
3.8264579142393
 30
0.0
 11
7.9061150097743
 21
3.8011811023622
 31
0.0
  0
LINE
  8
STL_Import
 10
7.9061150097743
 20
3.8011811023622
 30
0.0
 11
7.8939224385238
 21
3.7717456314889
 31
0.0
  0
LINE
  8
STL_Import
 10
7.8939224385238
 20
3.7717456314889
 30
0.0
 11
7.8897637795276
 21
3.740157480315
 31
0.0
  0
LINE
  8
STL_Import
 10
7.8897637795276
 20
3.740157480315
 30
0.0
 11
7.8939224385238
 21
3.708569329141
 31
0.0
  0
LINE
  8
STL_Import
 10
7.8939224385238
 20
3.708569329141
 30
0.0
 11
7.9061150097743
 21
3.6791338582677
 31
0.0
  0
LINE
  8
STL_Import
 10
7.9061150097743
 20
3.6791338582677
 30
0.0
 11
7.9255105896977
 21
3.6538570463906
 31
0.0
  0
LINE
  8
STL_Import
 10
7.9255105896977
 20
3.6538570463906
 30
0.0
 11
7.9507874015748
 21
3.6344614664673
 31
0.0
  0
LINE
  8
STL_Import
 10
7.9507874015748
 20
3.6344614664673
 30
0.0
 11
7.9802228724481
 21
3.6222688952167
 31
0.0
  0
LINE
  8
STL_Import
 10
7.9802228724481
 20
3.6222688952167
 30
0.0
 11
8.0118110236221
 21
3.6181102362205
 31
0.0
  0
LINE
  8
STL_Import
 10
8.0118110236221
 20
3.6181102362205
 30
0.0
 11
8.043399174796
 21
3.6222688952167
 31
0.0
  0
LINE
  8
STL_Import
 10
8.043399174796
 20
3.6222688952167
 30
0.0
 11
8.0728346456693
 21
3.6344614664673
 31
0.0
  0
LINE
  8
STL_Import
 10
8.0728346456693
 20
3.6344614664673
 30
0.0
 11
8.0981114575464
 21
3.6538570463906
 31
0.0
  0
LINE
  8
STL_Import
 10
8.0981114575464
 20
3.6538570463906
 30
0.0
 11
8.1175070374698
 21
3.6791338582677
 31
0.0
  0
LINE
  8
STL_Import
 10
8.1175070374698
 20
3.6791338582677
 30
0.0
 11
8.1296996087203
 21
3.708569329141
 31
0.0
  0
LINE
  8
STL_Import
 10
8.1296996087203
 20
3.708569329141
 30
0.0
 11
8.1338582677165
 21
3.740157480315
 31
0.0
  0
LINE
  8
STL_Import
 10
4.7086614173228
 20
3.740157480315
 30
0.0
 11
4.7045027583266
 21
3.7717456314889
 31
0.0
  0
LINE
  8
STL_Import
 10
4.7045027583266
 20
3.7717456314889
 30
0.0
 11
4.6923101870761
 21
3.8011811023622
 31
0.0
  0
LINE
  8
STL_Import
 10
4.6923101870761
 20
3.8011811023622
 30
0.0
 11
4.6729146071527
 21
3.8264579142393
 31
0.0
  0
LINE
  8
STL_Import
 10
4.6729146071527
 20
3.8264579142393
 30
0.0
 11
4.6476377952756
 21
3.8458534941627
 31
0.0
  0
LINE
  8
STL_Import
 10
4.6476377952756
 20
3.8458534941627
 30
0.0
 11
4.6182023244023
 21
3.8580460654132
 31
0.0
  0
LINE
  8
STL_Import
 10
4.6182023244023
 20
3.8580460654132
 30
0.0
 11
4.5866141732284
 21
3.8622047244095
 31
0.0
  0
LINE
  8
STL_Import
 10
4.5866141732284
 20
3.8622047244095
 30
0.0
 11
4.5550260220544
 21
3.8580460654132
 31
0.0
  0
LINE
  8
STL_Import
 10
4.5550260220544
 20
3.8580460654132
 30
0.0
 11
4.5255905511811
 21
3.8458534941627
 31
0.0
  0
LINE
  8
STL_Import
 10
4.5255905511811
 20
3.8458534941627
 30
0.0
 11
4.500313739304
 21
3.8264579142393
 31
0.0
  0
LINE
  8
STL_Import
 10
4.500313739304
 20
3.8264579142393
 30
0.0
 11
4.4809181593806
 21
3.8011811023622
 31
0.0
  0
LINE
  8
STL_Import
 10
4.4809181593806
 20
3.8011811023622
 30
0.0
 11
4.4687255881301
 21
3.7717456314889
 31
0.0
  0
LINE
  8
STL_Import
 10
4.4687255881301
 20
3.7717456314889
 30
0.0
 11
4.4645669291339
 21
3.740157480315
 31
0.0
  0
LINE
  8
STL_Import
 10
4.4645669291339
 20
3.740157480315
 30
0.0
 11
4.4687255881301
 21
3.708569329141
 31
0.0
  0
LINE
  8
STL_Import
 10
4.4687255881301
 20
3.708569329141
 30
0.0
 11
4.4809181593806
 21
3.6791338582677
 31
0.0
  0
LINE
  8
STL_Import
 10
4.4809181593806
 20
3.6791338582677
 30
0.0
 11
4.500313739304
 21
3.6538570463906
 31
0.0
  0
LINE
  8
STL_Import
 10
4.500313739304
 20
3.6538570463906
 30
0.0
 11
4.5255905511811
 21
3.6344614664673
 31
0.0
  0
LINE
  8
STL_Import
 10
4.5255905511811
 20
3.6344614664673
 30
0.0
 11
4.5550260220544
 21
3.6222688952167
 31
0.0
  0
LINE
  8
STL_Import
 10
4.5550260220544
 20
3.6222688952167
 30
0.0
 11
4.5866141732284
 21
3.6181102362205
 31
0.0
  0
LINE
  8
STL_Import
 10
4.5866141732284
 20
3.6181102362205
 30
0.0
 11
4.6182023244023
 21
3.6222688952167
 31
0.0
  0
LINE
  8
STL_Import
 10
4.6182023244023
 20
3.6222688952167
 30
0.0
 11
4.6476377952756
 21
3.6344614664673
 31
0.0
  0
LINE
  8
STL_Import
 10
4.6476377952756
 20
3.6344614664673
 30
0.0
 11
4.6729146071527
 21
3.6538570463906
 31
0.0
  0
LINE
  8
STL_Import
 10
4.6729146071527
 20
3.6538570463906
 30
0.0
 11
4.6923101870761
 21
3.6791338582677
 31
0.0
  0
LINE
  8
STL_Import
 10
4.6923101870761
 20
3.6791338582677
 30
0.0
 11
4.7045027583266
 21
3.708569329141
 31
0.0
  0
LINE
  8
STL_Import
 10
4.7045027583266
 20
3.708569329141
 30
0.0
 11
4.7086614173228
 21
3.740157480315
 31
0.0
  0
LINE
  8
STL_Import
 10
3.5275590551181
 20
6.1023622047244
 30
0.0
 11
3.5234003961219
 21
6.1339503558983
 31
0.0
  0
LINE
  8
STL_Import
 10
3.5234003961219
 20
6.1339503558983
 30
0.0
 11
3.5112078248713
 21
6.1633858267717
 31
0.0
  0
LINE
  8
STL_Import
 10
3.5112078248713
 20
6.1633858267717
 30
0.0
 11
3.491812244948
 21
6.1886626386488
 31
0.0
  0
LINE
  8
STL_Import
 10
3.491812244948
 20
6.1886626386488
 30
0.0
 11
3.4665354330709
 21
6.2080582185721
 31
0.0
  0
LINE
  8
STL_Import
 10
3.4665354330709
 20
6.2080582185721
 30
0.0
 11
3.4370999621976
 21
6.2202507898227
 31
0.0
  0
LINE
  8
STL_Import
 10
3.4370999621976
 20
6.2202507898227
 30
0.0
 11
3.4055118110236
 21
6.2244094488189
 31
0.0
  0
LINE
  8
STL_Import
 10
3.4055118110236
 20
6.2244094488189
 30
0.0
 11
3.3739236598497
 21
6.2202507898227
 31
0.0
  0
LINE
  8
STL_Import
 10
3.3739236598497
 20
6.2202507898227
 30
0.0
 11
3.3444881889764
 21
6.2080582185721
 31
0.0
  0
LINE
  8
STL_Import
 10
3.3444881889764
 20
6.2080582185721
 30
0.0
 11
3.3192113770993
 21
6.1886626386488
 31
0.0
  0
LINE
  8
STL_Import
 10
3.3192113770993
 20
6.1886626386488
 30
0.0
 11
3.2998157971759
 21
6.1633858267717
 31
0.0
  0
LINE
  8
STL_Import
 10
3.2998157971759
 20
6.1633858267717
 30
0.0
 11
3.2876232259254
 21
6.1339503558983
 31
0.0
  0
LINE
  8
STL_Import
 10
3.2876232259254
 20
6.1339503558983
 30
0.0
 11
3.2834645669291
 21
6.1023622047244
 31
0.0
  0
LINE
  8
STL_Import
 10
3.2834645669291
 20
6.1023622047244
 30
0.0
 11
3.2876232259254
 21
6.0707740535505
 31
0.0
  0
LINE
  8
STL_Import
 10
3.2876232259254
 20
6.0707740535505
 30
0.0
 11
3.2998157971759
 21
6.0413385826772
 31
0.0
  0
LINE
  8
STL_Import
 10
3.2998157971759
 20
6.0413385826772
 30
0.0
 11
3.3192113770993
 21
6.0160617708001
 31
0.0
  0
LINE
  8
STL_Import
 10
3.3192113770993
 20
6.0160617708001
 30
0.0
 11
3.3444881889764
 21
5.9966661908767
 31
0.0
  0
LINE
  8
STL_Import
 10
3.3444881889764
 20
5.9966661908767
 30
0.0
 11
3.3739236598497
 21
5.9844736196261
 31
0.0
  0
LINE
  8
STL_Import
 10
3.3739236598497
 20
5.9844736196261
 30
0.0
 11
3.4055118110236
 21
5.9803149606299
 31
0.0
  0
LINE
  8
STL_Import
 10
3.4055118110236
 20
5.9803149606299
 30
0.0
 11
3.4370999621976
 21
5.9844736196261
 31
0.0
  0
LINE
  8
STL_Import
 10
3.4370999621976
 20
5.9844736196261
 30
0.0
 11
3.4665354330709
 21
5.9966661908767
 31
0.0
  0
LINE
  8
STL_Import
 10
3.4665354330709
 20
5.9966661908767
 30
0.0
 11
3.491812244948
 21
6.0160617708001
 31
0.0
  0
LINE
  8
STL_Import
 10
3.491812244948
 20
6.0160617708001
 30
0.0
 11
3.5112078248713
 21
6.0413385826772
 31
0.0
  0
LINE
  8
STL_Import
 10
3.5112078248713
 20
6.0413385826772
 30
0.0
 11
3.5234003961219
 21
6.0707740535505
 31
0.0
  0
LINE
  8
STL_Import
 10
3.5234003961219
 20
6.0707740535505
 30
0.0
 11
3.5275590551181
 21
6.1023622047244
 31
0.0
  0
LINE
  8
STL_Import
 10
3.5275590551181
 20
3.740157480315
 30
0.0
 11
3.5234003961219
 21
3.7717456314889
 31
0.0
  0
LINE
  8
STL_Import
 10
3.5234003961219
 20
3.7717456314889
 30
0.0
 11
3.5112078248713
 21
3.8011811023622
 31
0.0
  0
LINE
  8
STL_Import
 10
3.5112078248713
 20
3.8011811023622
 30
0.0
 11
3.491812244948
 21
3.8264579142393
 31
0.0
  0
LINE
  8
STL_Import
 10
3.491812244948
 20
3.8264579142393
 30
0.0
 11
3.4665354330709
 21
3.8458534941627
 31
0.0
  0
LINE
  8
STL_Import
 10
3.4665354330709
 20
3.8458534941627
 30
0.0
 11
3.4370999621976
 21
3.8580460654132
 31
0.0
  0
LINE
  8
STL_Import
 10
3.4370999621976
 20
3.8580460654132
 30
0.0
 11
3.4055118110236
 21
3.8622047244095
 31
0.0
  0
LINE
  8
STL_Import
 10
3.4055118110236
 20
3.8622047244095
 30
0.0
 11
3.3739236598497
 21
3.8580460654132
 31
0.0
  0
LINE
  8
STL_Import
 10
3.3739236598497
 20
3.8580460654132
 30
0.0
 11
3.3444881889764
 21
3.8458534941627
 31
0.0
  0
LINE
  8
STL_Import
 10
3.3444881889764
 20
3.8458534941627
 30
0.0
 11
3.3192113770993
 21
3.8264579142393
 31
0.0
  0
LINE
  8
STL_Import
 10
3.3192113770993
 20
3.8264579142393
 30
0.0
 11
3.2998157971759
 21
3.8011811023622
 31
0.0
  0
LINE
  8
STL_Import
 10
3.2998157971759
 20
3.8011811023622
 30
0.0
 11
3.2876232259254
 21
3.7717456314889
 31
0.0
  0
LINE
  8
STL_Import
 10
3.2876232259254
 20
3.7717456314889
 30
0.0
 11
3.2834645669291
 21
3.740157480315
 31
0.0
  0
LINE
  8
STL_Import
 10
3.2834645669291
 20
3.740157480315
 30
0.0
 11
3.2876232259254
 21
3.708569329141
 31
0.0
  0
LINE
  8
STL_Import
 10
3.2876232259254
 20
3.708569329141
 30
0.0
 11
3.2998157971759
 21
3.6791338582677
 31
0.0
  0
LINE
  8
STL_Import
 10
3.2998157971759
 20
3.6791338582677
 30
0.0
 11
3.3192113770993
 21
3.6538570463906
 31
0.0
  0
LINE
  8
STL_Import
 10
3.3192113770993
 20
3.6538570463906
 30
0.0
 11
3.3444881889764
 21
3.6344614664673
 31
0.0
  0
LINE
  8
STL_Import
 10
3.3444881889764
 20
3.6344614664673
 30
0.0
 11
3.3739236598497
 21
3.6222688952167
 31
0.0
  0
LINE
  8
STL_Import
 10
3.3739236598497
 20
3.6222688952167
 30
0.0
 11
3.4055118110236
 21
3.6181102362205
 31
0.0
  0
LINE
  8
STL_Import
 10
3.4055118110236
 20
3.6181102362205
 30
0.0
 11
3.4370999621976
 21
3.6222688952167
 31
0.0
  0
LINE
  8
STL_Import
 10
3.4370999621976
 20
3.6222688952167
 30
0.0
 11
3.4665354330709
 21
3.6344614664673
 31
0.0
  0
LINE
  8
STL_Import
 10
3.4665354330709
 20
3.6344614664673
 30
0.0
 11
3.491812244948
 21
3.6538570463906
 31
0.0
  0
LINE
  8
STL_Import
 10
3.491812244948
 20
3.6538570463906
 30
0.0
 11
3.5112078248713
 21
3.6791338582677
 31
0.0
  0
LINE
  8
STL_Import
 10
3.5112078248713
 20
3.6791338582677
 30
0.0
 11
3.5234003961219
 21
3.708569329141
 31
0.0
  0
LINE
  8
STL_Import
 10
3.5234003961219
 20
3.708569329141
 30
0.0
 11
3.5275590551181
 21
3.740157480315
 31
0.0
  0
LINE
  8
STL_Import
 10
6.9527559055118
 20
6.1023622047244
 30
0.0
 11
6.9485972465156
 21
6.1339503558983
 31
0.0
  0
LINE
  8
STL_Import
 10
6.9485972465156
 20
6.1339503558983
 30
0.0
 11
6.936404675265
 21
6.1633858267717
 31
0.0
  0
LINE
  8
STL_Import
 10
6.936404675265
 20
6.1633858267717
 30
0.0
 11
6.9170090953417
 21
6.1886626386488
 31
0.0
  0
LINE
  8
STL_Import
 10
6.9170090953417
 20
6.1886626386488
 30
0.0
 11
6.8917322834646
 21
6.2080582185721
 31
0.0
  0
LINE
  8
STL_Import
 10
6.8917322834646
 20
6.2080582185721
 30
0.0
 11
6.8622968125913
 21
6.2202507898227
 31
0.0
  0
LINE
  8
STL_Import
 10
6.8622968125913
 20
6.2202507898227
 30
0.0
 11
6.8307086614173
 21
6.2244094488189
 31
0.0
  0
LINE
  8
STL_Import
 10
6.8307086614173
 20
6.2244094488189
 30
0.0
 11
6.7991205102434
 21
6.2202507898227
 31
0.0
  0
LINE
  8
STL_Import
 10
6.7991205102434
 20
6.2202507898227
 30
0.0
 11
6.7696850393701
 21
6.2080582185721
 31
0.0
  0
LINE
  8
STL_Import
 10
6.7696850393701
 20
6.2080582185721
 30
0.0
 11
6.744408227493
 21
6.1886626386488
 31
0.0
  0
LINE
  8
STL_Import
 10
6.744408227493
 20
6.1886626386488
 30
0.0
 11
6.7250126475696
 21
6.1633858267717
 31
0.0
  0
LINE
  8
STL_Import
 10
6.7250126475696
 20
6.1633858267717
 30
0.0
 11
6.7128200763191
 21
6.1339503558983
 31
0.0
  0
LINE
  8
STL_Import
 10
6.7128200763191
 20
6.1339503558983
 30
0.0
 11
6.7086614173228
 21
6.1023622047244
 31
0.0
  0
LINE
  8
STL_Import
 10
6.7086614173228
 20
6.1023622047244
 30
0.0
 11
6.7128200763191
 21
6.0707740535505
 31
0.0
  0
LINE
  8
STL_Import
 10
6.7128200763191
 20
6.0707740535505
 30
0.0
 11
6.7250126475696
 21
6.0413385826772
 31
0.0
  0
LINE
  8
STL_Import
 10
6.7250126475696
 20
6.0413385826772
 30
0.0
 11
6.744408227493
 21
6.0160617708001
 31
0.0
  0
LINE
  8
STL_Import
 10
6.744408227493
 20
6.0160617708001
 30
0.0
 11
6.7696850393701
 21
5.9966661908767
 31
0.0
  0
LINE
  8
STL_Import
 10
6.7696850393701
 20
5.9966661908767
 30
0.0
 11
6.7991205102434
 21
5.9844736196261
 31
0.0
  0
LINE
  8
STL_Import
 10
6.7991205102434
 20
5.9844736196261
 30
0.0
 11
6.8307086614173
 21
5.9803149606299
 31
0.0
  0
LINE
  8
STL_Import
 10
6.8307086614173
 20
5.9803149606299
 30
0.0
 11
6.8622968125913
 21
5.9844736196261
 31
0.0
  0
LINE
  8
STL_Import
 10
6.8622968125913
 20
5.9844736196261
 30
0.0
 11
6.8917322834646
 21
5.9966661908767
 31
0.0
  0
LINE
  8
STL_Import
 10
6.8917322834646
 20
5.9966661908767
 30
0.0
 11
6.9170090953417
 21
6.0160617708001
 31
0.0
  0
LINE
  8
STL_Import
 10
6.9170090953417
 20
6.0160617708001
 30
0.0
 11
6.936404675265
 21
6.0413385826772
 31
0.0
  0
LINE
  8
STL_Import
 10
6.936404675265
 20
6.0413385826772
 30
0.0
 11
6.9485972465156
 21
6.0707740535505
 31
0.0
  0
LINE
  8
STL_Import
 10
6.9485972465156
 20
6.0707740535505
 30
0.0
 11
6.9527559055118
 21
6.1023622047244
 31
0.0
  0
LINE
  8
STL_Import
 10
6.9527559055118
 20
3.740157480315
 30
0.0
 11
6.9485972465156
 21
3.7717456314889
 31
0.0
  0
LINE
  8
STL_Import
 10
6.9485972465156
 20
3.7717456314889
 30
0.0
 11
6.936404675265
 21
3.8011811023622
 31
0.0
  0
LINE
  8
STL_Import
 10
6.936404675265
 20
3.8011811023622
 30
0.0
 11
6.9170090953417
 21
3.8264579142393
 31
0.0
  0
LINE
  8
STL_Import
 10
6.9170090953417
 20
3.8264579142393
 30
0.0
 11
6.8917322834646
 21
3.8458534941627
 31
0.0
  0
LINE
  8
STL_Import
 10
6.8917322834646
 20
3.8458534941627
 30
0.0
 11
6.8622968125913
 21
3.8580460654132
 31
0.0
  0
LINE
  8
STL_Import
 10
6.8622968125913
 20
3.8580460654132
 30
0.0
 11
6.8307086614173
 21
3.8622047244095
 31
0.0
  0
LINE
  8
STL_Import
 10
6.8307086614173
 20
3.8622047244095
 30
0.0
 11
6.7991205102434
 21
3.8580460654132
 31
0.0
  0
LINE
  8
STL_Import
 10
6.7991205102434
 20
3.8580460654132
 30
0.0
 11
6.7696850393701
 21
3.8458534941627
 31
0.0
  0
LINE
  8
STL_Import
 10
6.7696850393701
 20
3.8458534941627
 30
0.0
 11
6.744408227493
 21
3.8264579142393
 31
0.0
  0
LINE
  8
STL_Import
 10
6.744408227493
 20
3.8264579142393
 30
0.0
 11
6.7250126475696
 21
3.8011811023622
 31
0.0
  0
LINE
  8
STL_Import
 10
6.7250126475696
 20
3.8011811023622
 30
0.0
 11
6.7128200763191
 21
3.7717456314889
 31
0.0
  0
LINE
  8
STL_Import
 10
6.7128200763191
 20
3.7717456314889
 30
0.0
 11
6.7086614173228
 21
3.740157480315
 31
0.0
  0
LINE
  8
STL_Import
 10
6.7086614173228
 20
3.740157480315
 30
0.0
 11
6.7128200763191
 21
3.708569329141
 31
0.0
  0
LINE
  8
STL_Import
 10
6.7128200763191
 20
3.708569329141
 30
0.0
 11
6.7250126475696
 21
3.6791338582677
 31
0.0
  0
LINE
  8
STL_Import
 10
6.7250126475696
 20
3.6791338582677
 30
0.0
 11
6.744408227493
 21
3.6538570463906
 31
0.0
  0
LINE
  8
STL_Import
 10
6.744408227493
 20
3.6538570463906
 30
0.0
 11
6.7696850393701
 21
3.6344614664673
 31
0.0
  0
LINE
  8
STL_Import
 10
6.7696850393701
 20
3.6344614664673
 30
0.0
 11
6.7991205102434
 21
3.6222688952167
 31
0.0
  0
LINE
  8
STL_Import
 10
6.7991205102434
 20
3.6222688952167
 30
0.0
 11
6.8307086614173
 21
3.6181102362205
 31
0.0
  0
LINE
  8
STL_Import
 10
6.8307086614173
 20
3.6181102362205
 30
0.0
 11
6.8622968125913
 21
3.6222688952167
 31
0.0
  0
LINE
  8
STL_Import
 10
6.8622968125913
 20
3.6222688952167
 30
0.0
 11
6.8917322834646
 21
3.6344614664673
 31
0.0
  0
LINE
  8
STL_Import
 10
6.8917322834646
 20
3.6344614664673
 30
0.0
 11
6.9170090953417
 21
3.6538570463906
 31
0.0
  0
LINE
  8
STL_Import
 10
6.9170090953417
 20
3.6538570463906
 30
0.0
 11
6.936404675265
 21
3.6791338582677
 31
0.0
  0
LINE
  8
STL_Import
 10
6.936404675265
 20
3.6791338582677
 30
0.0
 11
6.9485972465156
 21
3.708569329141
 31
0.0
  0
LINE
  8
STL_Import
 10
6.9485972465156
 20
3.708569329141
 30
0.0
 11
6.9527559055118
 21
3.740157480315
 31
0.0
  0
LINE
  8
STL_Import
 10
10.8267716535433
 20
9.0551181102362
 30
0.0
 11
8.0314960629921
 21
6.8897637795276
 31
0.0
  0
LINE
  8
STL_Import
 10
8.0314960629921
 20
2.9527559055118
 30
0.0
 11
10.8267716535433
 21
0.7874015748032
 31
0.0
  0
LINE
  8
STL_Import
 10
10.8267716535433
 20
9.0551181102362
 30
0.0
 11
6.496062992126
 21
8.6785347483739
 31
0.0
  0
LINE
  8
STL_Import
 10
11.8110236220472
 20
1.1811023622047
 30
0.0
 11
11.8110236220472
 21
2.9527559055118
 31
0.0
  0
LINE
  8
STL_Import
 10
9.6305269533616
 20
2.9527559055118
 30
0.0
 11
11.8110236220472
 21
1.1811023622047
 31
0.0
  0
LINE
  8
STL_Import
 10
11.8110236220472
 20
2.9527559055118
 30
0.0
 11
9.6305269533616
 21
2.9527559055118
 31
0.0
  0
LINE
  8
STL_Import
 10
11.8110236220472
 20
8.6614173228347
 30
0.0
 11
11.8110236220472
 21
6.8897637795276
 31
0.0
  0
LINE
  8
STL_Import
 10
9.6305269533616
 20
6.8897637795276
 30
0.0
 11
11.8110236220472
 21
8.6614173228347
 31
0.0
  0
LINE
  8
STL_Import
 10
11.8110236220472
 20
6.8897637795276
 30
0.0
 11
9.6305269533616
 21
6.8897637795276
 31
0.0
  0
LINE
  8
STL_Import
 10
1.7716535433071
 20
9.0551181102362
 30
0.0
 11
4.5669291338583
 21
6.8897637795276
 31
0.0
  0
LINE
  8
STL_Import
 10
0.7874015748032
 20
8.6614173228347
 30
0.0
 11
2.5984251968504
 21
6.8897637795276
 31
0.0
  0
LINE
  8
STL_Import
 10
2.5984251968504
 20
6.8897637795276
 30
0.0
 11
0.7874015748032
 21
6.8897637795276
 31
0.0
  0
LINE
  8
STL_Import
 10
0.7874015748032
 20
6.8897637795276
 30
0.0
 11
0.7874015748032
 21
8.6614173228347
 31
0.0
  0
LINE
  8
STL_Import
 10
0.7874015748032
 20
1.1811023622047
 30
0.0
 11
0.7874015748032
 21
2.9527559055118
 31
0.0
  0
LINE
  8
STL_Import
 10
0.7874015748032
 20
2.9527559055118
 30
0.0
 11
2.5984251968504
 21
2.9527559055118
 31
0.0
  0
LINE
  8
STL_Import
 10
2.5984251968504
 20
2.9527559055118
 30
0.0
 11
0.7874015748032
 21
1.1811023622047
 31
0.0
  0
LINE
  8
STL_Import
 10
1.7716535433071
 20
0.7874015748032
 30
0.0
 11
4.5669291338583
 21
2.9527559055118
 31
0.0
  0
LINE
  8
STL_Import
 10
4.5669291338583
 20
2.9527559055118
 30
0.0
 11
5.9055118110236
 21
2.9527559055118
 31
0.0
  0
LINE
  8
STL_Import
 10
4.5669291338583
 20
6.8897637795276
 30
0.0
 11
5.9055118110236
 21
6.8897637795276
 31
0.0
  0
LINE
  8
STL_Import
 10
0.7874015748032
 20
4.1338582677165
 30
0.0
 11
0.7874015748032
 21
5.7086614173228
 31
0.0
  0
LINE
  8
STL_Import
 10
11.8110236220472
 20
5.7086614173228
 30
0.0
 11
11.8110236220472
 21
4.1338582677165
 31
0.0
  0
LINE
  8
STL_Import
 10
6.1023622047244
 20
1.1639849366655
 30
0.0
 11
1.7716535433071
 21
0.7874015748032
 31
0.0
  0
LINE
  8
STL_Import
 10
5.9055118110236
 20
2.9527559055118
 30
0.0
 11
6.1023622047244
 21
1.1639849366655
 31
0.0
  0
LINE
  8
STL_Import
 10
6.6929133858268
 20
2.9527559055118
 30
0.0
 11
8.0314960629921
 21
2.9527559055118
 31
0.0
  0
LINE
  8
STL_Import
 10
6.496062992126
 20
1.1639849366655
 30
0.0
 11
10.8267716535433
 21
0.7874015748032
 31
0.0
  0
LINE
  8
STL_Import
 10
6.6929133858268
 20
2.9527559055118
 30
0.0
 11
6.496062992126
 21
1.1639849366655
 31
0.0
  0
LINE
  8
STL_Import
 10
6.1023622047244
 20
8.6785347483739
 30
0.0
 11
1.7716535433071
 21
9.0551181102362
 31
0.0
  0
LINE
  8
STL_Import
 10
5.9055118110236
 20
6.8897637795276
 30
0.0
 11
6.1023622047244
 21
8.6785347483739
 31
0.0
  0
LINE
  8
STL_Import
 10
6.6929133858268
 20
6.8897637795276
 30
0.0
 11
8.0314960629921
 21
6.8897637795276
 31
0.0
  0
LINE
  8
STL_Import
 10
6.496062992126
 20
8.6785347483739
 30
0.0
 11
6.6929133858268
 21
6.8897637795276
 31
0.0
  0
LINE
  8
STL_Import
 10
1.7716535433071
 20
0.0
 30
0.0
 11
6.2992125984252
 21
0.3937007874016
 31
0.0
  0
LINE
  8
STL_Import
 10
10.8267716535433
 20
0.0
 30
0.0
 11
12.5984251968504
 21
0.0
 31
0.0
  0
LINE
  8
STL_Import
 10
6.2992125984252
 20
0.3937007874016
 30
0.0
 11
10.8267716535433
 21
0.0
 31
0.0
  0
LINE
  8
STL_Import
 10
10.8267716535433
 20
9.8425196850394
 30
0.0
 11
6.2992125984252
 21
9.4488188976378
 31
0.0
  0
LINE
  8
STL_Import
 10
1.7716535433071
 20
9.8425196850394
 30
0.0
 11
0.0
 21
9.8425196850394
 31
0.0
  0
LINE
  8
STL_Import
 10
6.2992125984252
 20
9.4488188976378
 30
0.0
 11
1.7716535433071
 21
9.8425196850394
 31
0.0
  0
LINE
  8
STL_Import
 10
1.5748031496063
 20
5.7086614173228
 30
0.0
 11
11.0236220472441
 21
5.7086614173228
 31
0.0
  0
LINE
  8
STL_Import
 10
1.5748031496063
 20
5.7086614173228
 30
0.0
 11
1.5748031496063
 21
4.1338582677165
 31
0.0
  0
LINE
  8
STL_Import
 10
11.0236220472441
 20
4.1338582677165
 30
0.0
 11
1.5748031496063
 21
4.1338582677165
 31
0.0
  0
LINE
  8
STL_Import
 10
11.0236220472441
 20
5.7086614173228
 30
0.0
 11
11.0236220472441
 21
4.1338582677165
 31
0.0
  0
LINE
  8
STL_Import
 10
0.0
 20
2.9527559055118
 30
0.0
 11
0.0
 21
0.0
 31
0.0
  0
LINE
  8
STL_Import
 10
0.7874015748032
 20
4.1338582677165
 30
0.0
 11
0.0
 21
2.9527559055118
 31
0.0
  0
LINE
  8
STL_Import
 10
0.0
 20
6.8897637795276
 30
0.0
 11
0.7874015748032
 21
5.7086614173228
 31
0.0
  0
LINE
  8
STL_Import
 10
11.8110236220472
 20
5.7086614173228
 30
0.0
 11
12.5984251968504
 21
6.8897637795276
 31
0.0
  0
LINE
  8
STL_Import
 10
11.8110236220472
 20
4.1338582677165
 30
0.0
 11
12.5984251968504
 21
2.9527559055118
 31
0.0
  0
LINE
  8
STL_Import
 10
12.5984251968504
 20
6.8897637795276
 30
0.0
 11
12.5984251968504
 21
9.8425196850394
 31
0.0
  0
ENDSEC
  0
EOF
